  0
SECTION
  2
HEADER
  9
$ACADVER
  1
AC1021
  9
$ACADMAINTVER
 70
    25
  9
$DWGCODEPAGE
  3
ANSI_1252
  9
$INSBASE
 10
0.0
 20
0.0
 30
0.0
  9
$EXTMIN
 10
256.2541
 20
25.8449
 30
0.0
  9
$EXTMAX
 10
421.4441
 20
155.2033
 30
0.0
  9
$LIMMIN
 10
0.0
 20
0.0
  9
$LIMMAX
 10
12.0
 20
9.0
  9
$ORTHOMODE
 70
     0
  9
$REGENMODE
 70
     1
  9
$FILLMODE
 70
     1
  9
$QTEXTMODE
 70
     0
  9
$MIRRTEXT
 70
     1
  9
$LTSCALE
 40
1.0
  9
$ATTMODE
 70
     1
  9
$TEXTSIZE
 40
0.2
  9
$TRACEWID
 40
0.05
  9
$TEXTSTYLE
  7
Standard
  9
$CLAYER
  8
0
  9
$CELTYPE
  6
ByLayer
  9
$CECOLOR
 62
   256
  9
$CELTSCALE
 40
1.0
  9
$DISPSILH
 70
     0
  9
$DIMSCALE
 40
1.0
  9
$DIMASZ
 40
0.18
  9
$DIMEXO
 40
0.0625
  9
$DIMDLI
 40
0.38
  9
$DIMRND
 40
0.0
  9
$DIMDLE
 40
0.0
  9
$DIMEXE
 40
0.18
  9
$DIMTP
 40
0.0
  9
$DIMTM
 40
0.0
  9
$DIMTXT
 40
0.18
  9
$DIMCEN
 40
0.09
  9
$DIMTSZ
 40
0.0
  9
$DIMTOL
 70
     0
  9
$DIMLIM
 70
     0
  9
$DIMTIH
 70
     1
  9
$DIMTOH
 70
     1
  9
$DIMSE1
 70
     0
  9
$DIMSE2
 70
     0
  9
$DIMTAD
 70
     0
  9
$DIMZIN
 70
     0
  9
$DIMBLK
  1

  9
$DIMASO
 70
     1
  9
$DIMSHO
 70
     1
  9
$DIMPOST
  1

  9
$DIMAPOST
  1

  9
$DIMALT
 70
     0
  9
$DIMALTD
 70
     2
  9
$DIMALTF
 40
25.4
  9
$DIMLFAC
 40
1.0
  9
$DIMTOFL
 70
     0
  9
$DIMTVP
 40
0.0
  9
$DIMTIX
 70
     0
  9
$DIMSOXD
 70
     0
  9
$DIMSAH
 70
     0
  9
$DIMBLK1
  1

  9
$DIMBLK2
  1

  9
$DIMSTYLE
  2
Standard
  9
$DIMCLRD
 70
     0
  9
$DIMCLRE
 70
     0
  9
$DIMCLRT
 70
     0
  9
$DIMTFAC
 40
1.0
  9
$DIMGAP
 40
0.09
  9
$DIMJUST
 70
     0
  9
$DIMSD1
 70
     0
  9
$DIMSD2
 70
     0
  9
$DIMTOLJ
 70
     1
  9
$DIMTZIN
 70
     0
  9
$DIMALTZ
 70
     0
  9
$DIMALTTZ
 70
     0
  9
$DIMUPT
 70
     0
  9
$DIMDEC
 70
     4
  9
$DIMTDEC
 70
     4
  9
$DIMALTU
 70
     2
  9
$DIMALTTD
 70
     2
  9
$DIMTXSTY
  7
Standard
  9
$DIMAUNIT
 70
     0
  9
$DIMADEC
 70
     0
  9
$DIMALTRND
 40
0.0
  9
$DIMAZIN
 70
     0
  9
$DIMDSEP
 70
    46
  9
$DIMATFIT
 70
     3
  9
$DIMFRAC
 70
     0
  9
$DIMLDRBLK
  1

  9
$DIMLUNIT
 70
     2
  9
$DIMLWD
 70
    -2
  9
$DIMLWE
 70
    -2
  9
$DIMTMOVE
 70
     0
  9
$DIMFXL
 40
1.0
  9
$DIMFXLON
 70
     0
  9
$DIMJOGANG
 40
0.7853981633974483
  9
$DIMTFILL
 70
     0
  9
$DIMTFILLCLR
 70
     0
  9
$DIMARCSYM
 70
     0
  9
$DIMLTYPE
  6

  9
$DIMLTEX1
  6

  9
$DIMLTEX2
  6

  9
$LUNITS
 70
     2
  9
$LUPREC
 70
     4
  9
$SKETCHINC
 40
0.1
  9
$FILLETRAD
 40
0.5
  9
$AUNITS
 70
     0
  9
$AUPREC
 70
     0
  9
$MENU
  1
.
  9
$ELEVATION
 40
0.0
  9
$PELEVATION
 40
0.0
  9
$THICKNESS
 40
0.0
  9
$LIMCHECK
 70
     0
  9
$CHAMFERA
 40
0.5
  9
$CHAMFERB
 40
0.5
  9
$CHAMFERC
 40
1.0
  9
$CHAMFERD
 40
0.0
  9
$SKPOLY
 70
     0
  9
$TDCREATE
 40
2460128.40994272
  9
$TDUCREATE
 40
2460128.180776053
  9
$TDUPDATE
 40
2460128.409943565
  9
$TDUUPDATE
 40
2460128.180776898
  9
$TDINDWG
 40
0.0000000116
  9
$TDUSRTIMER
 40
0.0000000116
  9
$USRTIMER
 70
     1
  9
$ANGBASE
 50
0.0
  9
$ANGDIR
 70
     0
  9
$PDMODE
 70
     0
  9
$PDSIZE
 40
0.0
  9
$PLINEWID
 40
0.0
  9
$SPLFRAME
 70
     0
  9
$SPLINETYPE
 70
     6
  9
$SPLINESEGS
 70
     8
  9
$HANDSEED
  5
D6
  9
$SURFTAB1
 70
     6
  9
$SURFTAB2
 70
     6
  9
$SURFTYPE
 70
     6
  9
$SURFU
 70
     6
  9
$SURFV
 70
     6
  9
$UCSBASE
  2

  9
$UCSNAME
  2

  9
$UCSORG
 10
0.0
 20
0.0
 30
0.0
  9
$UCSXDIR
 10
1.0
 20
0.0
 30
0.0
  9
$UCSYDIR
 10
0.0
 20
1.0
 30
0.0
  9
$UCSORTHOREF
  2

  9
$UCSORTHOVIEW
 70
     0
  9
$UCSORGTOP
 10
0.0
 20
0.0
 30
0.0
  9
$UCSORGBOTTOM
 10
0.0
 20
0.0
 30
0.0
  9
$UCSORGLEFT
 10
0.0
 20
0.0
 30
0.0
  9
$UCSORGRIGHT
 10
0.0
 20
0.0
 30
0.0
  9
$UCSORGFRONT
 10
0.0
 20
0.0
 30
0.0
  9
$UCSORGBACK
 10
0.0
 20
0.0
 30
0.0
  9
$PUCSBASE
  2

  9
$PUCSNAME
  2

  9
$PUCSORG
 10
0.0
 20
0.0
 30
0.0
  9
$PUCSXDIR
 10
1.0
 20
0.0
 30
0.0
  9
$PUCSYDIR
 10
0.0
 20
1.0
 30
0.0
  9
$PUCSORTHOREF
  2

  9
$PUCSORTHOVIEW
 70
     0
  9
$PUCSORGTOP
 10
0.0
 20
0.0
 30
0.0
  9
$PUCSORGBOTTOM
 10
0.0
 20
0.0
 30
0.0
  9
$PUCSORGLEFT
 10
0.0
 20
0.0
 30
0.0
  9
$PUCSORGRIGHT
 10
0.0
 20
0.0
 30
0.0
  9
$PUCSORGFRONT
 10
0.0
 20
0.0
 30
0.0
  9
$PUCSORGBACK
 10
0.0
 20
0.0
 30
0.0
  9
$USERI1
 70
     0
  9
$USERI2
 70
     0
  9
$USERI3
 70
     0
  9
$USERI4
 70
     0
  9
$USERI5
 70
     0
  9
$USERR1
 40
0.0
  9
$USERR2
 40
0.0
  9
$USERR3
 40
0.0
  9
$USERR4
 40
0.0
  9
$USERR5
 40
0.0
  9
$WORLDVIEW
 70
     1
  9
$SHADEDGE
 70
     3
  9
$SHADEDIF
 70
    70
  9
$TILEMODE
 70
     1
  9
$MAXACTVP
 70
    64
  9
$PINSBASE
 10
0.0
 20
0.0
 30
0.0
  9
$PLIMCHECK
 70
     0
  9
$PEXTMIN
 10
1.000000000000000E+20
 20
1.000000000000000E+20
 30
1.000000000000000E+20
  9
$PEXTMAX
 10
-1.000000000000000E+20
 20
-1.000000000000000E+20
 30
-1.000000000000000E+20
  9
$PLIMMIN
 10
0.0
 20
0.0
  9
$PLIMMAX
 10
12.0
 20
9.0
  9
$UNITMODE
 70
     0
  9
$VISRETAIN
 70
     1
  9
$PLINEGEN
 70
     0
  9
$PSLTSCALE
 70
     1
  9
$TREEDEPTH
 70
  3020
  9
$CMLSTYLE
  2
Standard
  9
$CMLJUST
 70
     0
  9
$CMLSCALE
 40
1.0
  9
$PROXYGRAPHICS
 70
     1
  9
$MEASUREMENT
 70
     0
  9
$CELWEIGHT
370
    -1
  9
$ENDCAPS
280
     0
  9
$JOINSTYLE
280
     0
  9
$LWDISPLAY
290
     0
  9
$INSUNITS
 70
     4
  9
$HYPERLINKBASE
  1

  9
$STYLESHEET
  1

  9
$XEDIT
290
     1
  9
$CEPSNTYPE
380
     0
  9
$PSTYLEMODE
290
     1
  9
$FINGERPRINTGUID
  2
{0CCC07A0-94CC-47F3-8916-E2E29C44D348}
  9
$VERSIONGUID
  2
{FAEB1C32-E019-11D5-929B-00C0DF256EC4}
  9
$EXTNAMES
290
     1
  9
$PSVPSCALE
 40
0.0
  9
$OLESTARTUP
290
     0
  9
$SORTENTS
280
   127
  9
$INDEXCTL
280
     0
  9
$HIDETEXT
280
     1
  9
$XCLIPFRAME
290
     0
  9
$HALOGAP
280
     0
  9
$OBSCOLOR
 70
   257
  9
$OBSLTYPE
280
     0
  9
$INTERSECTIONDISPLAY
280
     0
  9
$INTERSECTIONCOLOR
 70
   257
  9
$DIMASSOC
280
     2
  9
$PROJECTNAME
  1

  9
$CAMERADISPLAY
290
     0
  9
$LENSLENGTH
 40
50.0
  9
$CAMERAHEIGHT
 40
0.0
  9
$STEPSPERSEC
 40
2.0
  9
$STEPSIZE
 40
6.0
  9
$3DDWFPREC
 40
2.0
  9
$PSOLWIDTH
 40
0.25
  9
$PSOLHEIGHT
 40
4.0
  9
$LOFTANG1
 40
1.570796326794897
  9
$LOFTANG2
 40
1.570796326794897
  9
$LOFTMAG1
 40
0.0
  9
$LOFTMAG2
 40
0.0
  9
$LOFTPARAM
 70
     7
  9
$LOFTNORMALS
280
     1
  9
$LATITUDE
 40
37.795
  9
$LONGITUDE
 40
-122.394
  9
$NORTHDIRECTION
 40
0.0
  9
$TIMEZONE
 70
 -8000
  9
$LIGHTGLYPHDISPLAY
280
     1
  9
$TILEMODELIGHTSYNCH
280
     1
  9
$SOLIDHIST
280
     1
  9
$SHOWHIST
280
     1
  9
$DWFFRAME
280
     2
  9
$DGNFRAME
280
     2
  9
$REALWORLDSCALE
290
     1
  9
$INTERFERECOLOR
 62
   256
  9
$CSHADOW
280
     0
  9
$SHADOWPLANELOCATION
 40
0.0
  0
ENDSEC
  0
SECTION
  2
CLASSES
  0
CLASS
  1
ACDBDICTIONARYWDFLT
  2
AcDbDictionaryWithDefault
  3
ObjectDBX Classes
 90
        0
 91
        4
280
     0
281
     0
  0
CLASS
  1
VISUALSTYLE
  2
AcDbVisualStyle
  3
ObjectDBX Classes
 90
     4095
 91
        4
280
     0
281
     0
  0
CLASS
  1
MATERIAL
  2
AcDbMaterial
  3
ObjectDBX Classes
 90
     1153
 91
        4
280
     0
281
     0
  0
ENDSEC
  0
SECTION
  2
TABLES
  0
TABLE
  2
VPORT
  5
8
330
0
100
AcDbSymbolTable
 70
     1
  0
VPORT
  5
29
330
8
100
AcDbSymbolTableRecord
100
AcDbViewportTableRecord
  2
*Active
 70
     0
 10
0.0
 20
0.0
 11
1.0
 21
1.0
 12
10.42990654205607
 22
4.5
 13
0.0
 23
0.0
 14
0.5
 24
0.5
 15
0.5
 25
0.5
 16
0.0
 26
0.0
 36
1.0
 17
0.0
 27
0.0
 37
0.0
 40
9.0
 41
1.972972972850329
 42
50.0
 43
0.0
 44
0.0
 50
0.0
 51
0.0
 71
     0
 72
   100
 73
     1
 74
     3
 75
     0
 76
     0
 77
     0
 78
     0
281
     0
 65
     1
110
0.0
120
0.0
130
0.0
111
1.0
121
0.0
131
0.0
112
0.0
122
1.0
132
0.0
 79
     0
146
0.0
 60
     3
 61
     5
292
     1
282
     1
141
0.0
142
0.0
 63
   250
  0
ENDTAB
  0
TABLE
  2
LTYPE
  5
5
330
0
100
AcDbSymbolTable
 70
     1
  0
LTYPE
  5
14
330
5
100
AcDbSymbolTableRecord
100
AcDbLinetypeTableRecord
  2
ByBlock
 70
     0
  3

 72
    65
 73
     0
 40
0.0
  0
LTYPE
  5
15
330
5
100
AcDbSymbolTableRecord
100
AcDbLinetypeTableRecord
  2
ByLayer
 70
     0
  3

 72
    65
 73
     0
 40
0.0
  0
LTYPE
  5
16
330
5
100
AcDbSymbolTableRecord
100
AcDbLinetypeTableRecord
  2
Continuous
 70
     0
  3
Solid line
 72
    65
 73
     0
 40
0.0
  0
ENDTAB
  0
TABLE
  2
LAYER
  5
2
330
0
100
AcDbSymbolTable
 70
     2
  0
LAYER
  5
10
330
2
100
AcDbSymbolTableRecord
100
AcDbLayerTableRecord
  2
0
 70
     0
 62
     7
  6
Continuous
370
    -3
390
F
347
3E
  0
LAYER
  5
40
330
2
100
AcDbSymbolTableRecord
100
AcDbLayerTableRecord
  2
Layer 1
 70
     0
 62
     7
  6
Continuous
370
    -3
390
F
347
3E
  0
ENDTAB
  0
TABLE
  2
STYLE
  5
3
330
0
100
AcDbSymbolTable
 70
     1
  0
STYLE
  5
11
330
3
100
AcDbSymbolTableRecord
100
AcDbTextStyleTableRecord
  2
Standard
 70
     0
 40
0.0
 41
1.0
 50
0.0
 71
     0
 42
0.2
  3
txt
  4

  0
ENDTAB
  0
TABLE
  2
VIEW
  5
6
330
0
100
AcDbSymbolTable
 70
     0
  0
ENDTAB
  0
TABLE
  2
UCS
  5
7
330
0
100
AcDbSymbolTable
 70
     0
  0
ENDTAB
  0
TABLE
  2
APPID
  5
9
330
0
100
AcDbSymbolTable
 70
     2
  0
APPID
  5
12
330
9
100
AcDbSymbolTableRecord
100
AcDbRegAppTableRecord
  2
ACAD
 70
     0
  0
APPID
  5
3F
330
9
100
AcDbSymbolTableRecord
100
AcDbRegAppTableRecord
  2
ODA
 70
     0
  0
ENDTAB
  0
TABLE
  2
DIMSTYLE
  5
A
330
0
100
AcDbSymbolTable
 70
     1
100
AcDbDimStyleTable
  0
DIMSTYLE
105
27
330
A
100
AcDbSymbolTableRecord
100
AcDbDimStyleTableRecord
  2
Standard
 70
     0
178
     0
340
11
  0
ENDTAB
  0
TABLE
  2
BLOCK_RECORD
  5
1
330
0
100
AcDbSymbolTable
 70
     1
  0
BLOCK_RECORD
  5
1F
330
1
100
AcDbSymbolTableRecord
100
AcDbBlockTableRecord
  2
*Model_Space
340
22
 70
     0
280
     1
281
     0
  0
BLOCK_RECORD
  5
1B
330
1
100
AcDbSymbolTableRecord
100
AcDbBlockTableRecord
  2
*Paper_Space
340
1E
 70
     0
280
     1
281
     0
  0
BLOCK_RECORD
  5
23
330
1
100
AcDbSymbolTableRecord
100
AcDbBlockTableRecord
  2
*Paper_Space0
340
26
 70
     0
280
     1
281
     0
  0
ENDTAB
  0
ENDSEC
  0
SECTION
  2
BLOCKS
  0
BLOCK
  5
20
330
1F
100
AcDbEntity
  8
0
100
AcDbBlockBegin
  2
*Model_Space
 70
     0
 10
0.0
 20
0.0
 30
0.0
  3
*Model_Space
  1

  0
ENDBLK
  5
21
330
1F
100
AcDbEntity
  8
0
100
AcDbBlockEnd
  0
BLOCK
  5
1C
330
1B
100
AcDbEntity
 67
     1
  8
0
100
AcDbBlockBegin
  2
*Paper_Space
 70
     0
 10
0.0
 20
0.0
 30
0.0
  3
*Paper_Space
  1

  0
ENDBLK
  5
1D
330
1B
100
AcDbEntity
 67
     1
  8
0
100
AcDbBlockEnd
  0
BLOCK
  5
24
330
23
100
AcDbEntity
  8
0
100
AcDbBlockBegin
  2
*Paper_Space0
 70
     0
 10
0.0
 20
0.0
 30
0.0
  3
*Paper_Space0
  1

  0
ENDBLK
  5
25
330
23
100
AcDbEntity
  8
0
100
AcDbBlockEnd
  0
ENDSEC
  0
SECTION
  2
ENTITIES
  0
SPLINE
  5
41
330
1F
100
AcDbEntity
  8
Layer 1
 62
   250
370
     9
100
AcDbSpline
210
0.0
220
0.0
230
1.0
 70
     8
 71
     3
 72
    32
 73
    28
 74
     0
 42
0.0000000001
 43
0.0000000001
 12
1.0
 22
0.0
 32
0.0
 13
1.0
 23
0.0
 33
0.0
 40
0.0
 40
0.0
 40
0.0
 40
0.0
 40
0.125
 40
0.125
 40
0.125
 40
0.125
 40
0.25
 40
0.25
 40
0.25
 40
0.25
 40
0.375
 40
0.375
 40
0.375
 40
0.375
 40
0.5
 40
0.5
 40
0.5
 40
0.5
 40
0.625
 40
0.625
 40
0.625
 40
0.625
 40
0.75
 40
0.75
 40
0.75
 40
0.75
 40
1.0
 40
1.0
 40
1.0
 40
1.0
 10
291.1582
 20
93.9213
 30
0.0
 10
289.0379
 20
94.2339
 30
0.0
 10
285.7962
 20
94.1475
 30
0.0
 10
283.5358
 20
94.2444
 30
0.0
 10
283.5358
 20
94.2444
 30
0.0
 10
278.359
 20
94.4665
 30
0.0
 10
271.4125
 20
122.2384
 30
0.0
 10
281.758
 20
130.0656
 30
0.0
 10
281.758
 20
130.0656
 30
0.0
 10
297.1901
 20
137.8452
 30
0.0
 10
324.0695
 20
136.0431
 30
0.0
 10
335.4566
 20
123.6213
 30
0.0
 10
335.4566
 20
123.6213
 30
0.0
 10
344.3396
 20
111.8874
 30
0.0
 10
346.691
 20
109.7899
 30
0.0
 10
340.3684
 20
103.6372
 30
0.0
 10
340.3684
 20
103.6372
 30
0.0
 10
337.1561
 20
100.5113
 30
0.0
 10
328.374
 20
96.6111
 30
0.0
 10
323.0057
 20
97.27
 30
0.0
 10
323.0057
 20
97.27
 30
0.0
 10
319.5427
 20
97.695
 30
0.0
 10
319.2067
 20
99.3356
 30
0.0
 10
317.4992
 20
99.7802
 30
0.0
 10
317.4992
 20
99.7802
 30
0.0
 10
317.6686
 20
99.1982
 30
0.0
 10
319.8201
 20
96.6157
 30
0.0
 10
322.2606
 20
93.9213
 30
0.0
  0
SPLINE
  5
42
330
1F
100
AcDbEntity
  8
Layer 1
 62
   250
370
     9
100
AcDbSpline
210
0.0
220
0.0
230
1.0
 70
     8
 71
     3
 72
    36
 73
    32
 74
     0
 42
0.0000000001
 43
0.0000000001
 12
1.0
 22
0.0
 32
0.0
 13
1.0
 23
0.0
 33
0.0
 40
0.0
 40
0.0
 40
0.0
 40
0.0
 40
0.1111111111111111
 40
0.1111111111111111
 40
0.1111111111111111
 40
0.1111111111111111
 40
0.2222222222222222
 40
0.2222222222222222
 40
0.2222222222222222
 40
0.2222222222222222
 40
0.3333333333333333
 40
0.3333333333333333
 40
0.3333333333333333
 40
0.3333333333333333
 40
0.4444444444444444
 40
0.4444444444444444
 40
0.4444444444444444
 40
0.4444444444444444
 40
0.5555555555555556
 40
0.5555555555555556
 40
0.5555555555555556
 40
0.5555555555555556
 40
0.6666666666666666
 40
0.6666666666666666
 40
0.6666666666666666
 40
0.6666666666666666
 40
0.7777777777777778
 40
0.7777777777777778
 40
0.7777777777777778
 40
0.7777777777777778
 40
1.0
 40
1.0
 40
1.0
 40
1.0
 10
336.8662
 20
85.8986
 30
0.0
 10
336.7922
 20
81.0646
 30
0.0
 10
336.4686
 20
76.452
 30
0.0
 10
336.7105
 20
71.55
 30
0.0
 10
336.7105
 20
71.55
 30
0.0
 10
337.1427
 20
62.7896
 30
0.0
 10
340.4165
 20
45.2815
 30
0.0
 10
337.9382
 20
37.5465
 30
0.0
 10
337.9382
 20
37.5465
 30
0.0
 10
337.0272
 20
34.7032
 30
0.0
 10
335.9743
 20
35.0413
 30
0.0
 10
333.7579
 20
33.9792
 30
0.0
 10
333.7579
 20
33.9792
 30
0.0
 10
334.3173
 20
32.5938
 30
0.0
 10
339.8011
 20
26.6126
 30
0.0
 10
341.7664
 20
26.5385
 30
0.0
 10
341.7664
 20
26.5385
 30
0.0
 10
343.4275
 20
26.4758
 30
0.0
 10
344.464
 20
27.5615
 30
0.0
 10
345.0547
 20
28.5616
 30
0.0
 10
345.0547
 20
28.5616
 30
0.0
 10
347.2504
 20
32.2787
 30
0.0
 10
346.546
 20
42.5115
 30
0.0
 10
346.0736
 20
47.239
 30
0.0
 10
346.0736
 20
47.239
 30
0.0
 10
345.4308
 20
53.6716
 30
0.0
 10
344.4935
 20
59.6663
 30
0.0
 10
344.3324
 20
66.2584
 30
0.0
 10
344.3324
 20
66.2584
 30
0.0
 10
344.2387
 20
70.0923
 30
0.0
 10
345.2077
 20
82.6885
 30
0.0
 10
344.7407
 20
85.8986
 30
0.0
  0
SPLINE
  5
43
330
1F
100
AcDbEntity
  8
Layer 1
 62
   250
370
     9
100
AcDbSpline
210
0.0
220
0.0
230
1.0
 70
     8
 71
     3
 72
    80
 73
    76
 74
     0
 42
0.0000000001
 43
0.0000000001
 12
1.0
 22
0.0
 32
0.0
 13
1.0
 23
0.0
 33
0.0
 40
0.0
 40
0.0
 40
0.0
 40
0.0
 40
0.05
 40
0.05
 40
0.05
 40
0.05
 40
0.1
 40
0.1
 40
0.1
 40
0.1
 40
0.15
 40
0.15
 40
0.15
 40
0.15
 40
0.2
 40
0.2
 40
0.2
 40
0.2
 40
0.25
 40
0.25
 40
0.25
 40
0.25
 40
0.3
 40
0.3
 40
0.3
 40
0.3
 40
0.35
 40
0.35
 40
0.35
 40
0.35
 40
0.4
 40
0.4
 40
0.4
 40
0.4
 40
0.45
 40
0.45
 40
0.45
 40
0.45
 40
0.5
 40
0.5
 40
0.5
 40
0.5
 40
0.55
 40
0.55
 40
0.55
 40
0.55
 40
0.6
 40
0.6
 40
0.6
 40
0.6
 40
0.65
 40
0.65
 40
0.65
 40
0.65
 40
0.7
 40
0.7
 40
0.7
 40
0.7
 40
0.75
 40
0.75
 40
0.75
 40
0.75
 40
0.8
 40
0.8
 40
0.8
 40
0.8
 40
0.85
 40
0.85
 40
0.85
 40
0.85
 40
0.9
 40
0.9
 40
0.9
 40
0.9
 40
1.0
 40
1.0
 40
1.0
 40
1.0
 10
384.1663
 20
85.8986
 30
0.0
 10
384.3041
 20
80.6239
 30
0.0
 10
383.7809
 20
75.4399
 30
0.0
 10
384.1171
 20
69.9549
 30
0.0
 10
384.1171
 20
69.9549
 30
0.0
 10
384.3954
 20
65.4137
 30
0.0
 10
385.8959
 20
58.892
 30
0.0
 10
384.7577
 20
54.7166
 30
0.0
 10
384.7577
 20
54.7166
 30
0.0
 10
383.3424
 20
49.5246
 30
0.0
 10
380.7287
 20
48.9285
 30
0.0
 10
375.0626
 20
47.7855
 30
0.0
 10
375.0626
 20
47.7855
 30
0.0
 10
371.1849
 20
47.0032
 30
0.0
 10
363.8161
 20
46.2502
 30
0.0
 10
360.3926
 20
48.1087
 30
0.0
 10
360.3926
 20
48.1087
 30
0.0
 10
358.2053
 20
49.2961
 30
0.0
 10
358.7165
 20
56.4818
 30
0.0
 10
361.7173
 20
60.8525
 30
0.0
 10
361.7173
 20
60.8525
 30
0.0
 10
366.8355
 20
68.307
 30
0.0
 10
374.3674
 20
66.982
 30
0.0
 10
377.97
 20
69.4659
 30
0.0
 10
377.97
 20
69.4659
 30
0.0
 10
379.2829
 20
70.3711
 30
0.0
 10
381.3038
 20
72.6897
 30
0.0
 10
380.2392
 20
75.3678
 30
0.0
 10
380.2392
 20
75.3678
 30
0.0
 10
379.5102
 20
77.2018
 30
0.0
 10
373.6036
 20
83.159
 30
0.0
 10
371.9295
 20
83.7885
 30
0.0
 10
371.9295
 20
83.7885
 30
0.0
 10
372.7366
 20
81.9643
 30
0.0
 10
373.1925
 20
81.063
 30
0.0
 10
371.8446
 20
79.0345
 30
0.0
 10
371.8446
 20
79.0345
 30
0.0
 10
369.0926
 20
74.8932
 30
0.0
 10
363.4184
 20
76.2076
 30
0.0
 10
358.5197
 20
73.0458
 30
0.0
 10
358.5197
 20
73.0458
 30
0.0
 10
353.8885
 20
70.0566
 30
0.0
 10
349.2361
 20
63.7014
 30
0.0
 10
352.2106
 20
55.542
 30
0.0
 10
352.2106
 20
55.542
 30
0.0
 10
353.6726
 20
51.5315
 30
0.0
 10
357.8487
 20
47.7749
 30
0.0
 10
360.7442
 20
45.024
 30
0.0
 10
360.7442
 20
45.024
 30
0.0
 10
364.6204
 20
41.3414
 30
0.0
 10
368.2566
 20
39.3462
 30
0.0
 10
374.3027
 20
39.1342
 30
0.0
 10
374.3027
 20
39.1342
 30
0.0
 10
379.0058
 20
38.9692
 30
0.0
 10
381.8285
 20
40.0982
 30
0.0
 10
385.8878
 20
40.5578
 30
0.0
 10
385.8878
 20
40.5578
 30
0.0
 10
385.5311
 20
33.6501
 30
0.0
 10
381.9714
 20
34.0835
 30
0.0
 10
381.0004
 20
33.4501
 30
0.0
 10
381.0004
 20
33.4501
 30
0.0
 10
381.8308
 20
31.6859
 30
0.0
 10
387.1678
 20
26.1404
 30
0.0
 10
388.8645
 20
25.9204
 30
0.0
 10
388.8645
 20
25.9204
 30
0.0
 10
395.7841
 20
25.0231
 30
0.0
 10
393.9413
 20
42.7698
 30
0.0
 10
393.5237
 20
46.9189
 30
0.0
 10
393.5237
 20
46.9189
 30
0.0
 10
392.891
 20
53.2057
 30
0.0
 10
391.9469
 20
59.4438
 30
0.0
 10
391.7664
 20
65.9936
 30
0.0
 10
391.7664
 20
65.9936
 30
0.0
 10
391.739
 20
66.9882
 30
0.0
 10
391.9852
 20
83.043
 30
0.0
 10
392.4902
 20
85.8986
 30
0.0
  0
SPLINE
  5
44
330
1F
100
AcDbEntity
  8
Layer 1
 62
   250
370
     9
100
AcDbSpline
210
0.0
220
0.0
230
1.0
 70
     8
 71
     3
 72
   108
 73
   104
 74
     0
 42
0.0000000001
 43
0.0000000001
 12
1.0
 22
0.0
 32
0.0
 13
1.0
 23
0.0
 33
0.0
 40
0.0
 40
0.0
 40
0.0
 40
0.0
 40
0.037037037037037
 40
0.037037037037037
 40
0.037037037037037
 40
0.037037037037037
 40
0.0740740740740741
 40
0.0740740740740741
 40
0.0740740740740741
 40
0.0740740740740741
 40
0.1111111111111111
 40
0.1111111111111111
 40
0.1111111111111111
 40
0.1111111111111111
 40
0.1481481481481481
 40
0.1481481481481481
 40
0.1481481481481481
 40
0.1481481481481481
 40
0.1851851851851852
 40
0.1851851851851852
 40
0.1851851851851852
 40
0.1851851851851852
 40
0.2222222222222222
 40
0.2222222222222222
 40
0.2222222222222222
 40
0.2222222222222222
 40
0.2592592592592592
 40
0.2592592592592592
 40
0.2592592592592592
 40
0.2592592592592592
 40
0.2962962962962963
 40
0.2962962962962963
 40
0.2962962962962963
 40
0.2962962962962963
 40
0.3333333333333333
 40
0.3333333333333333
 40
0.3333333333333333
 40
0.3333333333333333
 40
0.3703703703703703
 40
0.3703703703703703
 40
0.3703703703703703
 40
0.3703703703703703
 40
0.4074074074074074
 40
0.4074074074074074
 40
0.4074074074074074
 40
0.4074074074074074
 40
0.4444444444444444
 40
0.4444444444444444
 40
0.4444444444444444
 40
0.4444444444444444
 40
0.4814814814814815
 40
0.4814814814814815
 40
0.4814814814814815
 40
0.4814814814814815
 40
0.5185185185185185
 40
0.5185185185185185
 40
0.5185185185185185
 40
0.5185185185185185
 40
0.5555555555555556
 40
0.5555555555555556
 40
0.5555555555555556
 40
0.5555555555555556
 40
0.5925925925925926
 40
0.5925925925925926
 40
0.5925925925925926
 40
0.5925925925925926
 40
0.6296296296296297
 40
0.6296296296296297
 40
0.6296296296296297
 40
0.6296296296296297
 40
0.6666666666666666
 40
0.6666666666666666
 40
0.6666666666666666
 40
0.6666666666666666
 40
0.7037037037037037
 40
0.7037037037037037
 40
0.7037037037037037
 40
0.7037037037037037
 40
0.7407407407407407
 40
0.7407407407407407
 40
0.7407407407407407
 40
0.7407407407407407
 40
0.7777777777777778
 40
0.7777777777777778
 40
0.7777777777777778
 40
0.7777777777777778
 40
0.8148148148148148
 40
0.8148148148148148
 40
0.8148148148148148
 40
0.8148148148148148
 40
0.8518518518518519
 40
0.8518518518518519
 40
0.8518518518518519
 40
0.8518518518518519
 40
0.8888888888888888
 40
0.8888888888888888
 40
0.8888888888888888
 40
0.8888888888888888
 40
0.9259259259259259
 40
0.9259259259259259
 40
0.9259259259259259
 40
0.9259259259259259
 40
1.0
 40
1.0
 40
1.0
 40
1.0
 10
401.404
 20
85.8986
 30
0.0
 10
405.737
 20
85.507
 30
0.0
 10
410.1356
 20
84.7257
 30
0.0
 10
413.3992
 20
83.3891
 30
0.0
 10
413.3992
 20
83.3891
 30
0.0
 10
416.8296
 20
81.9842
 30
0.0
 10
418.7349
 20
77.6041
 30
0.0
 10
421.3991
 20
77.0797
 30
0.0
 10
421.3991
 20
77.0797
 30
0.0
 10
421.3991
 20
77.0797
 30
0.0
 10
421.3991
 20
77.3928
 30
0.0
 10
421.3991
 20
77.3928
 30
0.0
 10
421.3991
 20
77.3928
 30
0.0
 10
420.5791
 20
78.3398
 30
0.0
 10
419.7249
 20
79.778
 30
0.0
 10
418.9046
 20
80.697
 30
0.0
 10
418.9046
 20
80.697
 30
0.0
 10
416.065
 20
83.8783
 30
0.0
 10
413.7725
 20
86.5585
 30
0.0
 10
410.0145
 20
89.0076
 30
0.0
 10
410.0145
 20
89.0076
 30
0.0
 10
404.7694
 20
92.4259
 30
0.0
 10
399.1675
 20
93.4234
 30
0.0
 10
391.8652
 20
93.879
 30
0.0
 10
391.8652
 20
93.879
 30
0.0
 10
376.6649
 20
94.8272
 30
0.0
 10
361.3385
 20
93.8218
 30
0.0
 10
346.1714
 20
94.231
 30
0.0
 10
346.1714
 20
94.231
 30
0.0
 10
346.1714
 20
94.231
 30
0.0
 10
346.7116
 20
94.905
 30
0.0
 10
346.7116
 20
94.905
 30
0.0
 10
346.7116
 20
94.905
 30
0.0
 10
347.0697
 20
95.2839
 30
0.0
 10
346.8937
 20
95.082
 30
0.0
 10
347.2759
 20
95.4101
 30
0.0
 10
347.2759
 20
95.4101
 30
0.0
 10
347.7085
 20
95.7814
 30
0.0
 10
347.8288
 20
95.8601
 30
0.0
 10
348.2302
 20
96.2984
 30
0.0
 10
348.2302
 20
96.2984
 30
0.0
 10
350.4713
 20
98.7453
 30
0.0
 10
351.536
 20
100.9174
 30
0.0
 10
351.743
 20
104.6263
 30
0.0
 10
351.743
 20
104.6263
 30
0.0
 10
352.3745
 20
115.9399
 30
0.0
 10
343.2734
 20
128.3991
 30
0.0
 10
335.7187
 20
135.6215
 30
0.0
 10
335.7187
 20
135.6215
 30
0.0
 10
330.9057
 20
140.2228
 30
0.0
 10
325.0388
 20
145.0461
 30
0.0
 10
317.0922
 20
148.4834
 30
0.0
 10
317.0922
 20
148.4834
 30
0.0
 10
313.3496
 20
150.1023
 30
0.0
 10
309.5805
 20
151.5329
 30
0.0
 10
305.4174
 20
152.6938
 30
0.0
 10
305.4174
 20
152.6938
 30
0.0
 10
303.3206
 20
153.2785
 30
0.0
 10
301.2143
 20
153.7876
 30
0.0
 10
299.0133
 20
154.1724
 30
0.0
 10
299.0133
 20
154.1724
 30
0.0
 10
297.2958
 20
154.4726
 30
0.0
 10
293.4213
 20
154.673
 30
0.0
 10
292.2515
 20
155.1583
 30
0.0
 10
292.2515
 20
155.1583
 30
0.0
 10
292.2515
 20
155.1583
 30
0.0
 10
285.9258
 20
155.1583
 30
0.0
 10
285.9258
 20
155.1583
 30
0.0
 10
285.9258
 20
155.1583
 30
0.0
 10
284.1341
 20
154.4188
 30
0.0
 10
270.1012
 20
154.6432
 30
0.0
 10
260.3761
 20
143.6736
 30
0.0
 10
260.3761
 20
143.6736
 30
0.0
 10
259.2674
 20
142.423
 30
0.0
 10
258.6676
 20
141.619
 30
0.0
 10
257.892
 20
140.0698
 30
0.0
 10
257.892
 20
140.0698
 30
0.0
 10
257.2346
 20
138.7567
 30
0.0
 10
256.9479
 20
136.8167
 30
0.0
 10
256.2991
 20
135.5224
 30
0.0
 10
256.2991
 20
135.5224
 30
0.0
 10
256.2991
 20
135.5224
 30
0.0
 10
256.2991
 20
130.7818
 30
0.0
 10
256.2991
 20
130.7818
 30
0.0
 10
256.2991
 20
130.7818
 30
0.0
 10
257.6507
 20
127.7843
 30
0.0
 10
257.2041
 20
121.5581
 30
0.0
 10
265.3821
 20
110.2692
 30
0.0
 10
265.3821
 20
110.2692
 30
0.0
 10
269.1429
 20
105.0777
 30
0.0
 10
273.5858
 20
99.7564
 30
0.0
 10
278.4193
 20
95.5301
 30
0.0
 10
278.4193
 20
95.5301
 30
0.0
 10
279.1683
 20
94.8752
 30
0.0
 10
279.045
 20
95.0978
 30
0.0
 10
279.4461
 20
94.224
 30
0.0
 10
279.4461
 20
94.224
 30
0.0
 10
279.4461
 20
94.224
 30
0.0
 10
268.7482
 20
94.5836
 30
0.0
 10
268.7482
 20
94.5836
 30
0.0
 10
268.7482
 20
94.5836
 30
0.0
 10
268.8026
 20
94.4419
 30
0.0
 10
268.87
 20
94.2949
 30
0.0
 10
268.9486
 20
94.1435
 30
0.0
  0
SPLINE
  5
45
330
1F
100
AcDbEntity
  8
Layer 1
 62
   250
370
     9
100
AcDbSpline
210
0.0
220
0.0
230
1.0
 70
     8
 71
     3
 72
    44
 73
    40
 74
     0
 42
0.0000000001
 43
0.0000000001
 12
1.0
 22
0.0
 32
0.0
 13
1.0
 23
0.0
 33
0.0
 40
0.0
 40
0.0
 40
0.0
 40
0.0
 40
0.0909090909090909
 40
0.0909090909090909
 40
0.0909090909090909
 40
0.0909090909090909
 40
0.1818181818181818
 40
0.1818181818181818
 40
0.1818181818181818
 40
0.1818181818181818
 40
0.2727272727272727
 40
0.2727272727272727
 40
0.2727272727272727
 40
0.2727272727272727
 40
0.3636363636363636
 40
0.3636363636363636
 40
0.3636363636363636
 40
0.3636363636363636
 40
0.4545454545454545
 40
0.4545454545454545
 40
0.4545454545454545
 40
0.4545454545454545
 40
0.5454545454545454
 40
0.5454545454545454
 40
0.5454545454545454
 40
0.5454545454545454
 40
0.6363636363636364
 40
0.6363636363636364
 40
0.6363636363636364
 40
0.6363636363636364
 40
0.7272727272727273
 40
0.7272727272727273
 40
0.7272727272727273
 40
0.7272727272727273
 40
0.8181818181818182
 40
0.8181818181818182
 40
0.8181818181818182
 40
0.8181818181818182
 40
1.0
 40
1.0
 40
1.0
 40
1.0
 10
278.3967
 20
86.5324
 30
0.0
 10
279.4658
 20
86.493
 30
0.0
 10
280.9256
 20
86.5345
 30
0.0
 10
283.3011
 20
86.3847
 30
0.0
 10
283.3011
 20
86.3847
 30
0.0
 10
282.8879
 20
72.5485
 30
0.0
 10
282.8714
 20
71.9147
 30
0.0
 10
284.4386
 20
58.1905
 30
0.0
 10
284.4386
 20
58.1905
 30
0.0
 10
284.9732
 20
53.5083
 30
0.0
 10
285.4215
 20
48.845
 30
0.0
 10
285.2197
 20
44.033
 30
0.0
 10
285.2197
 20
44.033
 30
0.0
 10
285.1354
 20
42.0216
 30
0.0
 10
284.9408
 20
39.2103
 30
0.0
 10
284.3171
 20
37.4628
 30
0.0
 10
284.3171
 20
37.4628
 30
0.0
 10
283.1046
 20
34.0654
 30
0.0
 10
282.2884
 20
35.2049
 30
0.0
 10
280.1402
 20
33.9792
 30
0.0
 10
280.1402
 20
33.9792
 30
0.0
 10
281.507
 20
31.8529
 30
0.0
 10
283.1478
 20
30.0898
 30
0.0
 10
284.9601
 20
28.5144
 30
0.0
 10
284.9601
 20
28.5144
 30
0.0
 10
286.6471
 20
27.048
 30
0.0
 10
289.4583
 20
24.7159
 30
0.0
 10
291.538
 20
28.6432
 30
0.0
 10
291.538
 20
28.6432
 30
0.0
 10
295.0855
 20
35.3422
 30
0.0
 10
291.0084
 20
56.9807
 30
0.0
 10
290.7593
 20
66.5191
 30
0.0
 10
290.7593
 20
66.5191
 30
0.0
 10
290.6711
 20
69.8942
 30
0.0
 10
290.7627
 20
73.2189
 30
0.0
 10
290.9312
 20
76.5795
 30
0.0
 10
290.9312
 20
76.5795
 30
0.0
 10
291.0452
 20
78.8528
 30
0.0
 10
291.7292
 20
83.8806
 30
0.0
 10
291.3375
 20
85.8986
 30
0.0
  0
SPLINE
  5
46
330
1F
100
AcDbEntity
  8
Layer 1
 62
   250
370
     9
100
AcDbSpline
210
0.0
220
0.0
230
1.0
 70
    11
 71
     3
 72
    16
 73
    12
 74
     0
 42
0.0000000001
 43
0.0000000001
 12
1.0
 22
0.0
 32
0.0
 13
1.0
 23
0.0
 33
0.0
 40
0.0
 40
0.0
 40
0.0
 40
0.0
 40
0.25
 40
0.25
 40
0.25
 40
0.25
 40
0.5
 40
0.5
 40
0.5
 40
0.5
 40
1.0
 40
1.0
 40
1.0
 40
1.0
 10
310.4297
 20
77.2911
 30
0.0
 10
310.2649
 20
80.403
 30
0.0
 10
313.4094
 20
81.6169
 30
0.0
 10
315.2559
 20
81.5048
 30
0.0
 10
315.2559
 20
81.5048
 30
0.0
 10
317.2218
 20
81.3854
 30
0.0
 10
315.2765
 20
76.5532
 30
0.0
 10
314.0566
 20
75.2149
 30
0.0
 10
314.0566
 20
75.2149
 30
0.0
 10
311.9588
 20
77.1406
 30
0.0
 10
312.0703
 20
77.1694
 30
0.0
 10
310.4297
 20
77.2911
 30
0.0
  0
SPLINE
  5
47
330
1F
100
AcDbEntity
  8
Layer 1
 62
   250
370
     9
100
AcDbSpline
210
0.0
220
0.0
230
1.0
 70
     8
 71
     3
 72
    68
 73
    64
 74
     0
 42
0.0000000001
 43
0.0000000001
 12
1.0
 22
0.0
 32
0.0
 13
1.0
 23
0.0
 33
0.0
 40
0.0
 40
0.0
 40
0.0
 40
0.0
 40
0.0588235294117647
 40
0.0588235294117647
 40
0.0588235294117647
 40
0.0588235294117647
 40
0.1176470588235294
 40
0.1176470588235294
 40
0.1176470588235294
 40
0.1176470588235294
 40
0.1764705882352941
 40
0.1764705882352941
 40
0.1764705882352941
 40
0.1764705882352941
 40
0.2352941176470588
 40
0.2352941176470588
 40
0.2352941176470588
 40
0.2352941176470588
 40
0.2941176470588235
 40
0.2941176470588235
 40
0.2941176470588235
 40
0.2941176470588235
 40
0.3529411764705883
 40
0.3529411764705883
 40
0.3529411764705883
 40
0.3529411764705883
 40
0.4117647058823529
 40
0.4117647058823529
 40
0.4117647058823529
 40
0.4117647058823529
 40
0.4705882352941176
 40
0.4705882352941176
 40
0.4705882352941176
 40
0.4705882352941176
 40
0.5294117647058824
 40
0.5294117647058824
 40
0.5294117647058824
 40
0.5294117647058824
 40
0.5882352941176471
 40
0.5882352941176471
 40
0.5882352941176471
 40
0.5882352941176471
 40
0.6470588235294118
 40
0.6470588235294118
 40
0.6470588235294118
 40
0.6470588235294118
 40
0.7058823529411765
 40
0.7058823529411765
 40
0.7058823529411765
 40
0.7058823529411765
 40
0.7647058823529411
 40
0.7647058823529411
 40
0.7647058823529411
 40
0.7647058823529411
 40
0.8235294117647058
 40
0.8235294117647058
 40
0.8235294117647058
 40
0.8235294117647058
 40
0.8823529411764706
 40
0.8823529411764706
 40
0.8823529411764706
 40
0.8823529411764706
 40
1.0
 40
1.0
 40
1.0
 40
1.0
 10
305.7475
 20
85.8986
 30
0.0
 10
305.5213
 20
85.6943
 30
0.0
 10
305.3291
 20
85.464
 30
0.0
 10
305.1789
 20
85.2079
 30
0.0
 10
305.1789
 20
85.2079
 30
0.0
 10
303.5655
 20
82.4577
 30
0.0
 10
306.2936
 20
79.8364
 30
0.0
 10
307.4115
 20
78.4525
 30
0.0
 10
307.4115
 20
78.4525
 30
0.0
 10
308.9479
 20
76.5505
 30
0.0
 10
310.5292
 20
74.9821
 30
0.0
 10
312.4261
 20
73.3658
 30
0.0
 10
312.4261
 20
73.3658
 30
0.0
 10
310.3544
 20
70.7863
 30
0.0
 10
306.2992
 20
67.1517
 30
0.0
 10
303.2923
 20
65.3546
 30
0.0
 10
303.2923
 20
65.3546
 30
0.0
 10
302.3144
 20
64.7702
 30
0.0
 10
300.0847
 20
63.8611
 30
0.0
 10
299.4418
 20
63.373
 30
0.0
 10
299.4418
 20
63.373
 30
0.0
 10
299.772
 20
62.3592
 30
0.0
 10
303.5286
 20
58.203
 30
0.0
 10
305.7604
 20
57.5783
 30
0.0
 10
305.7604
 20
57.5783
 30
0.0
 10
311.8183
 20
55.0333
 30
0.0
 10
316.4832
 20
33.9866
 30
0.0
 10
306.3682
 20
32.7187
 30
0.0
 10
306.3682
 20
32.7187
 30
0.0
 10
306.7614
 20
31.4616
 30
0.0
 10
308.995
 20
29.466
 30
0.0
 10
309.8012
 20
28.7173
 30
0.0
 10
309.8012
 20
28.7173
 30
0.0
 10
311.2933
 20
27.3316
 30
0.0
 10
311.9407
 20
26.1737
 30
0.0
 10
314.4529
 20
27.9318
 30
0.0
 10
314.4529
 20
27.9318
 30
0.0
 10
320.1404
 20
32.6792
 30
0.0
 10
318.2759
 20
45.179
 30
0.0
 10
315.3559
 20
50.836
 30
0.0
 10
315.3559
 20
50.836
 30
0.0
 10
314.0058
 20
53.8282
 30
0.0
 10
312.0768
 20
54.9391
 30
0.0
 10
309.9932
 20
57.019
 30
0.0
 10
309.9932
 20
57.019
 30
0.0
 10
306.3153
 20
60.6915
 30
0.0
 10
308.7182
 20
58.2566
 30
0.0
 10
313.5891
 20
63.0833
 30
0.0
 10
313.5891
 20
63.0833
 30
0.0
 10
314.4722
 20
63.9585
 30
0.0
 10
315.3291
 20
64.6343
 30
0.0
 10
316.221
 20
65.5425
 30
0.0
 10
316.221
 20
65.5425
 30
0.0
 10
317.8204
 20
67.1713
 30
0.0
 10
319.6349
 20
69.0072
 30
0.0
 10
320.7807
 20
70.9826
 30
0.0
 10
320.7807
 20
70.9826
 30
0.0
 10
323.2614
 20
75.2594
 30
0.0
 10
320.6258
 20
79.1402
 30
0.0
 10
318.222
 20
81.8129
 30
0.0
 10
318.222
 20
81.8129
 30
0.0
 10
317.3621
 20
82.7689
 30
0.0
 10
315.285
 20
84.8117
 30
0.0
 10
313.6601
 20
85.8986
 30
0.0
  0
SPLINE
  5
48
330
1F
100
AcDbEntity
  8
Layer 1
 62
   250
370
     9
100
AcDbSpline
210
0.0
220
0.0
230
1.0
 70
    11
 71
     3
 72
    20
 73
    16
 74
     0
 42
0.0000000001
 43
0.0000000001
 12
1.0
 22
0.0
 32
0.0
 13
1.0
 23
0.0
 33
0.0
 40
0.0
 40
0.0
 40
0.0
 40
0.0
 40
0.2
 40
0.2
 40
0.2
 40
0.2
 40
0.4
 40
0.4
 40
0.4
 40
0.4
 40
0.6
 40
0.6
 40
0.6
 40
0.6
 40
1.0
 40
1.0
 40
1.0
 40
1.0
 10
283.6206
 20
66.248
 30
0.0
 10
283.6206
 20
69.5087
 30
0.0
 10
280.9461
 20
72.1521
 30
0.0
 10
277.647
 20
72.1521
 30
0.0
 10
277.647
 20
72.1521
 30
0.0
 10
274.3479
 20
72.1521
 30
0.0
 10
271.6734
 20
69.5088
 30
0.0
 10
271.6734
 20
66.248
 30
0.0
 10
271.6734
 20
66.248
 30
0.0
 10
271.6734
 20
62.9873
 30
0.0
 10
274.3479
 20
60.3439
 30
0.0
 10
277.647
 20
60.3439
 30
0.0
 10
277.647
 20
60.3439
 30
0.0
 10
280.9461
 20
60.3439
 30
0.0
 10
283.6206
 20
62.9872
 30
0.0
 10
283.6206
 20
66.248
 30
0.0
  0
SPLINE
  5
49
330
1F
100
AcDbEntity
  8
Layer 1
 62
   250
370
     9
100
AcDbSpline
210
0.0
220
0.0
230
1.0
 70
    27
 71
     3
 72
     8
 73
     4
 74
     0
 42
0.0000000001
 43
0.0000000001
 12
1.0
 22
0.0
 32
0.0
 13
1.0
 23
0.0
 33
0.0
 40
0.0
 40
0.0
 40
0.0
 40
0.0
 40
1.0
 40
1.0
 40
1.0
 40
1.0
 10
283.6206
 20
66.248
 30
0.0
 10
283.6206
 20
66.248
 30
0.0
 10
283.6206
 20
66.248
 30
0.0
 10
283.6206
 20
66.248
 30
0.0
  0
SPLINE
  5
4A
330
1F
100
AcDbEntity
  8
Layer 1
 62
   250
370
     9
100
AcDbSpline
210
0.0
220
0.0
230
1.0
 70
    27
 71
     3
 72
     8
 73
     4
 74
     0
 42
0.0000000001
 43
0.0000000001
 12
1.0
 22
0.0
 32
0.0
 13
1.0
 23
0.0
 33
0.0
 40
0.0
 40
0.0
 40
0.0
 40
0.0
 40
1.0
 40
1.0
 40
1.0
 40
1.0
 10
277.647
 20
72.1521
 30
0.0
 10
277.647
 20
72.1521
 30
0.0
 10
277.647
 20
72.1521
 30
0.0
 10
277.647
 20
72.1521
 30
0.0
  0
SPLINE
  5
4B
330
1F
100
AcDbEntity
  8
Layer 1
 62
   250
370
     9
100
AcDbSpline
210
0.0
220
0.0
230
1.0
 70
    27
 71
     3
 72
     8
 73
     4
 74
     0
 42
0.0000000001
 43
0.0000000001
 12
1.0
 22
0.0
 32
0.0
 13
1.0
 23
0.0
 33
0.0
 40
0.0
 40
0.0
 40
0.0
 40
0.0
 40
1.0
 40
1.0
 40
1.0
 40
1.0
 10
271.6734
 20
66.248
 30
0.0
 10
271.6734
 20
66.248
 30
0.0
 10
271.6734
 20
66.248
 30
0.0
 10
271.6734
 20
66.248
 30
0.0
  0
SPLINE
  5
4C
330
1F
100
AcDbEntity
  8
Layer 1
 62
   250
370
     9
100
AcDbSpline
210
0.0
220
0.0
230
1.0
 70
    27
 71
     3
 72
     8
 73
     4
 74
     0
 42
0.0000000001
 43
0.0000000001
 12
1.0
 22
0.0
 32
0.0
 13
1.0
 23
0.0
 33
0.0
 40
0.0
 40
0.0
 40
0.0
 40
0.0
 40
1.0
 40
1.0
 40
1.0
 40
1.0
 10
277.647
 20
60.3439
 30
0.0
 10
277.647
 20
60.3439
 30
0.0
 10
277.647
 20
60.3439
 30
0.0
 10
277.647
 20
60.3439
 30
0.0
  0
SPLINE
  5
4D
330
1F
100
AcDbEntity
  8
Layer 1
 62
   250
370
     9
100
AcDbSpline
210
0.0
220
0.0
230
1.0
 70
    27
 71
     3
 72
     8
 73
     4
 74
     0
 42
0.0000000001
 43
0.0000000001
 12
1.0
 22
0.0
 32
0.0
 13
1.0
 23
0.0
 33
0.0
 40
0.0
 40
0.0
 40
0.0
 40
0.0
 40
1.0
 40
1.0
 40
1.0
 40
1.0
 10
283.6206
 20
66.248
 30
0.0
 10
283.6206
 20
66.248
 30
0.0
 10
283.6206
 20
66.248
 30
0.0
 10
283.6206
 20
66.248
 30
0.0
  0
SPLINE
  5
4E
330
1F
100
AcDbEntity
  8
Layer 1
 62
   250
370
     9
100
AcDbSpline
210
0.0
220
0.0
230
1.0
 70
    11
 71
     3
 72
    20
 73
    16
 74
     0
 42
0.0000000001
 43
0.0000000001
 12
1.0
 22
0.0
 32
0.0
 13
1.0
 23
0.0
 33
0.0
 40
0.0
 40
0.0
 40
0.0
 40
0.0
 40
0.2
 40
0.2
 40
0.2
 40
0.2
 40
0.4
 40
0.4
 40
0.4
 40
0.4
 40
0.6
 40
0.6
 40
0.6
 40
0.6
 40
1.0
 40
1.0
 40
1.0
 40
1.0
 10
283.6206
 20
66.248
 30
0.0
 10
283.6206
 20
69.5087
 30
0.0
 10
280.9461
 20
72.1521
 30
0.0
 10
277.647
 20
72.1521
 30
0.0
 10
277.647
 20
72.1521
 30
0.0
 10
274.3479
 20
72.1521
 30
0.0
 10
271.6734
 20
69.5088
 30
0.0
 10
271.6734
 20
66.248
 30
0.0
 10
271.6734
 20
66.248
 30
0.0
 10
271.6734
 20
62.9873
 30
0.0
 10
274.3479
 20
60.3439
 30
0.0
 10
277.647
 20
60.3439
 30
0.0
 10
277.647
 20
60.3439
 30
0.0
 10
280.9461
 20
60.3439
 30
0.0
 10
283.6206
 20
62.9872
 30
0.0
 10
283.6206
 20
66.248
 30
0.0
  0
SPLINE
  5
4F
330
1F
100
AcDbEntity
  8
Layer 1
 62
   250
370
     9
100
AcDbSpline
210
0.0
220
0.0
230
1.0
 70
    11
 71
     3
 72
    20
 73
    16
 74
     0
 42
0.0000000001
 43
0.0000000001
 12
1.0
 22
0.0
 32
0.0
 13
1.0
 23
0.0
 33
0.0
 40
0.0
 40
0.0
 40
0.0
 40
0.0
 40
0.2
 40
0.2
 40
0.2
 40
0.2
 40
0.4
 40
0.4
 40
0.4
 40
0.4
 40
0.6
 40
0.6
 40
0.6
 40
0.6
 40
1.0
 40
1.0
 40
1.0
 40
1.0
 10
283.6206
 20
66.248
 30
0.0
 10
283.6206
 20
69.5087
 30
0.0
 10
280.9461
 20
72.1521
 30
0.0
 10
277.647
 20
72.1521
 30
0.0
 10
277.647
 20
72.1521
 30
0.0
 10
274.3479
 20
72.1521
 30
0.0
 10
271.6734
 20
69.5088
 30
0.0
 10
271.6734
 20
66.248
 30
0.0
 10
271.6734
 20
66.248
 30
0.0
 10
271.6734
 20
62.9873
 30
0.0
 10
274.3479
 20
60.3439
 30
0.0
 10
277.647
 20
60.3439
 30
0.0
 10
277.647
 20
60.3439
 30
0.0
 10
280.9461
 20
60.3439
 30
0.0
 10
283.6206
 20
62.9872
 30
0.0
 10
283.6206
 20
66.248
 30
0.0
  0
SPLINE
  5
50
330
1F
100
AcDbEntity
  8
Layer 1
 62
   250
370
     9
100
AcDbSpline
210
0.0
220
0.0
230
1.0
 70
    11
 71
     3
 72
    20
 73
    16
 74
     0
 42
0.0000000001
 43
0.0000000001
 12
1.0
 22
0.0
 32
0.0
 13
1.0
 23
0.0
 33
0.0
 40
0.0
 40
0.0
 40
0.0
 40
0.0
 40
0.2
 40
0.2
 40
0.2
 40
0.2
 40
0.4
 40
0.4
 40
0.4
 40
0.4
 40
0.6
 40
0.6
 40
0.6
 40
0.6
 40
1.0
 40
1.0
 40
1.0
 40
1.0
 10
283.6206
 20
66.248
 30
0.0
 10
283.6206
 20
69.5087
 30
0.0
 10
280.9461
 20
72.1521
 30
0.0
 10
277.647
 20
72.1521
 30
0.0
 10
277.647
 20
72.1521
 30
0.0
 10
274.3479
 20
72.1521
 30
0.0
 10
271.6734
 20
69.5088
 30
0.0
 10
271.6734
 20
66.248
 30
0.0
 10
271.6734
 20
66.248
 30
0.0
 10
271.6734
 20
62.9873
 30
0.0
 10
274.3479
 20
60.3439
 30
0.0
 10
277.647
 20
60.3439
 30
0.0
 10
277.647
 20
60.3439
 30
0.0
 10
280.9461
 20
60.3439
 30
0.0
 10
283.6206
 20
62.9872
 30
0.0
 10
283.6206
 20
66.248
 30
0.0
  0
SPLINE
  5
51
330
1F
100
AcDbEntity
  8
Layer 1
 62
   250
370
     9
100
AcDbSpline
210
0.0
220
0.0
230
1.0
 70
    11
 71
     3
 72
    20
 73
    16
 74
     0
 42
0.0000000001
 43
0.0000000001
 12
1.0
 22
0.0
 32
0.0
 13
1.0
 23
0.0
 33
0.0
 40
0.0
 40
0.0
 40
0.0
 40
0.0
 40
0.2
 40
0.2
 40
0.2
 40
0.2
 40
0.4
 40
0.4
 40
0.4
 40
0.4
 40
0.6
 40
0.6
 40
0.6
 40
0.6
 40
1.0
 40
1.0
 40
1.0
 40
1.0
 10
283.6206
 20
66.248
 30
0.0
 10
283.6206
 20
69.5087
 30
0.0
 10
280.9461
 20
72.1521
 30
0.0
 10
277.647
 20
72.1521
 30
0.0
 10
277.647
 20
72.1521
 30
0.0
 10
274.3479
 20
72.1521
 30
0.0
 10
271.6734
 20
69.5088
 30
0.0
 10
271.6734
 20
66.248
 30
0.0
 10
271.6734
 20
66.248
 30
0.0
 10
271.6734
 20
62.9873
 30
0.0
 10
274.3479
 20
60.3439
 30
0.0
 10
277.647
 20
60.3439
 30
0.0
 10
277.647
 20
60.3439
 30
0.0
 10
280.9461
 20
60.3439
 30
0.0
 10
283.6206
 20
62.9872
 30
0.0
 10
283.6206
 20
66.248
 30
0.0
  0
SPLINE
  5
52
330
1F
100
AcDbEntity
  8
Layer 1
 62
   250
370
     9
100
AcDbSpline
210
0.0
220
0.0
230
1.0
 70
    11
 71
     3
 72
    20
 73
    16
 74
     0
 42
0.0000000001
 43
0.0000000001
 12
1.0
 22
0.0
 32
0.0
 13
1.0
 23
0.0
 33
0.0
 40
0.0
 40
0.0
 40
0.0
 40
0.0
 40
0.2
 40
0.2
 40
0.2
 40
0.2
 40
0.4
 40
0.4
 40
0.4
 40
0.4
 40
0.6
 40
0.6
 40
0.6
 40
0.6
 40
1.0
 40
1.0
 40
1.0
 40
1.0
 10
283.6206
 20
66.248
 30
0.0
 10
283.6206
 20
69.5087
 30
0.0
 10
280.9461
 20
72.1521
 30
0.0
 10
277.647
 20
72.1521
 30
0.0
 10
277.647
 20
72.1521
 30
0.0
 10
274.3479
 20
72.1521
 30
0.0
 10
271.6734
 20
69.5088
 30
0.0
 10
271.6734
 20
66.248
 30
0.0
 10
271.6734
 20
66.248
 30
0.0
 10
271.6734
 20
62.9873
 30
0.0
 10
274.3479
 20
60.3439
 30
0.0
 10
277.647
 20
60.3439
 30
0.0
 10
277.647
 20
60.3439
 30
0.0
 10
280.9461
 20
60.3439
 30
0.0
 10
283.6206
 20
62.9872
 30
0.0
 10
283.6206
 20
66.248
 30
0.0
  0
SPLINE
  5
53
330
1F
100
AcDbEntity
  8
Layer 1
 62
   250
370
     9
100
AcDbSpline
210
0.0
220
0.0
230
1.0
 70
    11
 71
     3
 72
    20
 73
    16
 74
     0
 42
0.0000000001
 43
0.0000000001
 12
1.0
 22
0.0
 32
0.0
 13
1.0
 23
0.0
 33
0.0
 40
0.0
 40
0.0
 40
0.0
 40
0.0
 40
0.2
 40
0.2
 40
0.2
 40
0.2
 40
0.4
 40
0.4
 40
0.4
 40
0.4
 40
0.6
 40
0.6
 40
0.6
 40
0.6
 40
1.0
 40
1.0
 40
1.0
 40
1.0
 10
283.6206
 20
66.248
 30
0.0
 10
283.6206
 20
69.5087
 30
0.0
 10
280.9461
 20
72.1521
 30
0.0
 10
277.647
 20
72.1521
 30
0.0
 10
277.647
 20
72.1521
 30
0.0
 10
274.3479
 20
72.1521
 30
0.0
 10
271.6734
 20
69.5088
 30
0.0
 10
271.6734
 20
66.248
 30
0.0
 10
271.6734
 20
66.248
 30
0.0
 10
271.6734
 20
62.9873
 30
0.0
 10
274.3479
 20
60.3439
 30
0.0
 10
277.647
 20
60.3439
 30
0.0
 10
277.647
 20
60.3439
 30
0.0
 10
280.9461
 20
60.3439
 30
0.0
 10
283.6206
 20
62.9872
 30
0.0
 10
283.6206
 20
66.248
 30
0.0
  0
SPLINE
  5
54
330
1F
100
AcDbEntity
  8
Layer 1
 62
   250
370
     9
100
AcDbSpline
210
0.0
220
0.0
230
1.0
 70
    11
 71
     3
 72
    20
 73
    16
 74
     0
 42
0.0000000001
 43
0.0000000001
 12
1.0
 22
0.0
 32
0.0
 13
1.0
 23
0.0
 33
0.0
 40
0.0
 40
0.0
 40
0.0
 40
0.0
 40
0.2
 40
0.2
 40
0.2
 40
0.2
 40
0.4
 40
0.4
 40
0.4
 40
0.4
 40
0.6
 40
0.6
 40
0.6
 40
0.6
 40
1.0
 40
1.0
 40
1.0
 40
1.0
 10
283.6206
 20
66.248
 30
0.0
 10
283.6206
 20
69.5087
 30
0.0
 10
280.9461
 20
72.1521
 30
0.0
 10
277.647
 20
72.1521
 30
0.0
 10
277.647
 20
72.1521
 30
0.0
 10
274.3479
 20
72.1521
 30
0.0
 10
271.6734
 20
69.5088
 30
0.0
 10
271.6734
 20
66.248
 30
0.0
 10
271.6734
 20
66.248
 30
0.0
 10
271.6734
 20
62.9873
 30
0.0
 10
274.3479
 20
60.3439
 30
0.0
 10
277.647
 20
60.3439
 30
0.0
 10
277.647
 20
60.3439
 30
0.0
 10
280.9461
 20
60.3439
 30
0.0
 10
283.6206
 20
62.9872
 30
0.0
 10
283.6206
 20
66.248
 30
0.0
  0
SPLINE
  5
55
330
1F
100
AcDbEntity
  8
Layer 1
 62
   250
370
     9
100
AcDbSpline
210
0.0
220
0.0
230
1.0
 70
    11
 71
     3
 72
    20
 73
    16
 74
     0
 42
0.0000000001
 43
0.0000000001
 12
1.0
 22
0.0
 32
0.0
 13
1.0
 23
0.0
 33
0.0
 40
0.0
 40
0.0
 40
0.0
 40
0.0
 40
0.2
 40
0.2
 40
0.2
 40
0.2
 40
0.4
 40
0.4
 40
0.4
 40
0.4
 40
0.6
 40
0.6
 40
0.6
 40
0.6
 40
1.0
 40
1.0
 40
1.0
 40
1.0
 10
283.6206
 20
66.248
 30
0.0
 10
283.6206
 20
69.5087
 30
0.0
 10
280.9461
 20
72.1521
 30
0.0
 10
277.647
 20
72.1521
 30
0.0
 10
277.647
 20
72.1521
 30
0.0
 10
274.3479
 20
72.1521
 30
0.0
 10
271.6734
 20
69.5088
 30
0.0
 10
271.6734
 20
66.248
 30
0.0
 10
271.6734
 20
66.248
 30
0.0
 10
271.6734
 20
62.9873
 30
0.0
 10
274.3479
 20
60.3439
 30
0.0
 10
277.647
 20
60.3439
 30
0.0
 10
277.647
 20
60.3439
 30
0.0
 10
280.9461
 20
60.3439
 30
0.0
 10
283.6206
 20
62.9872
 30
0.0
 10
283.6206
 20
66.248
 30
0.0
  0
SPLINE
  5
56
330
1F
100
AcDbEntity
  8
Layer 1
 62
   250
370
     9
100
AcDbSpline
210
0.0
220
0.0
230
1.0
 70
    11
 71
     3
 72
    20
 73
    16
 74
     0
 42
0.0000000001
 43
0.0000000001
 12
1.0
 22
0.0
 32
0.0
 13
1.0
 23
0.0
 33
0.0
 40
0.0
 40
0.0
 40
0.0
 40
0.0
 40
0.2
 40
0.2
 40
0.2
 40
0.2
 40
0.4
 40
0.4
 40
0.4
 40
0.4
 40
0.6
 40
0.6
 40
0.6
 40
0.6
 40
1.0
 40
1.0
 40
1.0
 40
1.0
 10
283.6206
 20
66.248
 30
0.0
 10
283.6206
 20
69.5087
 30
0.0
 10
280.9461
 20
72.1521
 30
0.0
 10
277.647
 20
72.1521
 30
0.0
 10
277.647
 20
72.1521
 30
0.0
 10
274.3479
 20
72.1521
 30
0.0
 10
271.6734
 20
69.5088
 30
0.0
 10
271.6734
 20
66.248
 30
0.0
 10
271.6734
 20
66.248
 30
0.0
 10
271.6734
 20
62.9873
 30
0.0
 10
274.3479
 20
60.3439
 30
0.0
 10
277.647
 20
60.3439
 30
0.0
 10
277.647
 20
60.3439
 30
0.0
 10
280.9461
 20
60.3439
 30
0.0
 10
283.6206
 20
62.9872
 30
0.0
 10
283.6206
 20
66.248
 30
0.0
  0
SPLINE
  5
57
330
1F
100
AcDbEntity
  8
Layer 1
 62
   250
370
     9
100
AcDbSpline
210
0.0
220
0.0
230
1.0
 70
    11
 71
     3
 72
    20
 73
    16
 74
     0
 42
0.0000000001
 43
0.0000000001
 12
1.0
 22
0.0
 32
0.0
 13
1.0
 23
0.0
 33
0.0
 40
0.0
 40
0.0
 40
0.0
 40
0.0
 40
0.2
 40
0.2
 40
0.2
 40
0.2
 40
0.4
 40
0.4
 40
0.4
 40
0.4
 40
0.6
 40
0.6
 40
0.6
 40
0.6
 40
1.0
 40
1.0
 40
1.0
 40
1.0
 10
283.6206
 20
66.248
 30
0.0
 10
283.6206
 20
69.5087
 30
0.0
 10
280.9461
 20
72.1521
 30
0.0
 10
277.647
 20
72.1521
 30
0.0
 10
277.647
 20
72.1521
 30
0.0
 10
274.3479
 20
72.1521
 30
0.0
 10
271.6734
 20
69.5088
 30
0.0
 10
271.6734
 20
66.248
 30
0.0
 10
271.6734
 20
66.248
 30
0.0
 10
271.6734
 20
62.9873
 30
0.0
 10
274.3479
 20
60.3439
 30
0.0
 10
277.647
 20
60.3439
 30
0.0
 10
277.647
 20
60.3439
 30
0.0
 10
280.9461
 20
60.3439
 30
0.0
 10
283.6206
 20
62.9872
 30
0.0
 10
283.6206
 20
66.248
 30
0.0
  0
SPLINE
  5
58
330
1F
100
AcDbEntity
  8
Layer 1
 62
   250
370
     9
100
AcDbSpline
210
0.0
220
0.0
230
1.0
 70
    11
 71
     3
 72
    20
 73
    16
 74
     0
 42
0.0000000001
 43
0.0000000001
 12
1.0
 22
0.0
 32
0.0
 13
1.0
 23
0.0
 33
0.0
 40
0.0
 40
0.0
 40
0.0
 40
0.0
 40
0.2
 40
0.2
 40
0.2
 40
0.2
 40
0.4
 40
0.4
 40
0.4
 40
0.4
 40
0.6
 40
0.6
 40
0.6
 40
0.6
 40
1.0
 40
1.0
 40
1.0
 40
1.0
 10
283.6206
 20
66.248
 30
0.0
 10
283.6206
 20
69.5087
 30
0.0
 10
280.9461
 20
72.1521
 30
0.0
 10
277.647
 20
72.1521
 30
0.0
 10
277.647
 20
72.1521
 30
0.0
 10
274.3479
 20
72.1521
 30
0.0
 10
271.6734
 20
69.5088
 30
0.0
 10
271.6734
 20
66.248
 30
0.0
 10
271.6734
 20
66.248
 30
0.0
 10
271.6734
 20
62.9873
 30
0.0
 10
274.3479
 20
60.3439
 30
0.0
 10
277.647
 20
60.3439
 30
0.0
 10
277.647
 20
60.3439
 30
0.0
 10
280.9461
 20
60.3439
 30
0.0
 10
283.6206
 20
62.9872
 30
0.0
 10
283.6206
 20
66.248
 30
0.0
  0
SPLINE
  5
59
330
1F
100
AcDbEntity
  8
Layer 1
 62
   250
370
     9
100
AcDbSpline
210
0.0
220
0.0
230
1.0
 70
    11
 71
     3
 72
    20
 73
    16
 74
     0
 42
0.0000000001
 43
0.0000000001
 12
1.0
 22
0.0
 32
0.0
 13
1.0
 23
0.0
 33
0.0
 40
0.0
 40
0.0
 40
0.0
 40
0.0
 40
0.2
 40
0.2
 40
0.2
 40
0.2
 40
0.4
 40
0.4
 40
0.4
 40
0.4
 40
0.6
 40
0.6
 40
0.6
 40
0.6
 40
1.0
 40
1.0
 40
1.0
 40
1.0
 10
283.6206
 20
66.248
 30
0.0
 10
283.6206
 20
69.5087
 30
0.0
 10
280.9461
 20
72.1521
 30
0.0
 10
277.647
 20
72.1521
 30
0.0
 10
277.647
 20
72.1521
 30
0.0
 10
274.3479
 20
72.1521
 30
0.0
 10
271.6734
 20
69.5087
 30
0.0
 10
271.6734
 20
66.248
 30
0.0
 10
271.6734
 20
66.248
 30
0.0
 10
271.6734
 20
62.9873
 30
0.0
 10
274.3479
 20
60.3439
 30
0.0
 10
277.647
 20
60.3439
 30
0.0
 10
277.647
 20
60.3439
 30
0.0
 10
280.9461
 20
60.3439
 30
0.0
 10
283.6206
 20
62.9872
 30
0.0
 10
283.6206
 20
66.248
 30
0.0
  0
SPLINE
  5
5A
330
1F
100
AcDbEntity
  8
Layer 1
 62
   250
370
     9
100
AcDbSpline
210
0.0
220
0.0
230
1.0
 70
    11
 71
     3
 72
    20
 73
    16
 74
     0
 42
0.0000000001
 43
0.0000000001
 12
1.0
 22
0.0
 32
0.0
 13
1.0
 23
0.0
 33
0.0
 40
0.0
 40
0.0
 40
0.0
 40
0.0
 40
0.2
 40
0.2
 40
0.2
 40
0.2
 40
0.4
 40
0.4
 40
0.4
 40
0.4
 40
0.6
 40
0.6
 40
0.6
 40
0.6
 40
1.0
 40
1.0
 40
1.0
 40
1.0
 10
283.6206
 20
66.248
 30
0.0
 10
283.6206
 20
69.5087
 30
0.0
 10
280.9461
 20
72.1521
 30
0.0
 10
277.647
 20
72.1521
 30
0.0
 10
277.647
 20
72.1521
 30
0.0
 10
274.3479
 20
72.1521
 30
0.0
 10
271.6734
 20
69.5087
 30
0.0
 10
271.6734
 20
66.248
 30
0.0
 10
271.6734
 20
66.248
 30
0.0
 10
271.6734
 20
62.9873
 30
0.0
 10
274.3479
 20
60.3439
 30
0.0
 10
277.647
 20
60.3439
 30
0.0
 10
277.647
 20
60.3439
 30
0.0
 10
280.9461
 20
60.3439
 30
0.0
 10
283.6206
 20
62.9872
 30
0.0
 10
283.6206
 20
66.248
 30
0.0
  0
SPLINE
  5
5B
330
1F
100
AcDbEntity
  8
Layer 1
 62
   250
370
     9
100
AcDbSpline
210
0.0
220
0.0
230
1.0
 70
    11
 71
     3
 72
    20
 73
    16
 74
     0
 42
0.0000000001
 43
0.0000000001
 12
1.0
 22
0.0
 32
0.0
 13
1.0
 23
0.0
 33
0.0
 40
0.0
 40
0.0
 40
0.0
 40
0.0
 40
0.2
 40
0.2
 40
0.2
 40
0.2
 40
0.4
 40
0.4
 40
0.4
 40
0.4
 40
0.6
 40
0.6
 40
0.6
 40
0.6
 40
1.0
 40
1.0
 40
1.0
 40
1.0
 10
283.6206
 20
66.248
 30
0.0
 10
283.6206
 20
69.5087
 30
0.0
 10
280.9461
 20
72.1521
 30
0.0
 10
277.647
 20
72.1521
 30
0.0
 10
277.647
 20
72.1521
 30
0.0
 10
274.3479
 20
72.1521
 30
0.0
 10
271.6734
 20
69.5087
 30
0.0
 10
271.6734
 20
66.248
 30
0.0
 10
271.6734
 20
66.248
 30
0.0
 10
271.6734
 20
62.9873
 30
0.0
 10
274.3479
 20
60.3439
 30
0.0
 10
277.647
 20
60.3439
 30
0.0
 10
277.647
 20
60.3439
 30
0.0
 10
280.9461
 20
60.3439
 30
0.0
 10
283.6206
 20
62.9872
 30
0.0
 10
283.6206
 20
66.248
 30
0.0
  0
SPLINE
  5
5C
330
1F
100
AcDbEntity
  8
Layer 1
 62
   250
370
     9
100
AcDbSpline
210
0.0
220
0.0
230
1.0
 70
    11
 71
     3
 72
    20
 73
    16
 74
     0
 42
0.0000000001
 43
0.0000000001
 12
1.0
 22
0.0
 32
0.0
 13
1.0
 23
0.0
 33
0.0
 40
0.0
 40
0.0
 40
0.0
 40
0.0
 40
0.2
 40
0.2
 40
0.2
 40
0.2
 40
0.4
 40
0.4
 40
0.4
 40
0.4
 40
0.6
 40
0.6
 40
0.6
 40
0.6
 40
1.0
 40
1.0
 40
1.0
 40
1.0
 10
283.6206
 20
66.248
 30
0.0
 10
283.6206
 20
69.5087
 30
0.0
 10
280.9461
 20
72.1521
 30
0.0
 10
277.647
 20
72.1521
 30
0.0
 10
277.647
 20
72.1521
 30
0.0
 10
274.3479
 20
72.1521
 30
0.0
 10
271.6734
 20
69.5087
 30
0.0
 10
271.6734
 20
66.248
 30
0.0
 10
271.6734
 20
66.248
 30
0.0
 10
271.6734
 20
62.9873
 30
0.0
 10
274.3479
 20
60.3439
 30
0.0
 10
277.647
 20
60.3439
 30
0.0
 10
277.647
 20
60.3439
 30
0.0
 10
280.9461
 20
60.3439
 30
0.0
 10
283.6206
 20
62.9872
 30
0.0
 10
283.6206
 20
66.248
 30
0.0
  0
SPLINE
  5
5D
330
1F
100
AcDbEntity
  8
Layer 1
 62
   250
370
     9
100
AcDbSpline
210
0.0
220
0.0
230
1.0
 70
    11
 71
     3
 72
    20
 73
    16
 74
     0
 42
0.0000000001
 43
0.0000000001
 12
1.0
 22
0.0
 32
0.0
 13
1.0
 23
0.0
 33
0.0
 40
0.0
 40
0.0
 40
0.0
 40
0.0
 40
0.2
 40
0.2
 40
0.2
 40
0.2
 40
0.4
 40
0.4
 40
0.4
 40
0.4
 40
0.6
 40
0.6
 40
0.6
 40
0.6
 40
1.0
 40
1.0
 40
1.0
 40
1.0
 10
283.6206
 20
66.248
 30
0.0
 10
283.6206
 20
69.5087
 30
0.0
 10
280.9461
 20
72.1521
 30
0.0
 10
277.647
 20
72.1521
 30
0.0
 10
277.647
 20
72.1521
 30
0.0
 10
274.3479
 20
72.1521
 30
0.0
 10
271.6734
 20
69.5087
 30
0.0
 10
271.6734
 20
66.248
 30
0.0
 10
271.6734
 20
66.248
 30
0.0
 10
271.6734
 20
62.9873
 30
0.0
 10
274.3479
 20
60.3439
 30
0.0
 10
277.647
 20
60.3439
 30
0.0
 10
277.647
 20
60.3439
 30
0.0
 10
280.9461
 20
60.3439
 30
0.0
 10
283.6206
 20
62.9872
 30
0.0
 10
283.6206
 20
66.248
 30
0.0
  0
SPLINE
  5
5E
330
1F
100
AcDbEntity
  8
Layer 1
 62
   250
370
     9
100
AcDbSpline
210
0.0
220
0.0
230
1.0
 70
    11
 71
     3
 72
    20
 73
    16
 74
     0
 42
0.0000000001
 43
0.0000000001
 12
1.0
 22
0.0
 32
0.0
 13
1.0
 23
0.0
 33
0.0
 40
0.0
 40
0.0
 40
0.0
 40
0.0
 40
0.2
 40
0.2
 40
0.2
 40
0.2
 40
0.4
 40
0.4
 40
0.4
 40
0.4
 40
0.6
 40
0.6
 40
0.6
 40
0.6
 40
1.0
 40
1.0
 40
1.0
 40
1.0
 10
283.6206
 20
66.248
 30
0.0
 10
283.6206
 20
69.5087
 30
0.0
 10
280.9461
 20
72.1521
 30
0.0
 10
277.647
 20
72.1521
 30
0.0
 10
277.647
 20
72.1521
 30
0.0
 10
274.3479
 20
72.1521
 30
0.0
 10
271.6734
 20
69.5087
 30
0.0
 10
271.6734
 20
66.248
 30
0.0
 10
271.6734
 20
66.248
 30
0.0
 10
271.6734
 20
62.9873
 30
0.0
 10
274.3479
 20
60.3439
 30
0.0
 10
277.647
 20
60.3439
 30
0.0
 10
277.647
 20
60.3439
 30
0.0
 10
280.9461
 20
60.3439
 30
0.0
 10
283.6206
 20
62.9872
 30
0.0
 10
283.6206
 20
66.248
 30
0.0
  0
SPLINE
  5
5F
330
1F
100
AcDbEntity
  8
Layer 1
 62
   250
370
     9
100
AcDbSpline
210
0.0
220
0.0
230
1.0
 70
    11
 71
     3
 72
    20
 73
    16
 74
     0
 42
0.0000000001
 43
0.0000000001
 12
1.0
 22
0.0
 32
0.0
 13
1.0
 23
0.0
 33
0.0
 40
0.0
 40
0.0
 40
0.0
 40
0.0
 40
0.2
 40
0.2
 40
0.2
 40
0.2
 40
0.4
 40
0.4
 40
0.4
 40
0.4
 40
0.6
 40
0.6
 40
0.6
 40
0.6
 40
1.0
 40
1.0
 40
1.0
 40
1.0
 10
283.6206
 20
66.248
 30
0.0
 10
283.6206
 20
69.5087
 30
0.0
 10
280.9461
 20
72.1521
 30
0.0
 10
277.647
 20
72.1521
 30
0.0
 10
277.647
 20
72.1521
 30
0.0
 10
274.3479
 20
72.1521
 30
0.0
 10
271.6734
 20
69.5087
 30
0.0
 10
271.6734
 20
66.248
 30
0.0
 10
271.6734
 20
66.248
 30
0.0
 10
271.6734
 20
62.9873
 30
0.0
 10
274.3479
 20
60.3439
 30
0.0
 10
277.647
 20
60.3439
 30
0.0
 10
277.647
 20
60.3439
 30
0.0
 10
280.9461
 20
60.3439
 30
0.0
 10
283.6206
 20
62.9872
 30
0.0
 10
283.6206
 20
66.248
 30
0.0
  0
SPLINE
  5
60
330
1F
100
AcDbEntity
  8
Layer 1
 62
   250
370
     9
100
AcDbSpline
210
0.0
220
0.0
230
1.0
 70
    11
 71
     3
 72
    20
 73
    16
 74
     0
 42
0.0000000001
 43
0.0000000001
 12
1.0
 22
0.0
 32
0.0
 13
1.0
 23
0.0
 33
0.0
 40
0.0
 40
0.0
 40
0.0
 40
0.0
 40
0.2
 40
0.2
 40
0.2
 40
0.2
 40
0.4
 40
0.4
 40
0.4
 40
0.4
 40
0.6
 40
0.6
 40
0.6
 40
0.6
 40
1.0
 40
1.0
 40
1.0
 40
1.0
 10
283.6206
 20
66.248
 30
0.0
 10
283.6206
 20
69.5087
 30
0.0
 10
280.9461
 20
72.1521
 30
0.0
 10
277.647
 20
72.1521
 30
0.0
 10
277.647
 20
72.1521
 30
0.0
 10
274.3479
 20
72.1521
 30
0.0
 10
271.6734
 20
69.5087
 30
0.0
 10
271.6734
 20
66.248
 30
0.0
 10
271.6734
 20
66.248
 30
0.0
 10
271.6734
 20
62.9873
 30
0.0
 10
274.3479
 20
60.3439
 30
0.0
 10
277.647
 20
60.3439
 30
0.0
 10
277.647
 20
60.3439
 30
0.0
 10
280.9461
 20
60.3439
 30
0.0
 10
283.6206
 20
62.9872
 30
0.0
 10
283.6206
 20
66.248
 30
0.0
  0
SPLINE
  5
61
330
1F
100
AcDbEntity
  8
Layer 1
 62
   250
370
     9
100
AcDbSpline
210
0.0
220
0.0
230
1.0
 70
    11
 71
     3
 72
    20
 73
    16
 74
     0
 42
0.0000000001
 43
0.0000000001
 12
1.0
 22
0.0
 32
0.0
 13
1.0
 23
0.0
 33
0.0
 40
0.0
 40
0.0
 40
0.0
 40
0.0
 40
0.2
 40
0.2
 40
0.2
 40
0.2
 40
0.4
 40
0.4
 40
0.4
 40
0.4
 40
0.6
 40
0.6
 40
0.6
 40
0.6
 40
1.0
 40
1.0
 40
1.0
 40
1.0
 10
283.6206
 20
66.248
 30
0.0
 10
283.6206
 20
69.5087
 30
0.0
 10
280.9461
 20
72.1521
 30
0.0
 10
277.647
 20
72.1521
 30
0.0
 10
277.647
 20
72.1521
 30
0.0
 10
274.3479
 20
72.1521
 30
0.0
 10
271.6734
 20
69.5087
 30
0.0
 10
271.6734
 20
66.248
 30
0.0
 10
271.6734
 20
66.248
 30
0.0
 10
271.6734
 20
62.9873
 30
0.0
 10
274.3479
 20
60.3439
 30
0.0
 10
277.647
 20
60.3439
 30
0.0
 10
277.647
 20
60.3439
 30
0.0
 10
280.9461
 20
60.3439
 30
0.0
 10
283.6206
 20
62.9872
 30
0.0
 10
283.6206
 20
66.248
 30
0.0
  0
SPLINE
  5
62
330
1F
100
AcDbEntity
  8
Layer 1
 62
   250
370
     9
100
AcDbSpline
210
0.0
220
0.0
230
1.0
 70
    11
 71
     3
 72
    20
 73
    16
 74
     0
 42
0.0000000001
 43
0.0000000001
 12
1.0
 22
0.0
 32
0.0
 13
1.0
 23
0.0
 33
0.0
 40
0.0
 40
0.0
 40
0.0
 40
0.0
 40
0.2
 40
0.2
 40
0.2
 40
0.2
 40
0.4
 40
0.4
 40
0.4
 40
0.4
 40
0.6
 40
0.6
 40
0.6
 40
0.6
 40
1.0
 40
1.0
 40
1.0
 40
1.0
 10
403.657
 20
66.248
 30
0.0
 10
403.657
 20
69.5087
 30
0.0
 10
400.9825
 20
72.1521
 30
0.0
 10
397.6834
 20
72.1521
 30
0.0
 10
397.6834
 20
72.1521
 30
0.0
 10
394.3843
 20
72.1521
 30
0.0
 10
391.7098
 20
69.5088
 30
0.0
 10
391.7098
 20
66.248
 30
0.0
 10
391.7098
 20
66.248
 30
0.0
 10
391.7098
 20
62.9873
 30
0.0
 10
394.3843
 20
60.3439
 30
0.0
 10
397.6834
 20
60.3439
 30
0.0
 10
397.6834
 20
60.3439
 30
0.0
 10
400.9825
 20
60.3439
 30
0.0
 10
403.657
 20
62.9872
 30
0.0
 10
403.657
 20
66.248
 30
0.0
  0
SPLINE
  5
63
330
1F
100
AcDbEntity
  8
Layer 1
 62
   250
370
     9
100
AcDbSpline
210
0.0
220
0.0
230
1.0
 70
    27
 71
     3
 72
     8
 73
     4
 74
     0
 42
0.0000000001
 43
0.0000000001
 12
1.0
 22
0.0
 32
0.0
 13
1.0
 23
0.0
 33
0.0
 40
0.0
 40
0.0
 40
0.0
 40
0.0
 40
1.0
 40
1.0
 40
1.0
 40
1.0
 10
403.657
 20
66.248
 30
0.0
 10
403.657
 20
66.248
 30
0.0
 10
403.657
 20
66.248
 30
0.0
 10
403.657
 20
66.248
 30
0.0
  0
SPLINE
  5
64
330
1F
100
AcDbEntity
  8
Layer 1
 62
   250
370
     9
100
AcDbSpline
210
0.0
220
0.0
230
1.0
 70
    27
 71
     3
 72
     8
 73
     4
 74
     0
 42
0.0000000001
 43
0.0000000001
 12
1.0
 22
0.0
 32
0.0
 13
1.0
 23
0.0
 33
0.0
 40
0.0
 40
0.0
 40
0.0
 40
0.0
 40
1.0
 40
1.0
 40
1.0
 40
1.0
 10
397.6834
 20
72.1521
 30
0.0
 10
397.6834
 20
72.1521
 30
0.0
 10
397.6834
 20
72.1521
 30
0.0
 10
397.6834
 20
72.1521
 30
0.0
  0
SPLINE
  5
65
330
1F
100
AcDbEntity
  8
Layer 1
 62
   250
370
     9
100
AcDbSpline
210
0.0
220
0.0
230
1.0
 70
    27
 71
     3
 72
     8
 73
     4
 74
     0
 42
0.0000000001
 43
0.0000000001
 12
1.0
 22
0.0
 32
0.0
 13
1.0
 23
0.0
 33
0.0
 40
0.0
 40
0.0
 40
0.0
 40
0.0
 40
1.0
 40
1.0
 40
1.0
 40
1.0
 10
391.7098
 20
66.248
 30
0.0
 10
391.7098
 20
66.248
 30
0.0
 10
391.7098
 20
66.248
 30
0.0
 10
391.7098
 20
66.248
 30
0.0
  0
SPLINE
  5
66
330
1F
100
AcDbEntity
  8
Layer 1
 62
   250
370
     9
100
AcDbSpline
210
0.0
220
0.0
230
1.0
 70
    27
 71
     3
 72
     8
 73
     4
 74
     0
 42
0.0000000001
 43
0.0000000001
 12
1.0
 22
0.0
 32
0.0
 13
1.0
 23
0.0
 33
0.0
 40
0.0
 40
0.0
 40
0.0
 40
0.0
 40
1.0
 40
1.0
 40
1.0
 40
1.0
 10
397.6834
 20
60.3439
 30
0.0
 10
397.6834
 20
60.3439
 30
0.0
 10
397.6834
 20
60.3439
 30
0.0
 10
397.6834
 20
60.3439
 30
0.0
  0
SPLINE
  5
67
330
1F
100
AcDbEntity
  8
Layer 1
 62
   250
370
     9
100
AcDbSpline
210
0.0
220
0.0
230
1.0
 70
    27
 71
     3
 72
     8
 73
     4
 74
     0
 42
0.0000000001
 43
0.0000000001
 12
1.0
 22
0.0
 32
0.0
 13
1.0
 23
0.0
 33
0.0
 40
0.0
 40
0.0
 40
0.0
 40
0.0
 40
1.0
 40
1.0
 40
1.0
 40
1.0
 10
403.657
 20
66.248
 30
0.0
 10
403.657
 20
66.248
 30
0.0
 10
403.657
 20
66.248
 30
0.0
 10
403.657
 20
66.248
 30
0.0
  0
SPLINE
  5
68
330
1F
100
AcDbEntity
  8
Layer 1
 62
   250
370
     9
100
AcDbSpline
210
0.0
220
0.0
230
1.0
 70
    11
 71
     3
 72
    20
 73
    16
 74
     0
 42
0.0000000001
 43
0.0000000001
 12
1.0
 22
0.0
 32
0.0
 13
1.0
 23
0.0
 33
0.0
 40
0.0
 40
0.0
 40
0.0
 40
0.0
 40
0.2
 40
0.2
 40
0.2
 40
0.2
 40
0.4
 40
0.4
 40
0.4
 40
0.4
 40
0.6
 40
0.6
 40
0.6
 40
0.6
 40
1.0
 40
1.0
 40
1.0
 40
1.0
 10
403.657
 20
66.248
 30
0.0
 10
403.657
 20
69.5087
 30
0.0
 10
400.9825
 20
72.1521
 30
0.0
 10
397.6834
 20
72.1521
 30
0.0
 10
397.6834
 20
72.1521
 30
0.0
 10
394.3843
 20
72.1521
 30
0.0
 10
391.7098
 20
69.5088
 30
0.0
 10
391.7098
 20
66.248
 30
0.0
 10
391.7098
 20
66.248
 30
0.0
 10
391.7098
 20
62.9873
 30
0.0
 10
394.3843
 20
60.3439
 30
0.0
 10
397.6834
 20
60.3439
 30
0.0
 10
397.6834
 20
60.3439
 30
0.0
 10
400.9825
 20
60.3439
 30
0.0
 10
403.657
 20
62.9872
 30
0.0
 10
403.657
 20
66.248
 30
0.0
  0
SPLINE
  5
69
330
1F
100
AcDbEntity
  8
Layer 1
 62
   250
370
     9
100
AcDbSpline
210
0.0
220
0.0
230
1.0
 70
    11
 71
     3
 72
    20
 73
    16
 74
     0
 42
0.0000000001
 43
0.0000000001
 12
1.0
 22
0.0
 32
0.0
 13
1.0
 23
0.0
 33
0.0
 40
0.0
 40
0.0
 40
0.0
 40
0.0
 40
0.2
 40
0.2
 40
0.2
 40
0.2
 40
0.4
 40
0.4
 40
0.4
 40
0.4
 40
0.6
 40
0.6
 40
0.6
 40
0.6
 40
1.0
 40
1.0
 40
1.0
 40
1.0
 10
403.657
 20
66.248
 30
0.0
 10
403.657
 20
69.5087
 30
0.0
 10
400.9825
 20
72.1521
 30
0.0
 10
397.6834
 20
72.1521
 30
0.0
 10
397.6834
 20
72.1521
 30
0.0
 10
394.3843
 20
72.1521
 30
0.0
 10
391.7098
 20
69.5088
 30
0.0
 10
391.7098
 20
66.248
 30
0.0
 10
391.7098
 20
66.248
 30
0.0
 10
391.7098
 20
62.9873
 30
0.0
 10
394.3843
 20
60.3439
 30
0.0
 10
397.6834
 20
60.3439
 30
0.0
 10
397.6834
 20
60.3439
 30
0.0
 10
400.9825
 20
60.3439
 30
0.0
 10
403.657
 20
62.9872
 30
0.0
 10
403.657
 20
66.248
 30
0.0
  0
SPLINE
  5
6A
330
1F
100
AcDbEntity
  8
Layer 1
 62
   250
370
     9
100
AcDbSpline
210
0.0
220
0.0
230
1.0
 70
    11
 71
     3
 72
    20
 73
    16
 74
     0
 42
0.0000000001
 43
0.0000000001
 12
1.0
 22
0.0
 32
0.0
 13
1.0
 23
0.0
 33
0.0
 40
0.0
 40
0.0
 40
0.0
 40
0.0
 40
0.2
 40
0.2
 40
0.2
 40
0.2
 40
0.4
 40
0.4
 40
0.4
 40
0.4
 40
0.6
 40
0.6
 40
0.6
 40
0.6
 40
1.0
 40
1.0
 40
1.0
 40
1.0
 10
403.657
 20
66.248
 30
0.0
 10
403.657
 20
69.5087
 30
0.0
 10
400.9825
 20
72.1521
 30
0.0
 10
397.6834
 20
72.1521
 30
0.0
 10
397.6834
 20
72.1521
 30
0.0
 10
394.3843
 20
72.1521
 30
0.0
 10
391.7098
 20
69.5088
 30
0.0
 10
391.7098
 20
66.248
 30
0.0
 10
391.7098
 20
66.248
 30
0.0
 10
391.7098
 20
62.9873
 30
0.0
 10
394.3843
 20
60.3439
 30
0.0
 10
397.6834
 20
60.3439
 30
0.0
 10
397.6834
 20
60.3439
 30
0.0
 10
400.9825
 20
60.3439
 30
0.0
 10
403.657
 20
62.9872
 30
0.0
 10
403.657
 20
66.248
 30
0.0
  0
SPLINE
  5
6B
330
1F
100
AcDbEntity
  8
Layer 1
 62
   250
370
     9
100
AcDbSpline
210
0.0
220
0.0
230
1.0
 70
    11
 71
     3
 72
    20
 73
    16
 74
     0
 42
0.0000000001
 43
0.0000000001
 12
1.0
 22
0.0
 32
0.0
 13
1.0
 23
0.0
 33
0.0
 40
0.0
 40
0.0
 40
0.0
 40
0.0
 40
0.2
 40
0.2
 40
0.2
 40
0.2
 40
0.4
 40
0.4
 40
0.4
 40
0.4
 40
0.6
 40
0.6
 40
0.6
 40
0.6
 40
1.0
 40
1.0
 40
1.0
 40
1.0
 10
403.657
 20
66.248
 30
0.0
 10
403.657
 20
69.5087
 30
0.0
 10
400.9825
 20
72.1521
 30
0.0
 10
397.6834
 20
72.1521
 30
0.0
 10
397.6834
 20
72.1521
 30
0.0
 10
394.3843
 20
72.1521
 30
0.0
 10
391.7098
 20
69.5088
 30
0.0
 10
391.7098
 20
66.248
 30
0.0
 10
391.7098
 20
66.248
 30
0.0
 10
391.7098
 20
62.9873
 30
0.0
 10
394.3843
 20
60.3439
 30
0.0
 10
397.6834
 20
60.3439
 30
0.0
 10
397.6834
 20
60.3439
 30
0.0
 10
400.9825
 20
60.3439
 30
0.0
 10
403.657
 20
62.9872
 30
0.0
 10
403.657
 20
66.248
 30
0.0
  0
SPLINE
  5
6C
330
1F
100
AcDbEntity
  8
Layer 1
 62
   250
370
     9
100
AcDbSpline
210
0.0
220
0.0
230
1.0
 70
    11
 71
     3
 72
    20
 73
    16
 74
     0
 42
0.0000000001
 43
0.0000000001
 12
1.0
 22
0.0
 32
0.0
 13
1.0
 23
0.0
 33
0.0
 40
0.0
 40
0.0
 40
0.0
 40
0.0
 40
0.2
 40
0.2
 40
0.2
 40
0.2
 40
0.4
 40
0.4
 40
0.4
 40
0.4
 40
0.6
 40
0.6
 40
0.6
 40
0.6
 40
1.0
 40
1.0
 40
1.0
 40
1.0
 10
403.657
 20
66.248
 30
0.0
 10
403.657
 20
69.5087
 30
0.0
 10
400.9825
 20
72.1521
 30
0.0
 10
397.6834
 20
72.1521
 30
0.0
 10
397.6834
 20
72.1521
 30
0.0
 10
394.3843
 20
72.1521
 30
0.0
 10
391.7098
 20
69.5088
 30
0.0
 10
391.7098
 20
66.248
 30
0.0
 10
391.7098
 20
66.248
 30
0.0
 10
391.7098
 20
62.9873
 30
0.0
 10
394.3843
 20
60.3439
 30
0.0
 10
397.6834
 20
60.3439
 30
0.0
 10
397.6834
 20
60.3439
 30
0.0
 10
400.9825
 20
60.3439
 30
0.0
 10
403.657
 20
62.9872
 30
0.0
 10
403.657
 20
66.248
 30
0.0
  0
SPLINE
  5
6D
330
1F
100
AcDbEntity
  8
Layer 1
 62
   250
370
     9
100
AcDbSpline
210
0.0
220
0.0
230
1.0
 70
    11
 71
     3
 72
    20
 73
    16
 74
     0
 42
0.0000000001
 43
0.0000000001
 12
1.0
 22
0.0
 32
0.0
 13
1.0
 23
0.0
 33
0.0
 40
0.0
 40
0.0
 40
0.0
 40
0.0
 40
0.2
 40
0.2
 40
0.2
 40
0.2
 40
0.4
 40
0.4
 40
0.4
 40
0.4
 40
0.6
 40
0.6
 40
0.6
 40
0.6
 40
1.0
 40
1.0
 40
1.0
 40
1.0
 10
403.657
 20
66.248
 30
0.0
 10
403.657
 20
69.5087
 30
0.0
 10
400.9825
 20
72.1521
 30
0.0
 10
397.6834
 20
72.1521
 30
0.0
 10
397.6834
 20
72.1521
 30
0.0
 10
394.3843
 20
72.1521
 30
0.0
 10
391.7098
 20
69.5088
 30
0.0
 10
391.7098
 20
66.248
 30
0.0
 10
391.7098
 20
66.248
 30
0.0
 10
391.7098
 20
62.9873
 30
0.0
 10
394.3843
 20
60.3439
 30
0.0
 10
397.6834
 20
60.3439
 30
0.0
 10
397.6834
 20
60.3439
 30
0.0
 10
400.9825
 20
60.3439
 30
0.0
 10
403.657
 20
62.9872
 30
0.0
 10
403.657
 20
66.248
 30
0.0
  0
SPLINE
  5
6E
330
1F
100
AcDbEntity
  8
Layer 1
 62
   250
370
     9
100
AcDbSpline
210
0.0
220
0.0
230
1.0
 70
    11
 71
     3
 72
    20
 73
    16
 74
     0
 42
0.0000000001
 43
0.0000000001
 12
1.0
 22
0.0
 32
0.0
 13
1.0
 23
0.0
 33
0.0
 40
0.0
 40
0.0
 40
0.0
 40
0.0
 40
0.2
 40
0.2
 40
0.2
 40
0.2
 40
0.4
 40
0.4
 40
0.4
 40
0.4
 40
0.6
 40
0.6
 40
0.6
 40
0.6
 40
1.0
 40
1.0
 40
1.0
 40
1.0
 10
403.657
 20
66.248
 30
0.0
 10
403.657
 20
69.5087
 30
0.0
 10
400.9825
 20
72.1521
 30
0.0
 10
397.6834
 20
72.1521
 30
0.0
 10
397.6834
 20
72.1521
 30
0.0
 10
394.3843
 20
72.1521
 30
0.0
 10
391.7098
 20
69.5088
 30
0.0
 10
391.7098
 20
66.248
 30
0.0
 10
391.7098
 20
66.248
 30
0.0
 10
391.7098
 20
62.9873
 30
0.0
 10
394.3843
 20
60.3439
 30
0.0
 10
397.6834
 20
60.3439
 30
0.0
 10
397.6834
 20
60.3439
 30
0.0
 10
400.9825
 20
60.3439
 30
0.0
 10
403.657
 20
62.9872
 30
0.0
 10
403.657
 20
66.248
 30
0.0
  0
SPLINE
  5
6F
330
1F
100
AcDbEntity
  8
Layer 1
 62
   250
370
     9
100
AcDbSpline
210
0.0
220
0.0
230
1.0
 70
    11
 71
     3
 72
    20
 73
    16
 74
     0
 42
0.0000000001
 43
0.0000000001
 12
1.0
 22
0.0
 32
0.0
 13
1.0
 23
0.0
 33
0.0
 40
0.0
 40
0.0
 40
0.0
 40
0.0
 40
0.2
 40
0.2
 40
0.2
 40
0.2
 40
0.4
 40
0.4
 40
0.4
 40
0.4
 40
0.6
 40
0.6
 40
0.6
 40
0.6
 40
1.0
 40
1.0
 40
1.0
 40
1.0
 10
403.657
 20
66.248
 30
0.0
 10
403.657
 20
69.5087
 30
0.0
 10
400.9825
 20
72.1521
 30
0.0
 10
397.6834
 20
72.1521
 30
0.0
 10
397.6834
 20
72.1521
 30
0.0
 10
394.3843
 20
72.1521
 30
0.0
 10
391.7098
 20
69.5088
 30
0.0
 10
391.7098
 20
66.248
 30
0.0
 10
391.7098
 20
66.248
 30
0.0
 10
391.7098
 20
62.9873
 30
0.0
 10
394.3843
 20
60.3439
 30
0.0
 10
397.6834
 20
60.3439
 30
0.0
 10
397.6834
 20
60.3439
 30
0.0
 10
400.9825
 20
60.3439
 30
0.0
 10
403.657
 20
62.9872
 30
0.0
 10
403.657
 20
66.248
 30
0.0
  0
SPLINE
  5
70
330
1F
100
AcDbEntity
  8
Layer 1
 62
   250
370
     9
100
AcDbSpline
210
0.0
220
0.0
230
1.0
 70
    11
 71
     3
 72
    20
 73
    16
 74
     0
 42
0.0000000001
 43
0.0000000001
 12
1.0
 22
0.0
 32
0.0
 13
1.0
 23
0.0
 33
0.0
 40
0.0
 40
0.0
 40
0.0
 40
0.0
 40
0.2
 40
0.2
 40
0.2
 40
0.2
 40
0.4
 40
0.4
 40
0.4
 40
0.4
 40
0.6
 40
0.6
 40
0.6
 40
0.6
 40
1.0
 40
1.0
 40
1.0
 40
1.0
 10
403.657
 20
66.248
 30
0.0
 10
403.657
 20
69.5087
 30
0.0
 10
400.9825
 20
72.1521
 30
0.0
 10
397.6834
 20
72.1521
 30
0.0
 10
397.6834
 20
72.1521
 30
0.0
 10
394.3843
 20
72.1521
 30
0.0
 10
391.7098
 20
69.5088
 30
0.0
 10
391.7098
 20
66.248
 30
0.0
 10
391.7098
 20
66.248
 30
0.0
 10
391.7098
 20
62.9873
 30
0.0
 10
394.3843
 20
60.3439
 30
0.0
 10
397.6834
 20
60.3439
 30
0.0
 10
397.6834
 20
60.3439
 30
0.0
 10
400.9825
 20
60.3439
 30
0.0
 10
403.657
 20
62.9872
 30
0.0
 10
403.657
 20
66.248
 30
0.0
  0
SPLINE
  5
71
330
1F
100
AcDbEntity
  8
Layer 1
 62
   250
370
     9
100
AcDbSpline
210
0.0
220
0.0
230
1.0
 70
    11
 71
     3
 72
    20
 73
    16
 74
     0
 42
0.0000000001
 43
0.0000000001
 12
1.0
 22
0.0
 32
0.0
 13
1.0
 23
0.0
 33
0.0
 40
0.0
 40
0.0
 40
0.0
 40
0.0
 40
0.2
 40
0.2
 40
0.2
 40
0.2
 40
0.4
 40
0.4
 40
0.4
 40
0.4
 40
0.6
 40
0.6
 40
0.6
 40
0.6
 40
1.0
 40
1.0
 40
1.0
 40
1.0
 10
403.657
 20
66.248
 30
0.0
 10
403.657
 20
69.5087
 30
0.0
 10
400.9825
 20
72.1521
 30
0.0
 10
397.6834
 20
72.1521
 30
0.0
 10
397.6834
 20
72.1521
 30
0.0
 10
394.3843
 20
72.1521
 30
0.0
 10
391.7098
 20
69.5088
 30
0.0
 10
391.7098
 20
66.248
 30
0.0
 10
391.7098
 20
66.248
 30
0.0
 10
391.7098
 20
62.9873
 30
0.0
 10
394.3843
 20
60.3439
 30
0.0
 10
397.6834
 20
60.3439
 30
0.0
 10
397.6834
 20
60.3439
 30
0.0
 10
400.9825
 20
60.3439
 30
0.0
 10
403.657
 20
62.9872
 30
0.0
 10
403.657
 20
66.248
 30
0.0
  0
SPLINE
  5
72
330
1F
100
AcDbEntity
  8
Layer 1
 62
   250
370
     9
100
AcDbSpline
210
0.0
220
0.0
230
1.0
 70
    11
 71
     3
 72
    20
 73
    16
 74
     0
 42
0.0000000001
 43
0.0000000001
 12
1.0
 22
0.0
 32
0.0
 13
1.0
 23
0.0
 33
0.0
 40
0.0
 40
0.0
 40
0.0
 40
0.0
 40
0.2
 40
0.2
 40
0.2
 40
0.2
 40
0.4
 40
0.4
 40
0.4
 40
0.4
 40
0.6
 40
0.6
 40
0.6
 40
0.6
 40
1.0
 40
1.0
 40
1.0
 40
1.0
 10
403.657
 20
66.248
 30
0.0
 10
403.657
 20
69.5087
 30
0.0
 10
400.9825
 20
72.1521
 30
0.0
 10
397.6834
 20
72.1521
 30
0.0
 10
397.6834
 20
72.1521
 30
0.0
 10
394.3843
 20
72.1521
 30
0.0
 10
391.7098
 20
69.5088
 30
0.0
 10
391.7098
 20
66.248
 30
0.0
 10
391.7098
 20
66.248
 30
0.0
 10
391.7098
 20
62.9873
 30
0.0
 10
394.3843
 20
60.3439
 30
0.0
 10
397.6834
 20
60.3439
 30
0.0
 10
397.6834
 20
60.3439
 30
0.0
 10
400.9825
 20
60.3439
 30
0.0
 10
403.657
 20
62.9872
 30
0.0
 10
403.657
 20
66.248
 30
0.0
  0
SPLINE
  5
73
330
1F
100
AcDbEntity
  8
Layer 1
 62
   250
370
     9
100
AcDbSpline
210
0.0
220
0.0
230
1.0
 70
    11
 71
     3
 72
    20
 73
    16
 74
     0
 42
0.0000000001
 43
0.0000000001
 12
1.0
 22
0.0
 32
0.0
 13
1.0
 23
0.0
 33
0.0
 40
0.0
 40
0.0
 40
0.0
 40
0.0
 40
0.2
 40
0.2
 40
0.2
 40
0.2
 40
0.4
 40
0.4
 40
0.4
 40
0.4
 40
0.6
 40
0.6
 40
0.6
 40
0.6
 40
1.0
 40
1.0
 40
1.0
 40
1.0
 10
403.657
 20
66.248
 30
0.0
 10
403.657
 20
69.5087
 30
0.0
 10
400.9825
 20
72.1521
 30
0.0
 10
397.6834
 20
72.1521
 30
0.0
 10
397.6834
 20
72.1521
 30
0.0
 10
394.3843
 20
72.1521
 30
0.0
 10
391.7098
 20
69.5087
 30
0.0
 10
391.7098
 20
66.248
 30
0.0
 10
391.7098
 20
66.248
 30
0.0
 10
391.7098
 20
62.9873
 30
0.0
 10
394.3843
 20
60.3439
 30
0.0
 10
397.6834
 20
60.3439
 30
0.0
 10
397.6834
 20
60.3439
 30
0.0
 10
400.9825
 20
60.3439
 30
0.0
 10
403.657
 20
62.9872
 30
0.0
 10
403.657
 20
66.248
 30
0.0
  0
SPLINE
  5
74
330
1F
100
AcDbEntity
  8
Layer 1
 62
   250
370
     9
100
AcDbSpline
210
0.0
220
0.0
230
1.0
 70
    11
 71
     3
 72
    20
 73
    16
 74
     0
 42
0.0000000001
 43
0.0000000001
 12
1.0
 22
0.0
 32
0.0
 13
1.0
 23
0.0
 33
0.0
 40
0.0
 40
0.0
 40
0.0
 40
0.0
 40
0.2
 40
0.2
 40
0.2
 40
0.2
 40
0.4
 40
0.4
 40
0.4
 40
0.4
 40
0.6
 40
0.6
 40
0.6
 40
0.6
 40
1.0
 40
1.0
 40
1.0
 40
1.0
 10
403.657
 20
66.248
 30
0.0
 10
403.657
 20
69.5087
 30
0.0
 10
400.9825
 20
72.1521
 30
0.0
 10
397.6834
 20
72.1521
 30
0.0
 10
397.6834
 20
72.1521
 30
0.0
 10
394.3843
 20
72.1521
 30
0.0
 10
391.7098
 20
69.5087
 30
0.0
 10
391.7098
 20
66.248
 30
0.0
 10
391.7098
 20
66.248
 30
0.0
 10
391.7098
 20
62.9873
 30
0.0
 10
394.3843
 20
60.3439
 30
0.0
 10
397.6834
 20
60.3439
 30
0.0
 10
397.6834
 20
60.3439
 30
0.0
 10
400.9825
 20
60.3439
 30
0.0
 10
403.657
 20
62.9872
 30
0.0
 10
403.657
 20
66.248
 30
0.0
  0
SPLINE
  5
75
330
1F
100
AcDbEntity
  8
Layer 1
 62
   250
370
     9
100
AcDbSpline
210
0.0
220
0.0
230
1.0
 70
    11
 71
     3
 72
    20
 73
    16
 74
     0
 42
0.0000000001
 43
0.0000000001
 12
1.0
 22
0.0
 32
0.0
 13
1.0
 23
0.0
 33
0.0
 40
0.0
 40
0.0
 40
0.0
 40
0.0
 40
0.2
 40
0.2
 40
0.2
 40
0.2
 40
0.4
 40
0.4
 40
0.4
 40
0.4
 40
0.6
 40
0.6
 40
0.6
 40
0.6
 40
1.0
 40
1.0
 40
1.0
 40
1.0
 10
403.657
 20
66.248
 30
0.0
 10
403.657
 20
69.5087
 30
0.0
 10
400.9825
 20
72.1521
 30
0.0
 10
397.6834
 20
72.1521
 30
0.0
 10
397.6834
 20
72.1521
 30
0.0
 10
394.3843
 20
72.1521
 30
0.0
 10
391.7098
 20
69.5087
 30
0.0
 10
391.7098
 20
66.248
 30
0.0
 10
391.7098
 20
66.248
 30
0.0
 10
391.7098
 20
62.9873
 30
0.0
 10
394.3843
 20
60.3439
 30
0.0
 10
397.6834
 20
60.3439
 30
0.0
 10
397.6834
 20
60.3439
 30
0.0
 10
400.9825
 20
60.3439
 30
0.0
 10
403.657
 20
62.9872
 30
0.0
 10
403.657
 20
66.248
 30
0.0
  0
SPLINE
  5
76
330
1F
100
AcDbEntity
  8
Layer 1
 62
   250
370
     9
100
AcDbSpline
210
0.0
220
0.0
230
1.0
 70
    11
 71
     3
 72
    20
 73
    16
 74
     0
 42
0.0000000001
 43
0.0000000001
 12
1.0
 22
0.0
 32
0.0
 13
1.0
 23
0.0
 33
0.0
 40
0.0
 40
0.0
 40
0.0
 40
0.0
 40
0.2
 40
0.2
 40
0.2
 40
0.2
 40
0.4
 40
0.4
 40
0.4
 40
0.4
 40
0.6
 40
0.6
 40
0.6
 40
0.6
 40
1.0
 40
1.0
 40
1.0
 40
1.0
 10
403.657
 20
66.248
 30
0.0
 10
403.657
 20
69.5087
 30
0.0
 10
400.9825
 20
72.1521
 30
0.0
 10
397.6834
 20
72.1521
 30
0.0
 10
397.6834
 20
72.1521
 30
0.0
 10
394.3843
 20
72.1521
 30
0.0
 10
391.7098
 20
69.5087
 30
0.0
 10
391.7098
 20
66.248
 30
0.0
 10
391.7098
 20
66.248
 30
0.0
 10
391.7098
 20
62.9873
 30
0.0
 10
394.3843
 20
60.3439
 30
0.0
 10
397.6834
 20
60.3439
 30
0.0
 10
397.6834
 20
60.3439
 30
0.0
 10
400.9825
 20
60.3439
 30
0.0
 10
403.657
 20
62.9872
 30
0.0
 10
403.657
 20
66.248
 30
0.0
  0
SPLINE
  5
77
330
1F
100
AcDbEntity
  8
Layer 1
 62
   250
370
     9
100
AcDbSpline
210
0.0
220
0.0
230
1.0
 70
    11
 71
     3
 72
    20
 73
    16
 74
     0
 42
0.0000000001
 43
0.0000000001
 12
1.0
 22
0.0
 32
0.0
 13
1.0
 23
0.0
 33
0.0
 40
0.0
 40
0.0
 40
0.0
 40
0.0
 40
0.2
 40
0.2
 40
0.2
 40
0.2
 40
0.4
 40
0.4
 40
0.4
 40
0.4
 40
0.6
 40
0.6
 40
0.6
 40
0.6
 40
1.0
 40
1.0
 40
1.0
 40
1.0
 10
403.657
 20
66.248
 30
0.0
 10
403.657
 20
69.5087
 30
0.0
 10
400.9825
 20
72.1521
 30
0.0
 10
397.6834
 20
72.1521
 30
0.0
 10
397.6834
 20
72.1521
 30
0.0
 10
394.3843
 20
72.1521
 30
0.0
 10
391.7098
 20
69.5087
 30
0.0
 10
391.7098
 20
66.248
 30
0.0
 10
391.7098
 20
66.248
 30
0.0
 10
391.7098
 20
62.9873
 30
0.0
 10
394.3843
 20
60.3439
 30
0.0
 10
397.6834
 20
60.3439
 30
0.0
 10
397.6834
 20
60.3439
 30
0.0
 10
400.9825
 20
60.3439
 30
0.0
 10
403.657
 20
62.9872
 30
0.0
 10
403.657
 20
66.248
 30
0.0
  0
SPLINE
  5
78
330
1F
100
AcDbEntity
  8
Layer 1
 62
   250
370
     9
100
AcDbSpline
210
0.0
220
0.0
230
1.0
 70
    11
 71
     3
 72
    20
 73
    16
 74
     0
 42
0.0000000001
 43
0.0000000001
 12
1.0
 22
0.0
 32
0.0
 13
1.0
 23
0.0
 33
0.0
 40
0.0
 40
0.0
 40
0.0
 40
0.0
 40
0.2
 40
0.2
 40
0.2
 40
0.2
 40
0.4
 40
0.4
 40
0.4
 40
0.4
 40
0.6
 40
0.6
 40
0.6
 40
0.6
 40
1.0
 40
1.0
 40
1.0
 40
1.0
 10
403.657
 20
66.248
 30
0.0
 10
403.657
 20
69.5087
 30
0.0
 10
400.9825
 20
72.1521
 30
0.0
 10
397.6834
 20
72.1521
 30
0.0
 10
397.6834
 20
72.1521
 30
0.0
 10
394.3843
 20
72.1521
 30
0.0
 10
391.7098
 20
69.5087
 30
0.0
 10
391.7098
 20
66.248
 30
0.0
 10
391.7098
 20
66.248
 30
0.0
 10
391.7098
 20
62.9873
 30
0.0
 10
394.3843
 20
60.3439
 30
0.0
 10
397.6834
 20
60.3439
 30
0.0
 10
397.6834
 20
60.3439
 30
0.0
 10
400.9825
 20
60.3439
 30
0.0
 10
403.657
 20
62.9872
 30
0.0
 10
403.657
 20
66.248
 30
0.0
  0
SPLINE
  5
79
330
1F
100
AcDbEntity
  8
Layer 1
 62
   250
370
     9
100
AcDbSpline
210
0.0
220
0.0
230
1.0
 70
    11
 71
     3
 72
    20
 73
    16
 74
     0
 42
0.0000000001
 43
0.0000000001
 12
1.0
 22
0.0
 32
0.0
 13
1.0
 23
0.0
 33
0.0
 40
0.0
 40
0.0
 40
0.0
 40
0.0
 40
0.2
 40
0.2
 40
0.2
 40
0.2
 40
0.4
 40
0.4
 40
0.4
 40
0.4
 40
0.6
 40
0.6
 40
0.6
 40
0.6
 40
1.0
 40
1.0
 40
1.0
 40
1.0
 10
403.657
 20
66.248
 30
0.0
 10
403.657
 20
69.5087
 30
0.0
 10
400.9825
 20
72.1521
 30
0.0
 10
397.6834
 20
72.1521
 30
0.0
 10
397.6834
 20
72.1521
 30
0.0
 10
394.3843
 20
72.1521
 30
0.0
 10
391.7098
 20
69.5087
 30
0.0
 10
391.7098
 20
66.248
 30
0.0
 10
391.7098
 20
66.248
 30
0.0
 10
391.7098
 20
62.9873
 30
0.0
 10
394.3843
 20
60.3439
 30
0.0
 10
397.6834
 20
60.3439
 30
0.0
 10
397.6834
 20
60.3439
 30
0.0
 10
400.9825
 20
60.3439
 30
0.0
 10
403.657
 20
62.9872
 30
0.0
 10
403.657
 20
66.248
 30
0.0
  0
SPLINE
  5
7A
330
1F
100
AcDbEntity
  8
Layer 1
 62
   250
370
     9
100
AcDbSpline
210
0.0
220
0.0
230
1.0
 70
    11
 71
     3
 72
    20
 73
    16
 74
     0
 42
0.0000000001
 43
0.0000000001
 12
1.0
 22
0.0
 32
0.0
 13
1.0
 23
0.0
 33
0.0
 40
0.0
 40
0.0
 40
0.0
 40
0.0
 40
0.2
 40
0.2
 40
0.2
 40
0.2
 40
0.4
 40
0.4
 40
0.4
 40
0.4
 40
0.6
 40
0.6
 40
0.6
 40
0.6
 40
1.0
 40
1.0
 40
1.0
 40
1.0
 10
403.657
 20
66.248
 30
0.0
 10
403.657
 20
69.5087
 30
0.0
 10
400.9825
 20
72.1521
 30
0.0
 10
397.6834
 20
72.1521
 30
0.0
 10
397.6834
 20
72.1521
 30
0.0
 10
394.3843
 20
72.1521
 30
0.0
 10
391.7098
 20
69.5087
 30
0.0
 10
391.7098
 20
66.248
 30
0.0
 10
391.7098
 20
66.248
 30
0.0
 10
391.7098
 20
62.9873
 30
0.0
 10
394.3843
 20
60.3439
 30
0.0
 10
397.6834
 20
60.3439
 30
0.0
 10
397.6834
 20
60.3439
 30
0.0
 10
400.9825
 20
60.3439
 30
0.0
 10
403.657
 20
62.9872
 30
0.0
 10
403.657
 20
66.248
 30
0.0
  0
SPLINE
  5
7B
330
1F
100
AcDbEntity
  8
Layer 1
 62
   250
370
     9
100
AcDbSpline
210
0.0
220
0.0
230
1.0
 70
    11
 71
     3
 72
    20
 73
    16
 74
     0
 42
0.0000000001
 43
0.0000000001
 12
1.0
 22
0.0
 32
0.0
 13
1.0
 23
0.0
 33
0.0
 40
0.0
 40
0.0
 40
0.0
 40
0.0
 40
0.2
 40
0.2
 40
0.2
 40
0.2
 40
0.4
 40
0.4
 40
0.4
 40
0.4
 40
0.6
 40
0.6
 40
0.6
 40
0.6
 40
1.0
 40
1.0
 40
1.0
 40
1.0
 10
403.657
 20
66.248
 30
0.0
 10
403.657
 20
69.5087
 30
0.0
 10
400.9825
 20
72.1521
 30
0.0
 10
397.6834
 20
72.1521
 30
0.0
 10
397.6834
 20
72.1521
 30
0.0
 10
394.3843
 20
72.1521
 30
0.0
 10
391.7098
 20
69.5087
 30
0.0
 10
391.7098
 20
66.248
 30
0.0
 10
391.7098
 20
66.248
 30
0.0
 10
391.7098
 20
62.9873
 30
0.0
 10
394.3843
 20
60.3439
 30
0.0
 10
397.6834
 20
60.3439
 30
0.0
 10
397.6834
 20
60.3439
 30
0.0
 10
400.9825
 20
60.3439
 30
0.0
 10
403.657
 20
62.9872
 30
0.0
 10
403.657
 20
66.248
 30
0.0
  0
SPLINE
  5
7C
330
1F
100
AcDbEntity
  8
Layer 1
 62
   250
370
     9
100
AcDbSpline
210
0.0
220
0.0
230
1.0
 70
    11
 71
     3
 72
    20
 73
    16
 74
     0
 42
0.0000000001
 43
0.0000000001
 12
1.0
 22
0.0
 32
0.0
 13
1.0
 23
0.0
 33
0.0
 40
0.0
 40
0.0
 40
0.0
 40
0.0
 40
0.2
 40
0.2
 40
0.2
 40
0.2
 40
0.4
 40
0.4
 40
0.4
 40
0.4
 40
0.6
 40
0.6
 40
0.6
 40
0.6
 40
1.0
 40
1.0
 40
1.0
 40
1.0
 10
282.85
 20
66.248
 30
0.0
 10
282.85
 20
69.0881
 30
0.0
 10
280.5205
 20
71.3905
 30
0.0
 10
277.647
 20
71.3905
 30
0.0
 10
277.647
 20
71.3905
 30
0.0
 10
274.7735
 20
71.3905
 30
0.0
 10
272.444
 20
69.0881
 30
0.0
 10
272.444
 20
66.248
 30
0.0
 10
272.444
 20
66.248
 30
0.0
 10
272.444
 20
63.4079
 30
0.0
 10
274.7734
 20
61.1055
 30
0.0
 10
277.647
 20
61.1055
 30
0.0
 10
277.647
 20
61.1055
 30
0.0
 10
280.5205
 20
61.1055
 30
0.0
 10
282.85
 20
63.4079
 30
0.0
 10
282.85
 20
66.248
 30
0.0
  0
SPLINE
  5
7D
330
1F
100
AcDbEntity
  8
Layer 1
 62
   250
370
     9
100
AcDbSpline
210
0.0
220
0.0
230
1.0
 70
    27
 71
     3
 72
     8
 73
     4
 74
     0
 42
0.0000000001
 43
0.0000000001
 12
1.0
 22
0.0
 32
0.0
 13
1.0
 23
0.0
 33
0.0
 40
0.0
 40
0.0
 40
0.0
 40
0.0
 40
1.0
 40
1.0
 40
1.0
 40
1.0
 10
282.85
 20
66.248
 30
0.0
 10
282.85
 20
66.248
 30
0.0
 10
282.85
 20
66.248
 30
0.0
 10
282.85
 20
66.248
 30
0.0
  0
SPLINE
  5
7E
330
1F
100
AcDbEntity
  8
Layer 1
 62
   250
370
     9
100
AcDbSpline
210
0.0
220
0.0
230
1.0
 70
    27
 71
     3
 72
     8
 73
     4
 74
     0
 42
0.0000000001
 43
0.0000000001
 12
1.0
 22
0.0
 32
0.0
 13
1.0
 23
0.0
 33
0.0
 40
0.0
 40
0.0
 40
0.0
 40
0.0
 40
1.0
 40
1.0
 40
1.0
 40
1.0
 10
277.647
 20
71.3905
 30
0.0
 10
277.647
 20
71.3905
 30
0.0
 10
277.647
 20
71.3905
 30
0.0
 10
277.647
 20
71.3905
 30
0.0
  0
SPLINE
  5
7F
330
1F
100
AcDbEntity
  8
Layer 1
 62
   250
370
     9
100
AcDbSpline
210
0.0
220
0.0
230
1.0
 70
    27
 71
     3
 72
     8
 73
     4
 74
     0
 42
0.0000000001
 43
0.0000000001
 12
1.0
 22
0.0
 32
0.0
 13
1.0
 23
0.0
 33
0.0
 40
0.0
 40
0.0
 40
0.0
 40
0.0
 40
1.0
 40
1.0
 40
1.0
 40
1.0
 10
272.444
 20
66.248
 30
0.0
 10
272.444
 20
66.248
 30
0.0
 10
272.444
 20
66.248
 30
0.0
 10
272.444
 20
66.248
 30
0.0
  0
SPLINE
  5
80
330
1F
100
AcDbEntity
  8
Layer 1
 62
   250
370
     9
100
AcDbSpline
210
0.0
220
0.0
230
1.0
 70
    27
 71
     3
 72
     8
 73
     4
 74
     0
 42
0.0000000001
 43
0.0000000001
 12
1.0
 22
0.0
 32
0.0
 13
1.0
 23
0.0
 33
0.0
 40
0.0
 40
0.0
 40
0.0
 40
0.0
 40
1.0
 40
1.0
 40
1.0
 40
1.0
 10
277.647
 20
61.1055
 30
0.0
 10
277.647
 20
61.1055
 30
0.0
 10
277.647
 20
61.1055
 30
0.0
 10
277.647
 20
61.1055
 30
0.0
  0
SPLINE
  5
81
330
1F
100
AcDbEntity
  8
Layer 1
 62
   250
370
     9
100
AcDbSpline
210
0.0
220
0.0
230
1.0
 70
    27
 71
     3
 72
     8
 73
     4
 74
     0
 42
0.0000000001
 43
0.0000000001
 12
1.0
 22
0.0
 32
0.0
 13
1.0
 23
0.0
 33
0.0
 40
0.0
 40
0.0
 40
0.0
 40
0.0
 40
1.0
 40
1.0
 40
1.0
 40
1.0
 10
282.85
 20
66.248
 30
0.0
 10
282.85
 20
66.248
 30
0.0
 10
282.85
 20
66.248
 30
0.0
 10
282.85
 20
66.248
 30
0.0
  0
SPLINE
  5
82
330
1F
100
AcDbEntity
  8
Layer 1
 62
   250
370
     9
100
AcDbSpline
210
0.0
220
0.0
230
1.0
 70
    11
 71
     3
 72
    20
 73
    16
 74
     0
 42
0.0000000001
 43
0.0000000001
 12
1.0
 22
0.0
 32
0.0
 13
1.0
 23
0.0
 33
0.0
 40
0.0
 40
0.0
 40
0.0
 40
0.0
 40
0.2
 40
0.2
 40
0.2
 40
0.2
 40
0.4
 40
0.4
 40
0.4
 40
0.4
 40
0.6
 40
0.6
 40
0.6
 40
0.6
 40
1.0
 40
1.0
 40
1.0
 40
1.0
 10
282.85
 20
66.248
 30
0.0
 10
282.85
 20
69.0881
 30
0.0
 10
280.5205
 20
71.3905
 30
0.0
 10
277.647
 20
71.3905
 30
0.0
 10
277.647
 20
71.3905
 30
0.0
 10
274.7735
 20
71.3905
 30
0.0
 10
272.444
 20
69.0881
 30
0.0
 10
272.444
 20
66.248
 30
0.0
 10
272.444
 20
66.248
 30
0.0
 10
272.444
 20
63.4079
 30
0.0
 10
274.7734
 20
61.1055
 30
0.0
 10
277.647
 20
61.1055
 30
0.0
 10
277.647
 20
61.1055
 30
0.0
 10
280.5205
 20
61.1055
 30
0.0
 10
282.85
 20
63.4079
 30
0.0
 10
282.85
 20
66.248
 30
0.0
  0
SPLINE
  5
83
330
1F
100
AcDbEntity
  8
Layer 1
 62
   250
370
     9
100
AcDbSpline
210
0.0
220
0.0
230
1.0
 70
    11
 71
     3
 72
    20
 73
    16
 74
     0
 42
0.0000000001
 43
0.0000000001
 12
1.0
 22
0.0
 32
0.0
 13
1.0
 23
0.0
 33
0.0
 40
0.0
 40
0.0
 40
0.0
 40
0.0
 40
0.2
 40
0.2
 40
0.2
 40
0.2
 40
0.4
 40
0.4
 40
0.4
 40
0.4
 40
0.6
 40
0.6
 40
0.6
 40
0.6
 40
1.0
 40
1.0
 40
1.0
 40
1.0
 10
282.85
 20
66.248
 30
0.0
 10
282.85
 20
69.0881
 30
0.0
 10
280.5205
 20
71.3905
 30
0.0
 10
277.647
 20
71.3905
 30
0.0
 10
277.647
 20
71.3905
 30
0.0
 10
274.7735
 20
71.3905
 30
0.0
 10
272.444
 20
69.0881
 30
0.0
 10
272.444
 20
66.248
 30
0.0
 10
272.444
 20
66.248
 30
0.0
 10
272.444
 20
63.4079
 30
0.0
 10
274.7734
 20
61.1055
 30
0.0
 10
277.647
 20
61.1055
 30
0.0
 10
277.647
 20
61.1055
 30
0.0
 10
280.5205
 20
61.1055
 30
0.0
 10
282.85
 20
63.4079
 30
0.0
 10
282.85
 20
66.248
 30
0.0
  0
SPLINE
  5
84
330
1F
100
AcDbEntity
  8
Layer 1
 62
   250
370
     9
100
AcDbSpline
210
0.0
220
0.0
230
1.0
 70
    11
 71
     3
 72
    20
 73
    16
 74
     0
 42
0.0000000001
 43
0.0000000001
 12
1.0
 22
0.0
 32
0.0
 13
1.0
 23
0.0
 33
0.0
 40
0.0
 40
0.0
 40
0.0
 40
0.0
 40
0.2
 40
0.2
 40
0.2
 40
0.2
 40
0.4
 40
0.4
 40
0.4
 40
0.4
 40
0.6
 40
0.6
 40
0.6
 40
0.6
 40
1.0
 40
1.0
 40
1.0
 40
1.0
 10
282.85
 20
66.248
 30
0.0
 10
282.85
 20
69.0881
 30
0.0
 10
280.5205
 20
71.3905
 30
0.0
 10
277.647
 20
71.3905
 30
0.0
 10
277.647
 20
71.3905
 30
0.0
 10
274.7735
 20
71.3905
 30
0.0
 10
272.444
 20
69.0881
 30
0.0
 10
272.444
 20
66.248
 30
0.0
 10
272.444
 20
66.248
 30
0.0
 10
272.444
 20
63.4079
 30
0.0
 10
274.7734
 20
61.1055
 30
0.0
 10
277.647
 20
61.1055
 30
0.0
 10
277.647
 20
61.1055
 30
0.0
 10
280.5205
 20
61.1055
 30
0.0
 10
282.85
 20
63.4079
 30
0.0
 10
282.85
 20
66.248
 30
0.0
  0
SPLINE
  5
85
330
1F
100
AcDbEntity
  8
Layer 1
 62
   250
370
     9
100
AcDbSpline
210
0.0
220
0.0
230
1.0
 70
    11
 71
     3
 72
    20
 73
    16
 74
     0
 42
0.0000000001
 43
0.0000000001
 12
1.0
 22
0.0
 32
0.0
 13
1.0
 23
0.0
 33
0.0
 40
0.0
 40
0.0
 40
0.0
 40
0.0
 40
0.2
 40
0.2
 40
0.2
 40
0.2
 40
0.4
 40
0.4
 40
0.4
 40
0.4
 40
0.6
 40
0.6
 40
0.6
 40
0.6
 40
1.0
 40
1.0
 40
1.0
 40
1.0
 10
282.85
 20
66.248
 30
0.0
 10
282.85
 20
69.0881
 30
0.0
 10
280.5205
 20
71.3905
 30
0.0
 10
277.647
 20
71.3905
 30
0.0
 10
277.647
 20
71.3905
 30
0.0
 10
274.7735
 20
71.3905
 30
0.0
 10
272.444
 20
69.0881
 30
0.0
 10
272.444
 20
66.248
 30
0.0
 10
272.444
 20
66.248
 30
0.0
 10
272.444
 20
63.4079
 30
0.0
 10
274.7734
 20
61.1055
 30
0.0
 10
277.647
 20
61.1055
 30
0.0
 10
277.647
 20
61.1055
 30
0.0
 10
280.5205
 20
61.1055
 30
0.0
 10
282.85
 20
63.4079
 30
0.0
 10
282.85
 20
66.248
 30
0.0
  0
SPLINE
  5
86
330
1F
100
AcDbEntity
  8
Layer 1
 62
   250
370
     9
100
AcDbSpline
210
0.0
220
0.0
230
1.0
 70
    11
 71
     3
 72
    20
 73
    16
 74
     0
 42
0.0000000001
 43
0.0000000001
 12
1.0
 22
0.0
 32
0.0
 13
1.0
 23
0.0
 33
0.0
 40
0.0
 40
0.0
 40
0.0
 40
0.0
 40
0.2
 40
0.2
 40
0.2
 40
0.2
 40
0.4
 40
0.4
 40
0.4
 40
0.4
 40
0.6
 40
0.6
 40
0.6
 40
0.6
 40
1.0
 40
1.0
 40
1.0
 40
1.0
 10
282.85
 20
66.248
 30
0.0
 10
282.85
 20
69.0881
 30
0.0
 10
280.5205
 20
71.3905
 30
0.0
 10
277.647
 20
71.3905
 30
0.0
 10
277.647
 20
71.3905
 30
0.0
 10
274.7735
 20
71.3905
 30
0.0
 10
272.444
 20
69.0881
 30
0.0
 10
272.444
 20
66.248
 30
0.0
 10
272.444
 20
66.248
 30
0.0
 10
272.444
 20
63.4079
 30
0.0
 10
274.7734
 20
61.1055
 30
0.0
 10
277.647
 20
61.1055
 30
0.0
 10
277.647
 20
61.1055
 30
0.0
 10
280.5205
 20
61.1055
 30
0.0
 10
282.85
 20
63.4079
 30
0.0
 10
282.85
 20
66.248
 30
0.0
  0
SPLINE
  5
87
330
1F
100
AcDbEntity
  8
Layer 1
 62
   250
370
     9
100
AcDbSpline
210
0.0
220
0.0
230
1.0
 70
    11
 71
     3
 72
    20
 73
    16
 74
     0
 42
0.0000000001
 43
0.0000000001
 12
1.0
 22
0.0
 32
0.0
 13
1.0
 23
0.0
 33
0.0
 40
0.0
 40
0.0
 40
0.0
 40
0.0
 40
0.2
 40
0.2
 40
0.2
 40
0.2
 40
0.4
 40
0.4
 40
0.4
 40
0.4
 40
0.6
 40
0.6
 40
0.6
 40
0.6
 40
1.0
 40
1.0
 40
1.0
 40
1.0
 10
282.85
 20
66.248
 30
0.0
 10
282.85
 20
69.0881
 30
0.0
 10
280.5205
 20
71.3905
 30
0.0
 10
277.647
 20
71.3905
 30
0.0
 10
277.647
 20
71.3905
 30
0.0
 10
274.7735
 20
71.3905
 30
0.0
 10
272.444
 20
69.0881
 30
0.0
 10
272.444
 20
66.248
 30
0.0
 10
272.444
 20
66.248
 30
0.0
 10
272.444
 20
63.4079
 30
0.0
 10
274.7734
 20
61.1055
 30
0.0
 10
277.647
 20
61.1055
 30
0.0
 10
277.647
 20
61.1055
 30
0.0
 10
280.5205
 20
61.1055
 30
0.0
 10
282.85
 20
63.4079
 30
0.0
 10
282.85
 20
66.248
 30
0.0
  0
SPLINE
  5
88
330
1F
100
AcDbEntity
  8
Layer 1
 62
   250
370
     9
100
AcDbSpline
210
0.0
220
0.0
230
1.0
 70
    11
 71
     3
 72
    20
 73
    16
 74
     0
 42
0.0000000001
 43
0.0000000001
 12
1.0
 22
0.0
 32
0.0
 13
1.0
 23
0.0
 33
0.0
 40
0.0
 40
0.0
 40
0.0
 40
0.0
 40
0.2
 40
0.2
 40
0.2
 40
0.2
 40
0.4
 40
0.4
 40
0.4
 40
0.4
 40
0.6
 40
0.6
 40
0.6
 40
0.6
 40
1.0
 40
1.0
 40
1.0
 40
1.0
 10
282.85
 20
66.248
 30
0.0
 10
282.85
 20
69.0881
 30
0.0
 10
280.5205
 20
71.3905
 30
0.0
 10
277.647
 20
71.3905
 30
0.0
 10
277.647
 20
71.3905
 30
0.0
 10
274.7735
 20
71.3905
 30
0.0
 10
272.444
 20
69.0881
 30
0.0
 10
272.444
 20
66.248
 30
0.0
 10
272.444
 20
66.248
 30
0.0
 10
272.444
 20
63.4079
 30
0.0
 10
274.7734
 20
61.1055
 30
0.0
 10
277.647
 20
61.1055
 30
0.0
 10
277.647
 20
61.1055
 30
0.0
 10
280.5205
 20
61.1055
 30
0.0
 10
282.85
 20
63.4079
 30
0.0
 10
282.85
 20
66.248
 30
0.0
  0
SPLINE
  5
89
330
1F
100
AcDbEntity
  8
Layer 1
 62
   250
370
     9
100
AcDbSpline
210
0.0
220
0.0
230
1.0
 70
    11
 71
     3
 72
    20
 73
    16
 74
     0
 42
0.0000000001
 43
0.0000000001
 12
1.0
 22
0.0
 32
0.0
 13
1.0
 23
0.0
 33
0.0
 40
0.0
 40
0.0
 40
0.0
 40
0.0
 40
0.2
 40
0.2
 40
0.2
 40
0.2
 40
0.4
 40
0.4
 40
0.4
 40
0.4
 40
0.6
 40
0.6
 40
0.6
 40
0.6
 40
1.0
 40
1.0
 40
1.0
 40
1.0
 10
282.85
 20
66.248
 30
0.0
 10
282.85
 20
69.0881
 30
0.0
 10
280.5205
 20
71.3905
 30
0.0
 10
277.647
 20
71.3905
 30
0.0
 10
277.647
 20
71.3905
 30
0.0
 10
274.7735
 20
71.3905
 30
0.0
 10
272.444
 20
69.0881
 30
0.0
 10
272.444
 20
66.248
 30
0.0
 10
272.444
 20
66.248
 30
0.0
 10
272.444
 20
63.4079
 30
0.0
 10
274.7734
 20
61.1055
 30
0.0
 10
277.647
 20
61.1055
 30
0.0
 10
277.647
 20
61.1055
 30
0.0
 10
280.5205
 20
61.1055
 30
0.0
 10
282.85
 20
63.4079
 30
0.0
 10
282.85
 20
66.248
 30
0.0
  0
SPLINE
  5
8A
330
1F
100
AcDbEntity
  8
Layer 1
 62
   250
370
     9
100
AcDbSpline
210
0.0
220
0.0
230
1.0
 70
    11
 71
     3
 72
    20
 73
    16
 74
     0
 42
0.0000000001
 43
0.0000000001
 12
1.0
 22
0.0
 32
0.0
 13
1.0
 23
0.0
 33
0.0
 40
0.0
 40
0.0
 40
0.0
 40
0.0
 40
0.2
 40
0.2
 40
0.2
 40
0.2
 40
0.4
 40
0.4
 40
0.4
 40
0.4
 40
0.6
 40
0.6
 40
0.6
 40
0.6
 40
1.0
 40
1.0
 40
1.0
 40
1.0
 10
282.85
 20
66.248
 30
0.0
 10
282.85
 20
69.0881
 30
0.0
 10
280.5205
 20
71.3905
 30
0.0
 10
277.647
 20
71.3905
 30
0.0
 10
277.647
 20
71.3905
 30
0.0
 10
274.7735
 20
71.3905
 30
0.0
 10
272.444
 20
69.0881
 30
0.0
 10
272.444
 20
66.248
 30
0.0
 10
272.444
 20
66.248
 30
0.0
 10
272.444
 20
63.4079
 30
0.0
 10
274.7734
 20
61.1055
 30
0.0
 10
277.647
 20
61.1055
 30
0.0
 10
277.647
 20
61.1055
 30
0.0
 10
280.5205
 20
61.1055
 30
0.0
 10
282.85
 20
63.4079
 30
0.0
 10
282.85
 20
66.248
 30
0.0
  0
SPLINE
  5
8B
330
1F
100
AcDbEntity
  8
Layer 1
 62
   250
370
     9
100
AcDbSpline
210
0.0
220
0.0
230
1.0
 70
    11
 71
     3
 72
    20
 73
    16
 74
     0
 42
0.0000000001
 43
0.0000000001
 12
1.0
 22
0.0
 32
0.0
 13
1.0
 23
0.0
 33
0.0
 40
0.0
 40
0.0
 40
0.0
 40
0.0
 40
0.2
 40
0.2
 40
0.2
 40
0.2
 40
0.4
 40
0.4
 40
0.4
 40
0.4
 40
0.6
 40
0.6
 40
0.6
 40
0.6
 40
1.0
 40
1.0
 40
1.0
 40
1.0
 10
282.85
 20
66.248
 30
0.0
 10
282.85
 20
69.0881
 30
0.0
 10
280.5205
 20
71.3905
 30
0.0
 10
277.647
 20
71.3905
 30
0.0
 10
277.647
 20
71.3905
 30
0.0
 10
274.7735
 20
71.3905
 30
0.0
 10
272.444
 20
69.0881
 30
0.0
 10
272.444
 20
66.248
 30
0.0
 10
272.444
 20
66.248
 30
0.0
 10
272.444
 20
63.4079
 30
0.0
 10
274.7734
 20
61.1055
 30
0.0
 10
277.647
 20
61.1055
 30
0.0
 10
277.647
 20
61.1055
 30
0.0
 10
280.5205
 20
61.1055
 30
0.0
 10
282.85
 20
63.4079
 30
0.0
 10
282.85
 20
66.248
 30
0.0
  0
SPLINE
  5
8C
330
1F
100
AcDbEntity
  8
Layer 1
 62
   250
370
     9
100
AcDbSpline
210
0.0
220
0.0
230
1.0
 70
    11
 71
     3
 72
    20
 73
    16
 74
     0
 42
0.0000000001
 43
0.0000000001
 12
1.0
 22
0.0
 32
0.0
 13
1.0
 23
0.0
 33
0.0
 40
0.0
 40
0.0
 40
0.0
 40
0.0
 40
0.2
 40
0.2
 40
0.2
 40
0.2
 40
0.4
 40
0.4
 40
0.4
 40
0.4
 40
0.6
 40
0.6
 40
0.6
 40
0.6
 40
1.0
 40
1.0
 40
1.0
 40
1.0
 10
282.85
 20
66.248
 30
0.0
 10
282.85
 20
69.0881
 30
0.0
 10
280.5205
 20
71.3905
 30
0.0
 10
277.647
 20
71.3905
 30
0.0
 10
277.647
 20
71.3905
 30
0.0
 10
274.7735
 20
71.3905
 30
0.0
 10
272.444
 20
69.0881
 30
0.0
 10
272.444
 20
66.248
 30
0.0
 10
272.444
 20
66.248
 30
0.0
 10
272.444
 20
63.4079
 30
0.0
 10
274.7734
 20
61.1055
 30
0.0
 10
277.647
 20
61.1055
 30
0.0
 10
277.647
 20
61.1055
 30
0.0
 10
280.5205
 20
61.1055
 30
0.0
 10
282.85
 20
63.4079
 30
0.0
 10
282.85
 20
66.248
 30
0.0
  0
SPLINE
  5
8D
330
1F
100
AcDbEntity
  8
Layer 1
 62
   250
370
     9
100
AcDbSpline
210
0.0
220
0.0
230
1.0
 70
    11
 71
     3
 72
    20
 73
    16
 74
     0
 42
0.0000000001
 43
0.0000000001
 12
1.0
 22
0.0
 32
0.0
 13
1.0
 23
0.0
 33
0.0
 40
0.0
 40
0.0
 40
0.0
 40
0.0
 40
0.2
 40
0.2
 40
0.2
 40
0.2
 40
0.4
 40
0.4
 40
0.4
 40
0.4
 40
0.6
 40
0.6
 40
0.6
 40
0.6
 40
1.0
 40
1.0
 40
1.0
 40
1.0
 10
282.85
 20
66.248
 30
0.0
 10
282.85
 20
69.0881
 30
0.0
 10
280.5205
 20
71.3905
 30
0.0
 10
277.647
 20
71.3905
 30
0.0
 10
277.647
 20
71.3905
 30
0.0
 10
274.7735
 20
71.3905
 30
0.0
 10
272.444
 20
69.0881
 30
0.0
 10
272.444
 20
66.248
 30
0.0
 10
272.444
 20
66.248
 30
0.0
 10
272.444
 20
63.4079
 30
0.0
 10
274.7734
 20
61.1055
 30
0.0
 10
277.647
 20
61.1055
 30
0.0
 10
277.647
 20
61.1055
 30
0.0
 10
280.5205
 20
61.1055
 30
0.0
 10
282.85
 20
63.4079
 30
0.0
 10
282.85
 20
66.248
 30
0.0
  0
SPLINE
  5
8E
330
1F
100
AcDbEntity
  8
Layer 1
 62
   250
370
     9
100
AcDbSpline
210
0.0
220
0.0
230
1.0
 70
    11
 71
     3
 72
    20
 73
    16
 74
     0
 42
0.0000000001
 43
0.0000000001
 12
1.0
 22
0.0
 32
0.0
 13
1.0
 23
0.0
 33
0.0
 40
0.0
 40
0.0
 40
0.0
 40
0.0
 40
0.2
 40
0.2
 40
0.2
 40
0.2
 40
0.4
 40
0.4
 40
0.4
 40
0.4
 40
0.6
 40
0.6
 40
0.6
 40
0.6
 40
1.0
 40
1.0
 40
1.0
 40
1.0
 10
282.85
 20
66.248
 30
0.0
 10
282.85
 20
69.0881
 30
0.0
 10
280.5205
 20
71.3905
 30
0.0
 10
277.647
 20
71.3905
 30
0.0
 10
277.647
 20
71.3905
 30
0.0
 10
274.7735
 20
71.3905
 30
0.0
 10
272.444
 20
69.0881
 30
0.0
 10
272.444
 20
66.248
 30
0.0
 10
272.444
 20
66.248
 30
0.0
 10
272.444
 20
63.4079
 30
0.0
 10
274.7734
 20
61.1055
 30
0.0
 10
277.647
 20
61.1055
 30
0.0
 10
277.647
 20
61.1055
 30
0.0
 10
280.5205
 20
61.1055
 30
0.0
 10
282.85
 20
63.4079
 30
0.0
 10
282.85
 20
66.248
 30
0.0
  0
SPLINE
  5
8F
330
1F
100
AcDbEntity
  8
Layer 1
 62
   250
370
     9
100
AcDbSpline
210
0.0
220
0.0
230
1.0
 70
    11
 71
     3
 72
    20
 73
    16
 74
     0
 42
0.0000000001
 43
0.0000000001
 12
1.0
 22
0.0
 32
0.0
 13
1.0
 23
0.0
 33
0.0
 40
0.0
 40
0.0
 40
0.0
 40
0.0
 40
0.2
 40
0.2
 40
0.2
 40
0.2
 40
0.4
 40
0.4
 40
0.4
 40
0.4
 40
0.6
 40
0.6
 40
0.6
 40
0.6
 40
1.0
 40
1.0
 40
1.0
 40
1.0
 10
282.85
 20
66.248
 30
0.0
 10
282.85
 20
69.0881
 30
0.0
 10
280.5205
 20
71.3905
 30
0.0
 10
277.647
 20
71.3905
 30
0.0
 10
277.647
 20
71.3905
 30
0.0
 10
274.7735
 20
71.3905
 30
0.0
 10
272.444
 20
69.0881
 30
0.0
 10
272.444
 20
66.248
 30
0.0
 10
272.444
 20
66.248
 30
0.0
 10
272.444
 20
63.4079
 30
0.0
 10
274.7734
 20
61.1055
 30
0.0
 10
277.647
 20
61.1055
 30
0.0
 10
277.647
 20
61.1055
 30
0.0
 10
280.5205
 20
61.1055
 30
0.0
 10
282.85
 20
63.4079
 30
0.0
 10
282.85
 20
66.248
 30
0.0
  0
SPLINE
  5
90
330
1F
100
AcDbEntity
  8
Layer 1
 62
   250
370
     9
100
AcDbSpline
210
0.0
220
0.0
230
1.0
 70
    11
 71
     3
 72
    20
 73
    16
 74
     0
 42
0.0000000001
 43
0.0000000001
 12
1.0
 22
0.0
 32
0.0
 13
1.0
 23
0.0
 33
0.0
 40
0.0
 40
0.0
 40
0.0
 40
0.0
 40
0.2
 40
0.2
 40
0.2
 40
0.2
 40
0.4
 40
0.4
 40
0.4
 40
0.4
 40
0.6
 40
0.6
 40
0.6
 40
0.6
 40
1.0
 40
1.0
 40
1.0
 40
1.0
 10
282.85
 20
66.248
 30
0.0
 10
282.85
 20
69.0881
 30
0.0
 10
280.5205
 20
71.3905
 30
0.0
 10
277.647
 20
71.3905
 30
0.0
 10
277.647
 20
71.3905
 30
0.0
 10
274.7735
 20
71.3905
 30
0.0
 10
272.444
 20
69.0881
 30
0.0
 10
272.444
 20
66.248
 30
0.0
 10
272.444
 20
66.248
 30
0.0
 10
272.444
 20
63.4079
 30
0.0
 10
274.7734
 20
61.1055
 30
0.0
 10
277.647
 20
61.1055
 30
0.0
 10
277.647
 20
61.1055
 30
0.0
 10
280.5205
 20
61.1055
 30
0.0
 10
282.85
 20
63.4079
 30
0.0
 10
282.85
 20
66.248
 30
0.0
  0
SPLINE
  5
91
330
1F
100
AcDbEntity
  8
Layer 1
 62
   250
370
     9
100
AcDbSpline
210
0.0
220
0.0
230
1.0
 70
    11
 71
     3
 72
    20
 73
    16
 74
     0
 42
0.0000000001
 43
0.0000000001
 12
1.0
 22
0.0
 32
0.0
 13
1.0
 23
0.0
 33
0.0
 40
0.0
 40
0.0
 40
0.0
 40
0.0
 40
0.2
 40
0.2
 40
0.2
 40
0.2
 40
0.4
 40
0.4
 40
0.4
 40
0.4
 40
0.6
 40
0.6
 40
0.6
 40
0.6
 40
1.0
 40
1.0
 40
1.0
 40
1.0
 10
282.85
 20
66.248
 30
0.0
 10
282.85
 20
69.0881
 30
0.0
 10
280.5205
 20
71.3905
 30
0.0
 10
277.647
 20
71.3905
 30
0.0
 10
277.647
 20
71.3905
 30
0.0
 10
274.7735
 20
71.3905
 30
0.0
 10
272.444
 20
69.0881
 30
0.0
 10
272.444
 20
66.248
 30
0.0
 10
272.444
 20
66.248
 30
0.0
 10
272.444
 20
63.4079
 30
0.0
 10
274.7734
 20
61.1055
 30
0.0
 10
277.647
 20
61.1055
 30
0.0
 10
277.647
 20
61.1055
 30
0.0
 10
280.5205
 20
61.1055
 30
0.0
 10
282.85
 20
63.4079
 30
0.0
 10
282.85
 20
66.248
 30
0.0
  0
SPLINE
  5
92
330
1F
100
AcDbEntity
  8
Layer 1
 62
   250
370
     9
100
AcDbSpline
210
0.0
220
0.0
230
1.0
 70
    11
 71
     3
 72
    20
 73
    16
 74
     0
 42
0.0000000001
 43
0.0000000001
 12
1.0
 22
0.0
 32
0.0
 13
1.0
 23
0.0
 33
0.0
 40
0.0
 40
0.0
 40
0.0
 40
0.0
 40
0.2
 40
0.2
 40
0.2
 40
0.2
 40
0.4
 40
0.4
 40
0.4
 40
0.4
 40
0.6
 40
0.6
 40
0.6
 40
0.6
 40
1.0
 40
1.0
 40
1.0
 40
1.0
 10
282.85
 20
66.248
 30
0.0
 10
282.85
 20
69.0881
 30
0.0
 10
280.5205
 20
71.3905
 30
0.0
 10
277.647
 20
71.3905
 30
0.0
 10
277.647
 20
71.3905
 30
0.0
 10
274.7735
 20
71.3905
 30
0.0
 10
272.444
 20
69.0881
 30
0.0
 10
272.444
 20
66.248
 30
0.0
 10
272.444
 20
66.248
 30
0.0
 10
272.444
 20
63.4079
 30
0.0
 10
274.7734
 20
61.1055
 30
0.0
 10
277.647
 20
61.1055
 30
0.0
 10
277.647
 20
61.1055
 30
0.0
 10
280.5205
 20
61.1055
 30
0.0
 10
282.85
 20
63.4079
 30
0.0
 10
282.85
 20
66.248
 30
0.0
  0
SPLINE
  5
93
330
1F
100
AcDbEntity
  8
Layer 1
 62
   250
370
     9
100
AcDbSpline
210
0.0
220
0.0
230
1.0
 70
    11
 71
     3
 72
    20
 73
    16
 74
     0
 42
0.0000000001
 43
0.0000000001
 12
1.0
 22
0.0
 32
0.0
 13
1.0
 23
0.0
 33
0.0
 40
0.0
 40
0.0
 40
0.0
 40
0.0
 40
0.2
 40
0.2
 40
0.2
 40
0.2
 40
0.4
 40
0.4
 40
0.4
 40
0.4
 40
0.6
 40
0.6
 40
0.6
 40
0.6
 40
1.0
 40
1.0
 40
1.0
 40
1.0
 10
282.85
 20
66.248
 30
0.0
 10
282.85
 20
69.0881
 30
0.0
 10
280.5205
 20
71.3905
 30
0.0
 10
277.647
 20
71.3905
 30
0.0
 10
277.647
 20
71.3905
 30
0.0
 10
274.7735
 20
71.3905
 30
0.0
 10
272.444
 20
69.0881
 30
0.0
 10
272.444
 20
66.248
 30
0.0
 10
272.444
 20
66.248
 30
0.0
 10
272.444
 20
63.4079
 30
0.0
 10
274.7734
 20
61.1055
 30
0.0
 10
277.647
 20
61.1055
 30
0.0
 10
277.647
 20
61.1055
 30
0.0
 10
280.5205
 20
61.1055
 30
0.0
 10
282.85
 20
63.4079
 30
0.0
 10
282.85
 20
66.248
 30
0.0
  0
SPLINE
  5
94
330
1F
100
AcDbEntity
  8
Layer 1
 62
   250
370
     9
100
AcDbSpline
210
0.0
220
0.0
230
1.0
 70
    11
 71
     3
 72
    20
 73
    16
 74
     0
 42
0.0000000001
 43
0.0000000001
 12
1.0
 22
0.0
 32
0.0
 13
1.0
 23
0.0
 33
0.0
 40
0.0
 40
0.0
 40
0.0
 40
0.0
 40
0.2
 40
0.2
 40
0.2
 40
0.2
 40
0.4
 40
0.4
 40
0.4
 40
0.4
 40
0.6
 40
0.6
 40
0.6
 40
0.6
 40
1.0
 40
1.0
 40
1.0
 40
1.0
 10
282.85
 20
66.248
 30
0.0
 10
282.85
 20
69.0881
 30
0.0
 10
280.5205
 20
71.3905
 30
0.0
 10
277.647
 20
71.3905
 30
0.0
 10
277.647
 20
71.3905
 30
0.0
 10
274.7735
 20
71.3905
 30
0.0
 10
272.444
 20
69.0881
 30
0.0
 10
272.444
 20
66.248
 30
0.0
 10
272.444
 20
66.248
 30
0.0
 10
272.444
 20
63.4079
 30
0.0
 10
274.7734
 20
61.1055
 30
0.0
 10
277.647
 20
61.1055
 30
0.0
 10
277.647
 20
61.1055
 30
0.0
 10
280.5205
 20
61.1055
 30
0.0
 10
282.85
 20
63.4079
 30
0.0
 10
282.85
 20
66.248
 30
0.0
  0
SPLINE
  5
95
330
1F
100
AcDbEntity
  8
Layer 1
 62
   250
370
     9
100
AcDbSpline
210
0.0
220
0.0
230
1.0
 70
    11
 71
     3
 72
    20
 73
    16
 74
     0
 42
0.0000000001
 43
0.0000000001
 12
1.0
 22
0.0
 32
0.0
 13
1.0
 23
0.0
 33
0.0
 40
0.0
 40
0.0
 40
0.0
 40
0.0
 40
0.2
 40
0.2
 40
0.2
 40
0.2
 40
0.4
 40
0.4
 40
0.4
 40
0.4
 40
0.6
 40
0.6
 40
0.6
 40
0.6
 40
1.0
 40
1.0
 40
1.0
 40
1.0
 10
282.85
 20
66.248
 30
0.0
 10
282.85
 20
69.0881
 30
0.0
 10
280.5205
 20
71.3905
 30
0.0
 10
277.647
 20
71.3905
 30
0.0
 10
277.647
 20
71.3905
 30
0.0
 10
274.7735
 20
71.3905
 30
0.0
 10
272.444
 20
69.0881
 30
0.0
 10
272.444
 20
66.248
 30
0.0
 10
272.444
 20
66.248
 30
0.0
 10
272.444
 20
63.4079
 30
0.0
 10
274.7734
 20
61.1055
 30
0.0
 10
277.647
 20
61.1055
 30
0.0
 10
277.647
 20
61.1055
 30
0.0
 10
280.5205
 20
61.1055
 30
0.0
 10
282.85
 20
63.4079
 30
0.0
 10
282.85
 20
66.248
 30
0.0
  0
SPLINE
  5
96
330
1F
100
AcDbEntity
  8
Layer 1
 62
   250
370
     9
100
AcDbSpline
210
0.0
220
0.0
230
1.0
 70
    11
 71
     3
 72
    20
 73
    16
 74
     0
 42
0.0000000001
 43
0.0000000001
 12
1.0
 22
0.0
 32
0.0
 13
1.0
 23
0.0
 33
0.0
 40
0.0
 40
0.0
 40
0.0
 40
0.0
 40
0.2
 40
0.2
 40
0.2
 40
0.2
 40
0.4
 40
0.4
 40
0.4
 40
0.4
 40
0.6
 40
0.6
 40
0.6
 40
0.6
 40
1.0
 40
1.0
 40
1.0
 40
1.0
 10
402.8248
 20
66.248
 30
0.0
 10
402.8248
 20
69.1931
 30
0.0
 10
400.4092
 20
71.5806
 30
0.0
 10
397.4294
 20
71.5806
 30
0.0
 10
397.4294
 20
71.5806
 30
0.0
 10
394.4496
 20
71.5806
 30
0.0
 10
392.034
 20
69.1931
 30
0.0
 10
392.034
 20
66.248
 30
0.0
 10
392.034
 20
66.248
 30
0.0
 10
392.034
 20
63.3029
 30
0.0
 10
394.4496
 20
60.9154
 30
0.0
 10
397.4294
 20
60.9154
 30
0.0
 10
397.4294
 20
60.9154
 30
0.0
 10
400.4092
 20
60.9154
 30
0.0
 10
402.8248
 20
63.3029
 30
0.0
 10
402.8248
 20
66.248
 30
0.0
  0
SPLINE
  5
97
330
1F
100
AcDbEntity
  8
Layer 1
 62
   250
370
     9
100
AcDbSpline
210
0.0
220
0.0
230
1.0
 70
    27
 71
     3
 72
     8
 73
     4
 74
     0
 42
0.0000000001
 43
0.0000000001
 12
1.0
 22
0.0
 32
0.0
 13
1.0
 23
0.0
 33
0.0
 40
0.0
 40
0.0
 40
0.0
 40
0.0
 40
1.0
 40
1.0
 40
1.0
 40
1.0
 10
402.8248
 20
66.248
 30
0.0
 10
402.8248
 20
66.248
 30
0.0
 10
402.8248
 20
66.248
 30
0.0
 10
402.8248
 20
66.248
 30
0.0
  0
SPLINE
  5
98
330
1F
100
AcDbEntity
  8
Layer 1
 62
   250
370
     9
100
AcDbSpline
210
0.0
220
0.0
230
1.0
 70
    27
 71
     3
 72
     8
 73
     4
 74
     0
 42
0.0000000001
 43
0.0000000001
 12
1.0
 22
0.0
 32
0.0
 13
1.0
 23
0.0
 33
0.0
 40
0.0
 40
0.0
 40
0.0
 40
0.0
 40
1.0
 40
1.0
 40
1.0
 40
1.0
 10
397.4294
 20
71.5806
 30
0.0
 10
397.4294
 20
71.5806
 30
0.0
 10
397.4294
 20
71.5806
 30
0.0
 10
397.4294
 20
71.5806
 30
0.0
  0
SPLINE
  5
99
330
1F
100
AcDbEntity
  8
Layer 1
 62
   250
370
     9
100
AcDbSpline
210
0.0
220
0.0
230
1.0
 70
    27
 71
     3
 72
     8
 73
     4
 74
     0
 42
0.0000000001
 43
0.0000000001
 12
1.0
 22
0.0
 32
0.0
 13
1.0
 23
0.0
 33
0.0
 40
0.0
 40
0.0
 40
0.0
 40
0.0
 40
1.0
 40
1.0
 40
1.0
 40
1.0
 10
392.034
 20
66.248
 30
0.0
 10
392.034
 20
66.248
 30
0.0
 10
392.034
 20
66.248
 30
0.0
 10
392.034
 20
66.248
 30
0.0
  0
SPLINE
  5
9A
330
1F
100
AcDbEntity
  8
Layer 1
 62
   250
370
     9
100
AcDbSpline
210
0.0
220
0.0
230
1.0
 70
    27
 71
     3
 72
     8
 73
     4
 74
     0
 42
0.0000000001
 43
0.0000000001
 12
1.0
 22
0.0
 32
0.0
 13
1.0
 23
0.0
 33
0.0
 40
0.0
 40
0.0
 40
0.0
 40
0.0
 40
1.0
 40
1.0
 40
1.0
 40
1.0
 10
397.4294
 20
60.9154
 30
0.0
 10
397.4294
 20
60.9154
 30
0.0
 10
397.4294
 20
60.9154
 30
0.0
 10
397.4294
 20
60.9154
 30
0.0
  0
SPLINE
  5
9B
330
1F
100
AcDbEntity
  8
Layer 1
 62
   250
370
     9
100
AcDbSpline
210
0.0
220
0.0
230
1.0
 70
    27
 71
     3
 72
     8
 73
     4
 74
     0
 42
0.0000000001
 43
0.0000000001
 12
1.0
 22
0.0
 32
0.0
 13
1.0
 23
0.0
 33
0.0
 40
0.0
 40
0.0
 40
0.0
 40
0.0
 40
1.0
 40
1.0
 40
1.0
 40
1.0
 10
402.8248
 20
66.248
 30
0.0
 10
402.8248
 20
66.248
 30
0.0
 10
402.8248
 20
66.248
 30
0.0
 10
402.8248
 20
66.248
 30
0.0
  0
SPLINE
  5
9C
330
1F
100
AcDbEntity
  8
Layer 1
 62
   250
370
     9
100
AcDbSpline
210
0.0
220
0.0
230
1.0
 70
    11
 71
     3
 72
    20
 73
    16
 74
     0
 42
0.0000000001
 43
0.0000000001
 12
1.0
 22
0.0
 32
0.0
 13
1.0
 23
0.0
 33
0.0
 40
0.0
 40
0.0
 40
0.0
 40
0.0
 40
0.2
 40
0.2
 40
0.2
 40
0.2
 40
0.4
 40
0.4
 40
0.4
 40
0.4
 40
0.6
 40
0.6
 40
0.6
 40
0.6
 40
1.0
 40
1.0
 40
1.0
 40
1.0
 10
402.8248
 20
66.248
 30
0.0
 10
402.8248
 20
69.1931
 30
0.0
 10
400.4092
 20
71.5806
 30
0.0
 10
397.4294
 20
71.5806
 30
0.0
 10
397.4294
 20
71.5806
 30
0.0
 10
394.4496
 20
71.5806
 30
0.0
 10
392.034
 20
69.1931
 30
0.0
 10
392.034
 20
66.248
 30
0.0
 10
392.034
 20
66.248
 30
0.0
 10
392.034
 20
63.3029
 30
0.0
 10
394.4496
 20
60.9154
 30
0.0
 10
397.4294
 20
60.9154
 30
0.0
 10
397.4294
 20
60.9154
 30
0.0
 10
400.4092
 20
60.9154
 30
0.0
 10
402.8248
 20
63.3029
 30
0.0
 10
402.8248
 20
66.248
 30
0.0
  0
SPLINE
  5
9D
330
1F
100
AcDbEntity
  8
Layer 1
 62
   250
370
     9
100
AcDbSpline
210
0.0
220
0.0
230
1.0
 70
    11
 71
     3
 72
    20
 73
    16
 74
     0
 42
0.0000000001
 43
0.0000000001
 12
1.0
 22
0.0
 32
0.0
 13
1.0
 23
0.0
 33
0.0
 40
0.0
 40
0.0
 40
0.0
 40
0.0
 40
0.2
 40
0.2
 40
0.2
 40
0.2
 40
0.4
 40
0.4
 40
0.4
 40
0.4
 40
0.6
 40
0.6
 40
0.6
 40
0.6
 40
1.0
 40
1.0
 40
1.0
 40
1.0
 10
402.8248
 20
66.248
 30
0.0
 10
402.8248
 20
69.1931
 30
0.0
 10
400.4092
 20
71.5806
 30
0.0
 10
397.4294
 20
71.5806
 30
0.0
 10
397.4294
 20
71.5806
 30
0.0
 10
394.4496
 20
71.5806
 30
0.0
 10
392.034
 20
69.1931
 30
0.0
 10
392.034
 20
66.248
 30
0.0
 10
392.034
 20
66.248
 30
0.0
 10
392.034
 20
63.3029
 30
0.0
 10
394.4496
 20
60.9154
 30
0.0
 10
397.4294
 20
60.9154
 30
0.0
 10
397.4294
 20
60.9154
 30
0.0
 10
400.4092
 20
60.9154
 30
0.0
 10
402.8248
 20
63.3029
 30
0.0
 10
402.8248
 20
66.248
 30
0.0
  0
SPLINE
  5
9E
330
1F
100
AcDbEntity
  8
Layer 1
 62
   250
370
     9
100
AcDbSpline
210
0.0
220
0.0
230
1.0
 70
    11
 71
     3
 72
    20
 73
    16
 74
     0
 42
0.0000000001
 43
0.0000000001
 12
1.0
 22
0.0
 32
0.0
 13
1.0
 23
0.0
 33
0.0
 40
0.0
 40
0.0
 40
0.0
 40
0.0
 40
0.2
 40
0.2
 40
0.2
 40
0.2
 40
0.4
 40
0.4
 40
0.4
 40
0.4
 40
0.6
 40
0.6
 40
0.6
 40
0.6
 40
1.0
 40
1.0
 40
1.0
 40
1.0
 10
402.8248
 20
66.248
 30
0.0
 10
402.8248
 20
69.1931
 30
0.0
 10
400.4092
 20
71.5806
 30
0.0
 10
397.4294
 20
71.5806
 30
0.0
 10
397.4294
 20
71.5806
 30
0.0
 10
394.4496
 20
71.5806
 30
0.0
 10
392.034
 20
69.1931
 30
0.0
 10
392.034
 20
66.248
 30
0.0
 10
392.034
 20
66.248
 30
0.0
 10
392.034
 20
63.3029
 30
0.0
 10
394.4496
 20
60.9154
 30
0.0
 10
397.4294
 20
60.9154
 30
0.0
 10
397.4294
 20
60.9154
 30
0.0
 10
400.4092
 20
60.9154
 30
0.0
 10
402.8248
 20
63.3029
 30
0.0
 10
402.8248
 20
66.248
 30
0.0
  0
SPLINE
  5
9F
330
1F
100
AcDbEntity
  8
Layer 1
 62
   250
370
     9
100
AcDbSpline
210
0.0
220
0.0
230
1.0
 70
    11
 71
     3
 72
    20
 73
    16
 74
     0
 42
0.0000000001
 43
0.0000000001
 12
1.0
 22
0.0
 32
0.0
 13
1.0
 23
0.0
 33
0.0
 40
0.0
 40
0.0
 40
0.0
 40
0.0
 40
0.2
 40
0.2
 40
0.2
 40
0.2
 40
0.4
 40
0.4
 40
0.4
 40
0.4
 40
0.6
 40
0.6
 40
0.6
 40
0.6
 40
1.0
 40
1.0
 40
1.0
 40
1.0
 10
402.8248
 20
66.248
 30
0.0
 10
402.8248
 20
69.1931
 30
0.0
 10
400.4092
 20
71.5806
 30
0.0
 10
397.4294
 20
71.5806
 30
0.0
 10
397.4294
 20
71.5806
 30
0.0
 10
394.4496
 20
71.5806
 30
0.0
 10
392.034
 20
69.1931
 30
0.0
 10
392.034
 20
66.248
 30
0.0
 10
392.034
 20
66.248
 30
0.0
 10
392.034
 20
63.3029
 30
0.0
 10
394.4496
 20
60.9154
 30
0.0
 10
397.4294
 20
60.9154
 30
0.0
 10
397.4294
 20
60.9154
 30
0.0
 10
400.4092
 20
60.9154
 30
0.0
 10
402.8248
 20
63.3029
 30
0.0
 10
402.8248
 20
66.248
 30
0.0
  0
SPLINE
  5
A0
330
1F
100
AcDbEntity
  8
Layer 1
 62
   250
370
     9
100
AcDbSpline
210
0.0
220
0.0
230
1.0
 70
    11
 71
     3
 72
    20
 73
    16
 74
     0
 42
0.0000000001
 43
0.0000000001
 12
1.0
 22
0.0
 32
0.0
 13
1.0
 23
0.0
 33
0.0
 40
0.0
 40
0.0
 40
0.0
 40
0.0
 40
0.2
 40
0.2
 40
0.2
 40
0.2
 40
0.4
 40
0.4
 40
0.4
 40
0.4
 40
0.6
 40
0.6
 40
0.6
 40
0.6
 40
1.0
 40
1.0
 40
1.0
 40
1.0
 10
402.8248
 20
66.248
 30
0.0
 10
402.8248
 20
69.1931
 30
0.0
 10
400.4092
 20
71.5806
 30
0.0
 10
397.4294
 20
71.5806
 30
0.0
 10
397.4294
 20
71.5806
 30
0.0
 10
394.4496
 20
71.5806
 30
0.0
 10
392.034
 20
69.1931
 30
0.0
 10
392.034
 20
66.248
 30
0.0
 10
392.034
 20
66.248
 30
0.0
 10
392.034
 20
63.3029
 30
0.0
 10
394.4496
 20
60.9154
 30
0.0
 10
397.4294
 20
60.9154
 30
0.0
 10
397.4294
 20
60.9154
 30
0.0
 10
400.4092
 20
60.9154
 30
0.0
 10
402.8248
 20
63.3029
 30
0.0
 10
402.8248
 20
66.248
 30
0.0
  0
SPLINE
  5
A1
330
1F
100
AcDbEntity
  8
Layer 1
 62
   250
370
     9
100
AcDbSpline
210
0.0
220
0.0
230
1.0
 70
    11
 71
     3
 72
    20
 73
    16
 74
     0
 42
0.0000000001
 43
0.0000000001
 12
1.0
 22
0.0
 32
0.0
 13
1.0
 23
0.0
 33
0.0
 40
0.0
 40
0.0
 40
0.0
 40
0.0
 40
0.2
 40
0.2
 40
0.2
 40
0.2
 40
0.4
 40
0.4
 40
0.4
 40
0.4
 40
0.6
 40
0.6
 40
0.6
 40
0.6
 40
1.0
 40
1.0
 40
1.0
 40
1.0
 10
402.8248
 20
66.248
 30
0.0
 10
402.8248
 20
69.1931
 30
0.0
 10
400.4092
 20
71.5806
 30
0.0
 10
397.4294
 20
71.5806
 30
0.0
 10
397.4294
 20
71.5806
 30
0.0
 10
394.4496
 20
71.5806
 30
0.0
 10
392.034
 20
69.1931
 30
0.0
 10
392.034
 20
66.248
 30
0.0
 10
392.034
 20
66.248
 30
0.0
 10
392.034
 20
63.3029
 30
0.0
 10
394.4496
 20
60.9154
 30
0.0
 10
397.4294
 20
60.9154
 30
0.0
 10
397.4294
 20
60.9154
 30
0.0
 10
400.4092
 20
60.9154
 30
0.0
 10
402.8248
 20
63.3029
 30
0.0
 10
402.8248
 20
66.248
 30
0.0
  0
SPLINE
  5
A2
330
1F
100
AcDbEntity
  8
Layer 1
 62
   250
370
     9
100
AcDbSpline
210
0.0
220
0.0
230
1.0
 70
    11
 71
     3
 72
    20
 73
    16
 74
     0
 42
0.0000000001
 43
0.0000000001
 12
1.0
 22
0.0
 32
0.0
 13
1.0
 23
0.0
 33
0.0
 40
0.0
 40
0.0
 40
0.0
 40
0.0
 40
0.2
 40
0.2
 40
0.2
 40
0.2
 40
0.4
 40
0.4
 40
0.4
 40
0.4
 40
0.6
 40
0.6
 40
0.6
 40
0.6
 40
1.0
 40
1.0
 40
1.0
 40
1.0
 10
402.8248
 20
66.248
 30
0.0
 10
402.8248
 20
69.1931
 30
0.0
 10
400.4092
 20
71.5806
 30
0.0
 10
397.4294
 20
71.5806
 30
0.0
 10
397.4294
 20
71.5806
 30
0.0
 10
394.4496
 20
71.5806
 30
0.0
 10
392.034
 20
69.1931
 30
0.0
 10
392.034
 20
66.248
 30
0.0
 10
392.034
 20
66.248
 30
0.0
 10
392.034
 20
63.3029
 30
0.0
 10
394.4496
 20
60.9154
 30
0.0
 10
397.4294
 20
60.9154
 30
0.0
 10
397.4294
 20
60.9154
 30
0.0
 10
400.4092
 20
60.9154
 30
0.0
 10
402.8248
 20
63.3029
 30
0.0
 10
402.8248
 20
66.248
 30
0.0
  0
SPLINE
  5
A3
330
1F
100
AcDbEntity
  8
Layer 1
 62
   250
370
     9
100
AcDbSpline
210
0.0
220
0.0
230
1.0
 70
    11
 71
     3
 72
    20
 73
    16
 74
     0
 42
0.0000000001
 43
0.0000000001
 12
1.0
 22
0.0
 32
0.0
 13
1.0
 23
0.0
 33
0.0
 40
0.0
 40
0.0
 40
0.0
 40
0.0
 40
0.2
 40
0.2
 40
0.2
 40
0.2
 40
0.4
 40
0.4
 40
0.4
 40
0.4
 40
0.6
 40
0.6
 40
0.6
 40
0.6
 40
1.0
 40
1.0
 40
1.0
 40
1.0
 10
402.8248
 20
66.248
 30
0.0
 10
402.8248
 20
69.1931
 30
0.0
 10
400.4092
 20
71.5806
 30
0.0
 10
397.4294
 20
71.5806
 30
0.0
 10
397.4294
 20
71.5806
 30
0.0
 10
394.4496
 20
71.5806
 30
0.0
 10
392.034
 20
69.1931
 30
0.0
 10
392.034
 20
66.248
 30
0.0
 10
392.034
 20
66.248
 30
0.0
 10
392.034
 20
63.3029
 30
0.0
 10
394.4496
 20
60.9154
 30
0.0
 10
397.4294
 20
60.9154
 30
0.0
 10
397.4294
 20
60.9154
 30
0.0
 10
400.4092
 20
60.9154
 30
0.0
 10
402.8248
 20
63.3029
 30
0.0
 10
402.8248
 20
66.248
 30
0.0
  0
SPLINE
  5
A4
330
1F
100
AcDbEntity
  8
Layer 1
 62
   250
370
     9
100
AcDbSpline
210
0.0
220
0.0
230
1.0
 70
    11
 71
     3
 72
    20
 73
    16
 74
     0
 42
0.0000000001
 43
0.0000000001
 12
1.0
 22
0.0
 32
0.0
 13
1.0
 23
0.0
 33
0.0
 40
0.0
 40
0.0
 40
0.0
 40
0.0
 40
0.2
 40
0.2
 40
0.2
 40
0.2
 40
0.4
 40
0.4
 40
0.4
 40
0.4
 40
0.6
 40
0.6
 40
0.6
 40
0.6
 40
1.0
 40
1.0
 40
1.0
 40
1.0
 10
402.8248
 20
66.248
 30
0.0
 10
402.8248
 20
69.1931
 30
0.0
 10
400.4092
 20
71.5806
 30
0.0
 10
397.4294
 20
71.5806
 30
0.0
 10
397.4294
 20
71.5806
 30
0.0
 10
394.4496
 20
71.5806
 30
0.0
 10
392.034
 20
69.1931
 30
0.0
 10
392.034
 20
66.248
 30
0.0
 10
392.034
 20
66.248
 30
0.0
 10
392.034
 20
63.3029
 30
0.0
 10
394.4496
 20
60.9154
 30
0.0
 10
397.4294
 20
60.9154
 30
0.0
 10
397.4294
 20
60.9154
 30
0.0
 10
400.4092
 20
60.9154
 30
0.0
 10
402.8248
 20
63.3029
 30
0.0
 10
402.8248
 20
66.248
 30
0.0
  0
SPLINE
  5
A5
330
1F
100
AcDbEntity
  8
Layer 1
 62
   250
370
     9
100
AcDbSpline
210
0.0
220
0.0
230
1.0
 70
    11
 71
     3
 72
    20
 73
    16
 74
     0
 42
0.0000000001
 43
0.0000000001
 12
1.0
 22
0.0
 32
0.0
 13
1.0
 23
0.0
 33
0.0
 40
0.0
 40
0.0
 40
0.0
 40
0.0
 40
0.2
 40
0.2
 40
0.2
 40
0.2
 40
0.4
 40
0.4
 40
0.4
 40
0.4
 40
0.6
 40
0.6
 40
0.6
 40
0.6
 40
1.0
 40
1.0
 40
1.0
 40
1.0
 10
402.8248
 20
66.248
 30
0.0
 10
402.8248
 20
69.1931
 30
0.0
 10
400.4092
 20
71.5806
 30
0.0
 10
397.4294
 20
71.5806
 30
0.0
 10
397.4294
 20
71.5806
 30
0.0
 10
394.4496
 20
71.5806
 30
0.0
 10
392.034
 20
69.1931
 30
0.0
 10
392.034
 20
66.248
 30
0.0
 10
392.034
 20
66.248
 30
0.0
 10
392.034
 20
63.3029
 30
0.0
 10
394.4496
 20
60.9154
 30
0.0
 10
397.4294
 20
60.9154
 30
0.0
 10
397.4294
 20
60.9154
 30
0.0
 10
400.4092
 20
60.9154
 30
0.0
 10
402.8248
 20
63.3029
 30
0.0
 10
402.8248
 20
66.248
 30
0.0
  0
SPLINE
  5
A6
330
1F
100
AcDbEntity
  8
Layer 1
 62
   250
370
     9
100
AcDbSpline
210
0.0
220
0.0
230
1.0
 70
    11
 71
     3
 72
    20
 73
    16
 74
     0
 42
0.0000000001
 43
0.0000000001
 12
1.0
 22
0.0
 32
0.0
 13
1.0
 23
0.0
 33
0.0
 40
0.0
 40
0.0
 40
0.0
 40
0.0
 40
0.2
 40
0.2
 40
0.2
 40
0.2
 40
0.4
 40
0.4
 40
0.4
 40
0.4
 40
0.6
 40
0.6
 40
0.6
 40
0.6
 40
1.0
 40
1.0
 40
1.0
 40
1.0
 10
402.8248
 20
66.248
 30
0.0
 10
402.8248
 20
69.1931
 30
0.0
 10
400.4092
 20
71.5806
 30
0.0
 10
397.4294
 20
71.5806
 30
0.0
 10
397.4294
 20
71.5806
 30
0.0
 10
394.4496
 20
71.5806
 30
0.0
 10
392.034
 20
69.1931
 30
0.0
 10
392.034
 20
66.248
 30
0.0
 10
392.034
 20
66.248
 30
0.0
 10
392.034
 20
63.3029
 30
0.0
 10
394.4496
 20
60.9154
 30
0.0
 10
397.4294
 20
60.9154
 30
0.0
 10
397.4294
 20
60.9154
 30
0.0
 10
400.4092
 20
60.9154
 30
0.0
 10
402.8248
 20
63.3029
 30
0.0
 10
402.8248
 20
66.248
 30
0.0
  0
SPLINE
  5
A7
330
1F
100
AcDbEntity
  8
Layer 1
 62
   250
370
     9
100
AcDbSpline
210
0.0
220
0.0
230
1.0
 70
    11
 71
     3
 72
    20
 73
    16
 74
     0
 42
0.0000000001
 43
0.0000000001
 12
1.0
 22
0.0
 32
0.0
 13
1.0
 23
0.0
 33
0.0
 40
0.0
 40
0.0
 40
0.0
 40
0.0
 40
0.2
 40
0.2
 40
0.2
 40
0.2
 40
0.4
 40
0.4
 40
0.4
 40
0.4
 40
0.6
 40
0.6
 40
0.6
 40
0.6
 40
1.0
 40
1.0
 40
1.0
 40
1.0
 10
402.8248
 20
66.248
 30
0.0
 10
402.8248
 20
69.1931
 30
0.0
 10
400.4092
 20
71.5806
 30
0.0
 10
397.4294
 20
71.5806
 30
0.0
 10
397.4294
 20
71.5806
 30
0.0
 10
394.4496
 20
71.5806
 30
0.0
 10
392.034
 20
69.1931
 30
0.0
 10
392.034
 20
66.248
 30
0.0
 10
392.034
 20
66.248
 30
0.0
 10
392.034
 20
63.3029
 30
0.0
 10
394.4496
 20
60.9154
 30
0.0
 10
397.4294
 20
60.9154
 30
0.0
 10
397.4294
 20
60.9154
 30
0.0
 10
400.4092
 20
60.9154
 30
0.0
 10
402.8248
 20
63.3029
 30
0.0
 10
402.8248
 20
66.248
 30
0.0
  0
SPLINE
  5
A8
330
1F
100
AcDbEntity
  8
Layer 1
 62
   250
370
     9
100
AcDbSpline
210
0.0
220
0.0
230
1.0
 70
    11
 71
     3
 72
    20
 73
    16
 74
     0
 42
0.0000000001
 43
0.0000000001
 12
1.0
 22
0.0
 32
0.0
 13
1.0
 23
0.0
 33
0.0
 40
0.0
 40
0.0
 40
0.0
 40
0.0
 40
0.2
 40
0.2
 40
0.2
 40
0.2
 40
0.4
 40
0.4
 40
0.4
 40
0.4
 40
0.6
 40
0.6
 40
0.6
 40
0.6
 40
1.0
 40
1.0
 40
1.0
 40
1.0
 10
402.8248
 20
66.248
 30
0.0
 10
402.8248
 20
69.1931
 30
0.0
 10
400.4092
 20
71.5806
 30
0.0
 10
397.4294
 20
71.5806
 30
0.0
 10
397.4294
 20
71.5806
 30
0.0
 10
394.4496
 20
71.5806
 30
0.0
 10
392.034
 20
69.1931
 30
0.0
 10
392.034
 20
66.248
 30
0.0
 10
392.034
 20
66.248
 30
0.0
 10
392.034
 20
63.3029
 30
0.0
 10
394.4496
 20
60.9154
 30
0.0
 10
397.4294
 20
60.9154
 30
0.0
 10
397.4294
 20
60.9154
 30
0.0
 10
400.4092
 20
60.9154
 30
0.0
 10
402.8248
 20
63.3029
 30
0.0
 10
402.8248
 20
66.248
 30
0.0
  0
SPLINE
  5
A9
330
1F
100
AcDbEntity
  8
Layer 1
 62
   250
370
     9
100
AcDbSpline
210
0.0
220
0.0
230
1.0
 70
    11
 71
     3
 72
    20
 73
    16
 74
     0
 42
0.0000000001
 43
0.0000000001
 12
1.0
 22
0.0
 32
0.0
 13
1.0
 23
0.0
 33
0.0
 40
0.0
 40
0.0
 40
0.0
 40
0.0
 40
0.2
 40
0.2
 40
0.2
 40
0.2
 40
0.4
 40
0.4
 40
0.4
 40
0.4
 40
0.6
 40
0.6
 40
0.6
 40
0.6
 40
1.0
 40
1.0
 40
1.0
 40
1.0
 10
402.8248
 20
66.248
 30
0.0
 10
402.8248
 20
69.1931
 30
0.0
 10
400.4092
 20
71.5806
 30
0.0
 10
397.4294
 20
71.5806
 30
0.0
 10
397.4294
 20
71.5806
 30
0.0
 10
394.4496
 20
71.5806
 30
0.0
 10
392.034
 20
69.1931
 30
0.0
 10
392.034
 20
66.248
 30
0.0
 10
392.034
 20
66.248
 30
0.0
 10
392.034
 20
63.3029
 30
0.0
 10
394.4496
 20
60.9154
 30
0.0
 10
397.4294
 20
60.9154
 30
0.0
 10
397.4294
 20
60.9154
 30
0.0
 10
400.4092
 20
60.9154
 30
0.0
 10
402.8248
 20
63.3029
 30
0.0
 10
402.8248
 20
66.248
 30
0.0
  0
SPLINE
  5
AA
330
1F
100
AcDbEntity
  8
Layer 1
 62
   250
370
     9
100
AcDbSpline
210
0.0
220
0.0
230
1.0
 70
    11
 71
     3
 72
    20
 73
    16
 74
     0
 42
0.0000000001
 43
0.0000000001
 12
1.0
 22
0.0
 32
0.0
 13
1.0
 23
0.0
 33
0.0
 40
0.0
 40
0.0
 40
0.0
 40
0.0
 40
0.2
 40
0.2
 40
0.2
 40
0.2
 40
0.4
 40
0.4
 40
0.4
 40
0.4
 40
0.6
 40
0.6
 40
0.6
 40
0.6
 40
1.0
 40
1.0
 40
1.0
 40
1.0
 10
402.8248
 20
66.248
 30
0.0
 10
402.8248
 20
69.1931
 30
0.0
 10
400.4092
 20
71.5806
 30
0.0
 10
397.4294
 20
71.5806
 30
0.0
 10
397.4294
 20
71.5806
 30
0.0
 10
394.4496
 20
71.5806
 30
0.0
 10
392.034
 20
69.1931
 30
0.0
 10
392.034
 20
66.248
 30
0.0
 10
392.034
 20
66.248
 30
0.0
 10
392.034
 20
63.3029
 30
0.0
 10
394.4496
 20
60.9154
 30
0.0
 10
397.4294
 20
60.9154
 30
0.0
 10
397.4294
 20
60.9154
 30
0.0
 10
400.4092
 20
60.9154
 30
0.0
 10
402.8248
 20
63.3029
 30
0.0
 10
402.8248
 20
66.248
 30
0.0
  0
SPLINE
  5
AB
330
1F
100
AcDbEntity
  8
Layer 1
 62
   250
370
     9
100
AcDbSpline
210
0.0
220
0.0
230
1.0
 70
    11
 71
     3
 72
    20
 73
    16
 74
     0
 42
0.0000000001
 43
0.0000000001
 12
1.0
 22
0.0
 32
0.0
 13
1.0
 23
0.0
 33
0.0
 40
0.0
 40
0.0
 40
0.0
 40
0.0
 40
0.2
 40
0.2
 40
0.2
 40
0.2
 40
0.4
 40
0.4
 40
0.4
 40
0.4
 40
0.6
 40
0.6
 40
0.6
 40
0.6
 40
1.0
 40
1.0
 40
1.0
 40
1.0
 10
402.8248
 20
66.248
 30
0.0
 10
402.8248
 20
69.1931
 30
0.0
 10
400.4092
 20
71.5806
 30
0.0
 10
397.4294
 20
71.5806
 30
0.0
 10
397.4294
 20
71.5806
 30
0.0
 10
394.4496
 20
71.5806
 30
0.0
 10
392.034
 20
69.1931
 30
0.0
 10
392.034
 20
66.248
 30
0.0
 10
392.034
 20
66.248
 30
0.0
 10
392.034
 20
63.3029
 30
0.0
 10
394.4496
 20
60.9154
 30
0.0
 10
397.4294
 20
60.9154
 30
0.0
 10
397.4294
 20
60.9154
 30
0.0
 10
400.4092
 20
60.9154
 30
0.0
 10
402.8248
 20
63.3029
 30
0.0
 10
402.8248
 20
66.248
 30
0.0
  0
SPLINE
  5
AC
330
1F
100
AcDbEntity
  8
Layer 1
 62
   250
370
     9
100
AcDbSpline
210
0.0
220
0.0
230
1.0
 70
    11
 71
     3
 72
    20
 73
    16
 74
     0
 42
0.0000000001
 43
0.0000000001
 12
1.0
 22
0.0
 32
0.0
 13
1.0
 23
0.0
 33
0.0
 40
0.0
 40
0.0
 40
0.0
 40
0.0
 40
0.2
 40
0.2
 40
0.2
 40
0.2
 40
0.4
 40
0.4
 40
0.4
 40
0.4
 40
0.6
 40
0.6
 40
0.6
 40
0.6
 40
1.0
 40
1.0
 40
1.0
 40
1.0
 10
402.8248
 20
66.248
 30
0.0
 10
402.8248
 20
69.1931
 30
0.0
 10
400.4092
 20
71.5806
 30
0.0
 10
397.4294
 20
71.5806
 30
0.0
 10
397.4294
 20
71.5806
 30
0.0
 10
394.4496
 20
71.5806
 30
0.0
 10
392.034
 20
69.1931
 30
0.0
 10
392.034
 20
66.248
 30
0.0
 10
392.034
 20
66.248
 30
0.0
 10
392.034
 20
63.3029
 30
0.0
 10
394.4496
 20
60.9154
 30
0.0
 10
397.4294
 20
60.9154
 30
0.0
 10
397.4294
 20
60.9154
 30
0.0
 10
400.4092
 20
60.9154
 30
0.0
 10
402.8248
 20
63.3029
 30
0.0
 10
402.8248
 20
66.248
 30
0.0
  0
SPLINE
  5
AD
330
1F
100
AcDbEntity
  8
Layer 1
 62
   250
370
     9
100
AcDbSpline
210
0.0
220
0.0
230
1.0
 70
    11
 71
     3
 72
    20
 73
    16
 74
     0
 42
0.0000000001
 43
0.0000000001
 12
1.0
 22
0.0
 32
0.0
 13
1.0
 23
0.0
 33
0.0
 40
0.0
 40
0.0
 40
0.0
 40
0.0
 40
0.2
 40
0.2
 40
0.2
 40
0.2
 40
0.4
 40
0.4
 40
0.4
 40
0.4
 40
0.6
 40
0.6
 40
0.6
 40
0.6
 40
1.0
 40
1.0
 40
1.0
 40
1.0
 10
402.8248
 20
66.248
 30
0.0
 10
402.8248
 20
69.1931
 30
0.0
 10
400.4092
 20
71.5806
 30
0.0
 10
397.4294
 20
71.5806
 30
0.0
 10
397.4294
 20
71.5806
 30
0.0
 10
394.4496
 20
71.5806
 30
0.0
 10
392.034
 20
69.1931
 30
0.0
 10
392.034
 20
66.248
 30
0.0
 10
392.034
 20
66.248
 30
0.0
 10
392.034
 20
63.3029
 30
0.0
 10
394.4496
 20
60.9154
 30
0.0
 10
397.4294
 20
60.9154
 30
0.0
 10
397.4294
 20
60.9154
 30
0.0
 10
400.4092
 20
60.9154
 30
0.0
 10
402.8248
 20
63.3029
 30
0.0
 10
402.8248
 20
66.248
 30
0.0
  0
SPLINE
  5
AE
330
1F
100
AcDbEntity
  8
Layer 1
 62
   250
370
     9
100
AcDbSpline
210
0.0
220
0.0
230
1.0
 70
    11
 71
     3
 72
    20
 73
    16
 74
     0
 42
0.0000000001
 43
0.0000000001
 12
1.0
 22
0.0
 32
0.0
 13
1.0
 23
0.0
 33
0.0
 40
0.0
 40
0.0
 40
0.0
 40
0.0
 40
0.2
 40
0.2
 40
0.2
 40
0.2
 40
0.4
 40
0.4
 40
0.4
 40
0.4
 40
0.6
 40
0.6
 40
0.6
 40
0.6
 40
1.0
 40
1.0
 40
1.0
 40
1.0
 10
402.8248
 20
66.248
 30
0.0
 10
402.8248
 20
69.1931
 30
0.0
 10
400.4092
 20
71.5806
 30
0.0
 10
397.4294
 20
71.5806
 30
0.0
 10
397.4294
 20
71.5806
 30
0.0
 10
394.4496
 20
71.5806
 30
0.0
 10
392.034
 20
69.1931
 30
0.0
 10
392.034
 20
66.248
 30
0.0
 10
392.034
 20
66.248
 30
0.0
 10
392.034
 20
63.3029
 30
0.0
 10
394.4496
 20
60.9154
 30
0.0
 10
397.4294
 20
60.9154
 30
0.0
 10
397.4294
 20
60.9154
 30
0.0
 10
400.4092
 20
60.9154
 30
0.0
 10
402.8248
 20
63.3029
 30
0.0
 10
402.8248
 20
66.248
 30
0.0
  0
SPLINE
  5
AF
330
1F
100
AcDbEntity
  8
Layer 1
 62
   250
370
     9
100
AcDbSpline
210
0.0
220
0.0
230
1.0
 70
    11
 71
     3
 72
    20
 73
    16
 74
     0
 42
0.0000000001
 43
0.0000000001
 12
1.0
 22
0.0
 32
0.0
 13
1.0
 23
0.0
 33
0.0
 40
0.0
 40
0.0
 40
0.0
 40
0.0
 40
0.2
 40
0.2
 40
0.2
 40
0.2
 40
0.4
 40
0.4
 40
0.4
 40
0.4
 40
0.6
 40
0.6
 40
0.6
 40
0.6
 40
1.0
 40
1.0
 40
1.0
 40
1.0
 10
402.8248
 20
66.248
 30
0.0
 10
402.8248
 20
69.1931
 30
0.0
 10
400.4092
 20
71.5806
 30
0.0
 10
397.4294
 20
71.5806
 30
0.0
 10
397.4294
 20
71.5806
 30
0.0
 10
394.4496
 20
71.5806
 30
0.0
 10
392.034
 20
69.1931
 30
0.0
 10
392.034
 20
66.248
 30
0.0
 10
392.034
 20
66.248
 30
0.0
 10
392.034
 20
63.3029
 30
0.0
 10
394.4496
 20
60.9154
 30
0.0
 10
397.4294
 20
60.9154
 30
0.0
 10
397.4294
 20
60.9154
 30
0.0
 10
400.4092
 20
60.9154
 30
0.0
 10
402.8248
 20
63.3029
 30
0.0
 10
402.8248
 20
66.248
 30
0.0
  0
SPLINE
  5
B0
330
1F
100
AcDbEntity
  8
Layer 1
 62
   250
370
     9
100
AcDbSpline
210
0.0
220
0.0
230
1.0
 70
    24
 71
     3
 72
     8
 73
     4
 74
     0
 42
0.0000000001
 43
0.0000000001
 12
1.0
 22
0.0
 32
0.0
 13
1.0
 23
0.0
 33
0.0
 40
0.0
 40
0.0
 40
0.0
 40
0.0
 40
1.0
 40
1.0
 40
1.0
 40
1.0
 10
291.1582
 20
93.9213
 30
0.0
 10
291.1582
 20
93.9213
 30
0.0
 10
322.2606
 20
93.9213
 30
0.0
 10
322.2606
 20
93.9213
 30
0.0
  0
SPLINE
  5
B1
330
1F
100
AcDbEntity
  8
Layer 1
 62
   250
370
     9
100
AcDbSpline
210
0.0
220
0.0
230
1.0
 70
    24
 71
     3
 72
     8
 73
     4
 74
     0
 42
0.0000000001
 43
0.0000000001
 12
1.0
 22
0.0
 32
0.0
 13
1.0
 23
0.0
 33
0.0
 40
0.0
 40
0.0
 40
0.0
 40
0.0
 40
1.0
 40
1.0
 40
1.0
 40
1.0
 10
291.3375
 20
85.8986
 30
0.0
 10
291.3375
 20
85.8986
 30
0.0
 10
305.7475
 20
85.8986
 30
0.0
 10
305.7475
 20
85.8986
 30
0.0
  0
SPLINE
  5
B2
330
1F
100
AcDbEntity
  8
Layer 1
 62
   250
370
     9
100
AcDbSpline
210
0.0
220
0.0
230
1.0
 70
    24
 71
     3
 72
     8
 73
     4
 74
     0
 42
0.0000000001
 43
0.0000000001
 12
1.0
 22
0.0
 32
0.0
 13
1.0
 23
0.0
 33
0.0
 40
0.0
 40
0.0
 40
0.0
 40
0.0
 40
1.0
 40
1.0
 40
1.0
 40
1.0
 10
313.6601
 20
85.8986
 30
0.0
 10
313.6601
 20
85.8986
 30
0.0
 10
401.404
 20
85.8986
 30
0.0
 10
401.404
 20
85.8986
 30
0.0
  0
SPLINE
  5
B3
330
1F
100
AcDbEntity
  8
Layer 1
 62
   250
370
     9
100
AcDbSpline
210
0.0
220
0.0
230
1.0
 70
    24
 71
     3
 72
     8
 73
     4
 74
     0
 42
0.0000000001
 43
0.0000000001
 12
1.0
 22
0.0
 32
0.0
 13
1.0
 23
0.0
 33
0.0
 40
0.0
 40
0.0
 40
0.0
 40
0.0
 40
1.0
 40
1.0
 40
1.0
 40
1.0
 10
278.3967
 20
86.5324
 30
0.0
 10
278.3967
 20
86.5324
 30
0.0
 10
268.9486
 20
94.1435
 30
0.0
 10
268.9486
 20
94.1435
 30
0.0
  0
ENDSEC
  0
SECTION
  2
OBJECTS
  0
DICTIONARY
  5
C
330
0
100
AcDbDictionary
281
     1
  3
ACAD_GROUP
350
D
  3
ACAD_LAYOUT
350
1A
  3
ACAD_MATERIAL
350
3B
  3
ACAD_MLEADERSTYLE
350
D5
  3
ACAD_MLINESTYLE
350
17
  3
ACAD_PLOTSETTINGS
350
19
  3
ACAD_PLOTSTYLENAME
350
E
  3
ACAD_TABLESTYLE
350
D4
  3
ACAD_VISUALSTYLE
350
2A
  0
DICTIONARY
  5
D
102
{ACAD_REACTORS
330
C
102
}
330
C
100
AcDbDictionary
281
     1
  0
DICTIONARY
  5
1A
102
{ACAD_REACTORS
330
C
102
}
330
C
100
AcDbDictionary
281
     1
  3
Layout1
350
1E
  3
Layout2
350
26
  3
Model
350
22
  0
DICTIONARY
  5
3B
102
{ACAD_REACTORS
330
C
102
}
330
C
100
AcDbDictionary
281
     1
  3
ByBlock
350
3D
  3
ByLayer
350
3C
  3
Global
350
3E
  0
DICTIONARY
  5
D5
102
{ACAD_REACTORS
330
C
102
}
330
C
100
AcDbDictionary
281
     1
  0
DICTIONARY
  5
17
102
{ACAD_REACTORS
330
C
102
}
330
C
100
AcDbDictionary
281
     1
  3
Standard
350
18
  0
DICTIONARY
  5
19
102
{ACAD_REACTORS
330
C
102
}
330
C
100
AcDbDictionary
281
     1
  0
ACDBDICTIONARYWDFLT
  5
E
102
{ACAD_REACTORS
330
C
102
}
330
C
100
AcDbDictionary
281
     1
  3
Normal
350
F
100
AcDbDictionaryWithDefault
340
F
  0
DICTIONARY
  5
D4
102
{ACAD_REACTORS
330
C
102
}
330
C
100
AcDbDictionary
281
     1
  0
DICTIONARY
  5
2A
102
{ACAD_REACTORS
330
C
102
}
330
C
100
AcDbDictionary
281
     1
  3
2dWireframe
350
2F
  3
3D Hidden
350
31
  3
3dWireframe
350
30
  3
Basic
350
32
  3
Brighten
350
36
  3
ColorChange
350
3A
  3
Conceptual
350
34
  3
Dim
350
35
  3
Facepattern
350
39
  3
Flat
350
2B
  3
FlatWithEdges
350
2C
  3
Gouraud
350
2D
  3
GouraudWithEdges
350
2E
  3
Linepattern
350
38
  3
Realistic
350
33
  3
Thicken
350
37
  0
LAYOUT
  5
1E
102
{ACAD_REACTORS
330
1A
102
}
330
1A
100
AcDbPlotSettings
  1

  2
none_device
  4

  6

 40
0.0
 41
0.0
 42
0.0
 43
0.0
 44
0.0
 45
0.0
 46
0.0
 47
0.0
 48
0.0
 49
0.0
140
0.0
141
0.0
142
1.0
143
1.0
 70
   688
 72
     0
 73
     0
 74
     5
  7

 75
    16
 76
     0
 77
     2
 78
   300
147
1.0
148
0.0
149
0.0
100
AcDbLayout
  1
Layout1
 70
     1
 71
     1
 10
0.0
 20
0.0
 11
12.0
 21
9.0
 12
0.0
 22
0.0
 32
0.0
 14
1.000000000000000E+20
 24
1.000000000000000E+20
 34
1.000000000000000E+20
 15
-1.000000000000000E+20
 25
-1.000000000000000E+20
 35
-1.000000000000000E+20
146
0.0
 13
0.0
 23
0.0
 33
0.0
 16
1.0
 26
0.0
 36
0.0
 17
0.0
 27
1.0
 37
0.0
 76
     0
330
1B
  0
LAYOUT
  5
26
102
{ACAD_REACTORS
330
1A
102
}
330
1A
100
AcDbPlotSettings
  1

  2
none_device
  4

  6

 40
0.0
 41
0.0
 42
0.0
 43
0.0
 44
0.0
 45
0.0
 46
0.0
 47
0.0
 48
0.0
 49
0.0
140
0.0
141
0.0
142
1.0
143
1.0
 70
   688
 72
     0
 73
     0
 74
     5
  7

 75
    16
 76
     0
 77
     2
 78
   300
147
1.0
148
0.0
149
0.0
100
AcDbLayout
  1
Layout2
 70
     1
 71
     2
 10
0.0
 20
0.0
 11
0.0
 21
0.0
 12
0.0
 22
0.0
 32
0.0
 14
0.0
 24
0.0
 34
0.0
 15
0.0
 25
0.0
 35
0.0
146
0.0
 13
0.0
 23
0.0
 33
0.0
 16
1.0
 26
0.0
 36
0.0
 17
0.0
 27
1.0
 37
0.0
 76
     0
330
23
  0
LAYOUT
  5
22
102
{ACAD_REACTORS
330
1A
102
}
330
1A
100
AcDbPlotSettings
  1

  2
none_device
  4

  6

 40
0.0
 41
0.0
 42
0.0
 43
0.0
 44
0.0
 45
0.0
 46
0.0
 47
0.0
 48
0.0
 49
0.0
140
0.0
141
0.0
142
1.0
143
1.0
 70
  1712
 72
     0
 73
     0
 74
     0
  7

 75
     0
 76
     0
 77
     2
 78
   300
147
1.0
148
0.0
149
0.0
100
AcDbLayout
  1
Model
 70
     1
 71
     0
 10
0.0
 20
0.0
 11
12.0
 21
9.0
 12
0.0
 22
0.0
 32
0.0
 14
256.2541
 24
25.8449
 34
0.0
 15
421.4441
 25
155.2033
 35
0.0
146
0.0
 13
0.0
 23
0.0
 33
0.0
 16
1.0
 26
0.0
 36
0.0
 17
0.0
 27
1.0
 37
0.0
 76
     0
330
1F
331
29
  0
MATERIAL
  5
3D
102
{ACAD_REACTORS
330
3B
102
}
330
3B
100
AcDbMaterial
  1
ByBlock
 72
     1
 94
      127
  0
MATERIAL
  5
3C
102
{ACAD_REACTORS
330
3B
102
}
330
3B
100
AcDbMaterial
  1
ByLayer
 72
     1
 94
      127
  0
MATERIAL
  5
3E
102
{ACAD_REACTORS
330
3B
102
}
330
3B
100
AcDbMaterial
  1
Global
 72
     1
 94
      127
  0
MLINESTYLE
  5
18
102
{ACAD_REACTORS
330
17
102
}
330
17
100
AcDbMlineStyle
  2
Standard
 70
     0
  3

 62
   256
 51
90.0
 52
90.0
 71
     2
 49
0.5
 62
   256
  6
BYLAYER
 49
-0.5
 62
   256
  6
BYLAYER
  0
ACDBPLACEHOLDER
  5
F
102
{ACAD_REACTORS
330
E
102
}
330
E
  0
VISUALSTYLE
  5
2F
102
{ACAD_REACTORS
330
2A
102
}
102
{ACAD_XDICTIONARY
360
BC
102
}
330
2A
100
AcDbVisualStyle
  2
2dWireframe
 70
     4
 71
     0
 72
     2
 73
     0
 90
        0
 40
-0.6
 41
-30.0
 62
     5
 63
     7
421
 16777215
 74
     1
 91
        4
 64
     7
 65
   257
 75
     1
175
     1
 42
1.0
 92
        0
 66
   257
 43
1.0
 76
     1
 77
     6
 78
     2
 67
     7
 79
     5
170
     0
171
     0
290
     0
174
     0
 93
        1
 44
0.0
173
     0
291
     0
 45
0.0
  0
VISUALSTYLE
  5
31
102
{ACAD_REACTORS
330
2A
102
}
102
{ACAD_XDICTIONARY
360
C0
102
}
330
2A
100
AcDbVisualStyle
  2
3D Hidden
 70
     6
 71
     1
 72
     2
 73
     2
 90
        0
 40
-0.6
 41
-30.0
 62
     5
 63
     7
421
 16777215
 74
     2
 91
        2
 64
     7
 65
   257
 75
     2
175
     1
 42
40.0
 92
        0
 66
   257
 43
1.0
 76
     1
 77
     6
 78
     2
 67
     7
 79
     3
170
     0
171
     0
290
     0
174
     0
 93
        1
 44
0.0
173
     0
291
     0
 45
0.0
  0
VISUALSTYLE
  5
30
102
{ACAD_REACTORS
330
2A
102
}
102
{ACAD_XDICTIONARY
360
BE
102
}
330
2A
100
AcDbVisualStyle
  2
3dWireframe
 70
     5
 71
     0
 72
     2
 73
     0
 90
        0
 40
-0.6
 41
-30.0
 62
     5
 63
     7
421
 16777215
 74
     1
 91
        4
 64
     7
 65
   257
 75
     1
175
     1
 42
1.0
 92
        0
 66
   257
 43
1.0
 76
     1
 77
     6
 78
     2
 67
     7
 79
     5
170
     0
171
     0
290
     0
174
     0
 93
        1
 44
0.0
173
     0
291
     0
 45
0.0
  0
VISUALSTYLE
  5
32
102
{ACAD_REACTORS
330
2A
102
}
102
{ACAD_XDICTIONARY
360
C2
102
}
330
2A
100
AcDbVisualStyle
  2
Basic
 70
     7
 71
     1
 72
     0
 73
     1
 90
        0
 40
-0.6
 41
-30.0
 62
     5
 63
     7
421
 16777215
 74
     0
 91
        4
 64
     7
 65
   257
 75
     1
175
     1
 42
1.0
 92
        8
 66
     7
 43
1.0
 76
     1
 77
     6
 78
     2
 67
     7
 79
     5
170
     0
171
     0
290
     0
174
     0
 93
        1
 44
0.0
173
     0
291
     1
 45
0.0
  0
VISUALSTYLE
  5
36
102
{ACAD_REACTORS
330
2A
102
}
102
{ACAD_XDICTIONARY
360
CA
102
}
330
2A
100
AcDbVisualStyle
  2
Brighten
 70
    12
 71
     2
 72
     2
 73
     0
 90
        0
 40
-0.6
 41
-30.0
 62
     5
 63
     7
421
 16777215
 74
     1
 91
        4
 64
     7
 65
   257
 75
     1
175
     1
 42
1.0
 92
        8
 66
     7
 43
1.0
 76
     1
 77
     6
 78
     2
 67
     7
 79
     5
170
     0
171
     0
290
     0
174
     0
 93
        1
 44
50.0
173
     0
291
     1
 45
0.0
  0
VISUALSTYLE
  5
3A
102
{ACAD_REACTORS
330
2A
102
}
102
{ACAD_XDICTIONARY
360
D2
102
}
330
2A
100
AcDbVisualStyle
  2
ColorChange
 70
    16
 71
     2
 72
     2
 73
     3
 90
        0
 40
-0.6
 41
-30.0
 62
     5
 63
     8
421
  8421504
 74
     1
 91
        4
 64
     7
 65
   257
 75
     1
175
     1
 42
1.0
 92
        8
 66
     8
424
  8421504
 43
1.0
 76
     1
 77
     6
 78
     2
 67
     7
 79
     5
170
     0
171
     0
290
     0
174
     0
 93
        1
 44
0.0
173
     0
291
     1
 45
0.0
  0
VISUALSTYLE
  5
34
102
{ACAD_REACTORS
330
2A
102
}
102
{ACAD_XDICTIONARY
360
C6
102
}
330
2A
100
AcDbVisualStyle
  2
Conceptual
 70
     9
 71
     3
 72
     2
 73
     0
 90
        0
 40
-0.6
 41
-30.0
 62
     5
 63
     7
421
 16777215
 74
     2
 91
        2
 64
     7
 65
   257
 75
     1
175
     1
 42
40.0
 92
        8
 66
     7
 43
1.0
 76
     1
 77
     6
 78
     2
 67
     7
 79
     3
170
     0
171
     0
290
     0
174
     0
 93
        1
 44
0.0
173
     0
291
     0
 45
0.0
  0
VISUALSTYLE
  5
35
102
{ACAD_REACTORS
330
2A
102
}
102
{ACAD_XDICTIONARY
360
C8
102
}
330
2A
100
AcDbVisualStyle
  2
Dim
 70
    11
 71
     2
 72
     2
 73
     0
 90
        0
 40
-0.6
 41
-30.0
 62
     5
 63
     7
421
 16777215
 74
     1
 91
        4
 64
     7
 65
   257
 75
     1
175
     1
 42
1.0
 92
        8
 66
     7
 43
1.0
 76
     1
 77
     6
 78
     2
 67
     7
 79
     5
170
     0
171
     0
290
     0
174
     0
 93
        1
 44
-50.0
173
     0
291
     1
 45
0.0
  0
VISUALSTYLE
  5
39
102
{ACAD_REACTORS
330
2A
102
}
102
{ACAD_XDICTIONARY
360
D0
102
}
330
2A
100
AcDbVisualStyle
  2
Facepattern
 70
    15
 71
     2
 72
     2
 73
     0
 90
        0
 40
-0.6
 41
-30.0
 62
     5
 63
     7
421
 16777215
 74
     1
 91
        4
 64
     7
 65
   257
 75
     1
175
     1
 42
1.0
 92
        8
 66
     7
 43
1.0
 76
     1
 77
     6
 78
     2
 67
     7
 79
     5
170
     0
171
     0
290
     0
174
     0
 93
        1
 44
0.0
173
     0
291
     1
 45
0.0
  0
VISUALSTYLE
  5
2B
102
{ACAD_REACTORS
330
2A
102
}
102
{ACAD_XDICTIONARY
360
B4
102
}
330
2A
100
AcDbVisualStyle
  2
Flat
 70
     0
 71
     2
 72
     1
 73
     1
 90
        2
 40
-0.6
 41
30.0
 62
     5
 63
     7
421
 16777215
 74
     0
 91
        4
 64
     7
 65
   257
 75
     1
175
     1
 42
1.0
 92
        8
 66
     7
 43
1.0
 76
     1
 77
     6
 78
     2
 67
     7
 79
     5
170
     0
171
     0
290
     0
174
     0
 93
       13
 44
0.0
173
     0
291
     1
 45
0.0
  0
VISUALSTYLE
  5
2C
102
{ACAD_REACTORS
330
2A
102
}
102
{ACAD_XDICTIONARY
360
B6
102
}
330
2A
100
AcDbVisualStyle
  2
FlatWithEdges
 70
     1
 71
     2
 72
     1
 73
     1
 90
        2
 40
-0.6
 41
30.0
 62
     5
 63
     7
421
 16777215
 74
     1
 91
        4
 64
     7
 65
   257
 75
     1
175
     1
 42
1.0
 92
        0
 66
   257
 43
1.0
 76
     1
 77
     6
 78
     2
 67
     7
 79
     5
170
     0
171
     0
290
     0
174
     0
 93
       13
 44
0.0
173
     0
291
     1
 45
0.0
  0
VISUALSTYLE
  5
2D
102
{ACAD_REACTORS
330
2A
102
}
102
{ACAD_XDICTIONARY
360
B8
102
}
330
2A
100
AcDbVisualStyle
  2
Gouraud
 70
     2
 71
     2
 72
     2
 73
     1
 90
        2
 40
-0.6
 41
30.0
 62
     5
 63
     7
421
 16777215
 74
     0
 91
        4
 64
     7
 65
   257
 75
     1
175
     1
 42
1.0
 92
        0
 66
     7
 43
1.0
 76
     1
 77
     6
 78
     2
 67
     7
 79
     5
170
     0
171
     0
290
     0
174
     0
 93
       13
 44
0.0
173
     0
291
     1
 45
0.0
  0
VISUALSTYLE
  5
2E
102
{ACAD_REACTORS
330
2A
102
}
102
{ACAD_XDICTIONARY
360
BA
102
}
330
2A
100
AcDbVisualStyle
  2
GouraudWithEdges
 70
     3
 71
     2
 72
     2
 73
     1
 90
        2
 40
-0.6
 41
30.0
 62
     5
 63
     7
421
 16777215
 74
     1
 91
        4
 64
     7
 65
   257
 75
     1
175
     1
 42
1.0
 92
        0
 66
   257
 43
1.0
 76
     1
 77
     6
 78
     2
 67
     7
 79
     5
170
     0
171
     0
290
     0
174
     0
 93
       13
 44
0.0
173
     0
291
     1
 45
0.0
  0
VISUALSTYLE
  5
38
102
{ACAD_REACTORS
330
2A
102
}
102
{ACAD_XDICTIONARY
360
CE
102
}
330
2A
100
AcDbVisualStyle
  2
Linepattern
 70
    14
 71
     2
 72
     2
 73
     0
 90
        0
 40
-0.6
 41
-30.0
 62
     5
 63
     7
421
 16777215
 74
     1
 91
        4
 64
     7
 65
   257
 75
     7
175
     7
 42
1.0
 92
        8
 66
     7
 43
1.0
 76
     1
 77
     6
 78
     2
 67
     7
 79
     5
170
     0
171
     0
290
     0
174
     0
 93
        1
 44
0.0
173
     0
291
     1
 45
0.0
  0
VISUALSTYLE
  5
33
102
{ACAD_REACTORS
330
2A
102
}
102
{ACAD_XDICTIONARY
360
C4
102
}
330
2A
100
AcDbVisualStyle
  2
Realistic
 70
     8
 71
     2
 72
     2
 73
     0
 90
        0
 40
-0.6
 41
-30.0
 62
     5
 63
     7
421
 16777215
 74
     1
 91
        0
 64
     7
 65
   257
 75
     1
175
     1
 42
1.0
 92
        8
 66
     8
424
  7895160
 43
1.0
 76
     1
 77
     6
 78
     2
 67
     7
 79
     5
170
     0
171
     0
290
     0
174
     0
 93
       13
 44
0.0
173
     0
291
     0
 45
0.0
  0
VISUALSTYLE
  5
37
102
{ACAD_REACTORS
330
2A
102
}
102
{ACAD_XDICTIONARY
360
CC
102
}
330
2A
100
AcDbVisualStyle
  2
Thicken
 70
    13
 71
     2
 72
     2
 73
     0
 90
        0
 40
-0.6
 41
-30.0
 62
     5
 63
     7
421
 16777215
 74
     1
 91
        4
 64
     7
 65
   257
 75
     1
175
     1
 42
1.0
 92
       12
 66
     7
 43
1.0
 76
     1
 77
     6
 78
     2
 67
     7
 79
     5
170
     0
171
     0
290
     0
174
     0
 93
        1
 44
0.0
173
     0
291
     1
 45
0.0
  0
DICTIONARY
  5
BC
330
2F
100
AcDbDictionary
280
     1
281
     1
  3
ACAD_XREC_ROUNDTRIP
360
BD
  0
DICTIONARY
  5
C0
330
31
100
AcDbDictionary
280
     1
281
     1
  3
ACAD_XREC_ROUNDTRIP
360
C1
  0
DICTIONARY
  5
BE
330
30
100
AcDbDictionary
280
     1
281
     1
  3
ACAD_XREC_ROUNDTRIP
360
BF
  0
DICTIONARY
  5
C2
330
32
100
AcDbDictionary
280
     1
281
     1
  3
ACAD_XREC_ROUNDTRIP
360
C3
  0
DICTIONARY
  5
CA
330
36
100
AcDbDictionary
280
     1
281
     1
  3
ACAD_XREC_ROUNDTRIP
360
CB
  0
DICTIONARY
  5
D2
330
3A
100
AcDbDictionary
280
     1
281
     1
  3
ACAD_XREC_ROUNDTRIP
360
D3
  0
DICTIONARY
  5
C6
330
34
100
AcDbDictionary
280
     1
281
     1
  3
ACAD_XREC_ROUNDTRIP
360
C7
  0
DICTIONARY
  5
C8
330
35
100
AcDbDictionary
280
     1
281
     1
  3
ACAD_XREC_ROUNDTRIP
360
C9
  0
DICTIONARY
  5
D0
330
39
100
AcDbDictionary
280
     1
281
     1
  3
ACAD_XREC_ROUNDTRIP
360
D1
  0
DICTIONARY
  5
B4
330
2B
100
AcDbDictionary
280
     1
281
     1
  3
ACAD_XREC_ROUNDTRIP
360
B5
  0
DICTIONARY
  5
B6
330
2C
100
AcDbDictionary
280
     1
281
     1
  3
ACAD_XREC_ROUNDTRIP
360
B7
  0
DICTIONARY
  5
B8
330
2D
100
AcDbDictionary
280
     1
281
     1
  3
ACAD_XREC_ROUNDTRIP
360
B9
  0
DICTIONARY
  5
BA
330
2E
100
AcDbDictionary
280
     1
281
     1
  3
ACAD_XREC_ROUNDTRIP
360
BB
  0
DICTIONARY
  5
CE
330
38
100
AcDbDictionary
280
     1
281
     1
  3
ACAD_XREC_ROUNDTRIP
360
CF
  0
DICTIONARY
  5
C4
330
33
100
AcDbDictionary
280
     1
281
     1
  3
ACAD_XREC_ROUNDTRIP
360
C5
  0
DICTIONARY
  5
CC
330
37
100
AcDbDictionary
280
     1
281
     1
  3
ACAD_XREC_ROUNDTRIP
360
CD
  0
XRECORD
  5
BD
102
{ACAD_REACTORS
330
BC
102
}
330
BC
100
AcDbXrecord
280
     1
102
RTVSPropertyOp0
 70
     1
102
RTVSPropertyOp1
 70
     1
102
RTVSPropertyOp2
 70
     1
102
RTVSPropertyOp3
 70
     1
102
RTVSPropertyOp4
 70
     1
102
RTVSPropertyOp5
 70
     1
102
RTVSPropertyOp6
 70
     1
102
RTVSPropertyOp7
 70
     1
102
RTVSPropertyOp8
 70
     1
102
RTVSPropertyOp9
 70
     1
102
RTVSPropertyOp10
 70
     1
102
RTVSPropertyOp11
 70
     1
102
RTVSPropertyOp12
 70
     1
102
RTVSPropertyOp13
 70
     1
102
RTVSPropertyOp14
 70
     1
102
RTVSPropertyOp15
 70
     1
102
RTVSPropertyOp16
 70
     1
102
RTVSPropertyOp17
 70
     1
102
RTVSPropertyOp18
 70
     1
102
RTVSPropertyOp19
 70
     1
102
RTVSPropertyOp20
 70
     1
102
RTVSPropertyOp21
 70
     1
102
RTVSPropertyOp22
 70
     1
102
RTVSPropertyOp23
 70
     1
102
RTVSPropertyOp24
 70
     1
102
RTVSPropertyOp25
 70
     1
102
RTVSPropertyOp26
 70
     1
102
RTVSPropertyOp27
 70
     1
102
RTVSPropertyOp28
 70
     1
102
RTVSPropertyOp29
 70
     1
102
RTVSPropertyOp30
 70
     1
102
RTVSPropertyOp31
 70
     1
102
RTVSPropertyOp32
 70
     1
  0
XRECORD
  5
C1
102
{ACAD_REACTORS
330
C0
102
}
330
C0
100
AcDbXrecord
280
     1
102
RTVSPropertyOp0
 70
     1
102
RTVSPropertyOp1
 70
     1
102
RTVSPropertyOp2
 70
     1
102
RTVSPropertyOp3
 70
     1
102
RTVSPropertyOp4
 70
     1
102
RTVSPropertyOp5
 70
     1
102
RTVSPropertyOp6
 70
     1
102
RTVSPropertyOp7
 70
     1
102
RTVSPropertyOp8
 70
     1
102
RTVSPropertyOp9
 70
     1
102
RTVSPropertyOp10
 70
     1
102
RTVSPropertyOp11
 70
     1
102
RTVSPropertyOp12
 70
     1
102
RTVSPropertyOp13
 70
     1
102
RTVSPropertyOp14
 70
     1
102
RTVSPropertyOp15
 70
     1
102
RTVSPropertyOp16
 70
     1
102
RTVSPropertyOp17
 70
     1
102
RTVSPropertyOp18
 70
     1
102
RTVSPropertyOp19
 70
     1
102
RTVSPropertyOp20
 70
     1
102
RTVSPropertyOp21
 70
     1
102
RTVSPropertyOp22
 70
     1
102
RTVSPropertyOp23
 70
     1
102
RTVSPropertyOp24
 70
     1
102
RTVSPropertyOp25
 70
     1
102
RTVSPropertyOp26
 70
     1
102
RTVSPropertyOp27
 70
     1
102
RTVSPropertyOp28
 70
     1
102
RTVSPropertyOp29
 70
     1
102
RTVSPropertyOp30
 70
     1
102
RTVSPropertyOp31
 70
     1
102
RTVSPropertyOp32
 70
     1
  0
XRECORD
  5
BF
102
{ACAD_REACTORS
330
BE
102
}
330
BE
100
AcDbXrecord
280
     1
102
RTVSPropertyOp0
 70
     1
102
RTVSPropertyOp1
 70
     1
102
RTVSPropertyOp2
 70
     1
102
RTVSPropertyOp3
 70
     1
102
RTVSPropertyOp4
 70
     1
102
RTVSPropertyOp5
 70
     1
102
RTVSPropertyOp6
 70
     1
102
RTVSPropertyOp7
 70
     1
102
RTVSPropertyOp8
 70
     1
102
RTVSPropertyOp9
 70
     1
102
RTVSPropertyOp10
 70
     1
102
RTVSPropertyOp11
 70
     1
102
RTVSPropertyOp12
 70
     1
102
RTVSPropertyOp13
 70
     1
102
RTVSPropertyOp14
 70
     1
102
RTVSPropertyOp15
 70
     1
102
RTVSPropertyOp16
 70
     1
102
RTVSPropertyOp17
 70
     1
102
RTVSPropertyOp18
 70
     1
102
RTVSPropertyOp19
 70
     1
102
RTVSPropertyOp20
 70
     1
102
RTVSPropertyOp21
 70
     1
102
RTVSPropertyOp22
 70
     1
102
RTVSPropertyOp23
 70
     1
102
RTVSPropertyOp24
 70
     1
102
RTVSPropertyOp25
 70
     1
102
RTVSPropertyOp26
 70
     1
102
RTVSPropertyOp27
 70
     1
102
RTVSPropertyOp28
 70
     1
102
RTVSPropertyOp29
 70
     1
102
RTVSPropertyOp30
 70
     1
102
RTVSPropertyOp31
 70
     1
102
RTVSPropertyOp32
 70
     1
  0
XRECORD
  5
C3
102
{ACAD_REACTORS
330
C2
102
}
330
C2
100
AcDbXrecord
280
     1
102
RTVSPropertyOp0
 70
     1
102
RTVSPropertyOp1
 70
     1
102
RTVSPropertyOp2
 70
     1
102
RTVSPropertyOp3
 70
     1
102
RTVSPropertyOp4
 70
     1
102
RTVSPropertyOp5
 70
     1
102
RTVSPropertyOp6
 70
     1
102
RTVSPropertyOp7
 70
     1
102
RTVSPropertyOp8
 70
     1
102
RTVSPropertyOp9
 70
     1
102
RTVSPropertyOp10
 70
     1
102
RTVSPropertyOp11
 70
     1
102
RTVSPropertyOp12
 70
     1
102
RTVSPropertyOp13
 70
     1
102
RTVSPropertyOp14
 70
     1
102
RTVSPropertyOp15
 70
     1
102
RTVSPropertyOp16
 70
     1
102
RTVSPropertyOp17
 70
     1
102
RTVSPropertyOp18
 70
     1
102
RTVSPropertyOp19
 70
     1
102
RTVSPropertyOp20
 70
     1
102
RTVSPropertyOp21
 70
     1
102
RTVSPropertyOp22
 70
     1
102
RTVSPropertyOp23
 70
     1
102
RTVSPropertyOp24
 70
     1
102
RTVSPropertyOp25
 70
     1
102
RTVSPropertyOp26
 70
     1
102
RTVSPropertyOp27
 70
     1
102
RTVSPropertyOp28
 70
     1
102
RTVSPropertyOp29
 70
     1
102
RTVSPropertyOp30
 70
     1
102
RTVSPropertyOp31
 70
     1
102
RTVSPropertyOp32
 70
     1
  0
XRECORD
  5
CB
102
{ACAD_REACTORS
330
CA
102
}
330
CA
100
AcDbXrecord
280
     1
102
RTVSPropertyOp0
 70
     1
102
RTVSPropertyOp1
 70
     1
102
RTVSPropertyOp2
 70
     1
102
RTVSPropertyOp3
 70
     1
102
RTVSPropertyOp4
 70
     1
102
RTVSPropertyOp5
 70
     1
102
RTVSPropertyOp6
 70
     1
102
RTVSPropertyOp7
 70
     1
102
RTVSPropertyOp8
 70
     1
102
RTVSPropertyOp9
 70
     1
102
RTVSPropertyOp10
 70
     1
102
RTVSPropertyOp11
 70
     1
102
RTVSPropertyOp12
 70
     1
102
RTVSPropertyOp13
 70
     1
102
RTVSPropertyOp14
 70
     1
102
RTVSPropertyOp15
 70
     1
102
RTVSPropertyOp16
 70
     1
102
RTVSPropertyOp17
 70
     1
102
RTVSPropertyOp18
 70
     1
102
RTVSPropertyOp19
 70
     1
102
RTVSPropertyOp20
 70
     1
102
RTVSPropertyOp21
 70
     1
102
RTVSPropertyOp22
 70
     1
102
RTVSPropertyOp23
 70
     1
102
RTVSPropertyOp24
 70
     1
102
RTVSPropertyOp25
 70
     1
102
RTVSPropertyOp26
 70
     1
102
RTVSPropertyOp27
 70
     1
102
RTVSPropertyOp28
 70
     1
102
RTVSPropertyOp29
 70
     1
102
RTVSPropertyOp30
 70
     1
102
RTVSPropertyOp31
 70
     1
102
RTVSPropertyOp32
 70
     1
  0
XRECORD
  5
D3
102
{ACAD_REACTORS
330
D2
102
}
330
D2
100
AcDbXrecord
280
     1
102
RTVSPropertyOp0
 70
     1
102
RTVSPropertyOp1
 70
     1
102
RTVSPropertyOp2
 70
     1
102
RTVSPropertyOp3
 70
     1
102
RTVSPropertyOp4
 70
     1
102
RTVSPropertyOp5
 70
     1
102
RTVSPropertyOp6
 70
     1
102
RTVSPropertyOp7
 70
     1
102
RTVSPropertyOp8
 70
     1
102
RTVSPropertyOp9
 70
     1
102
RTVSPropertyOp10
 70
     1
102
RTVSPropertyOp11
 70
     1
102
RTVSPropertyOp12
 70
     1
102
RTVSPropertyOp13
 70
     1
102
RTVSPropertyOp14
 70
     1
102
RTVSPropertyOp15
 70
     1
102
RTVSPropertyOp16
 70
     1
102
RTVSPropertyOp17
 70
     1
102
RTVSPropertyOp18
 70
     1
102
RTVSPropertyOp19
 70
     1
102
RTVSPropertyOp20
 70
     1
102
RTVSPropertyOp21
 70
     1
102
RTVSPropertyOp22
 70
     1
102
RTVSPropertyOp23
 70
     1
102
RTVSPropertyOp24
 70
     1
102
RTVSPropertyOp25
 70
     1
102
RTVSPropertyOp26
 70
     1
102
RTVSPropertyOp27
 70
     1
102
RTVSPropertyOp28
 70
     1
102
RTVSPropertyOp29
 70
     1
102
RTVSPropertyOp30
 70
     1
102
RTVSPropertyOp31
 70
     1
102
RTVSPropertyOp32
 70
     1
  0
XRECORD
  5
C7
102
{ACAD_REACTORS
330
C6
102
}
330
C6
100
AcDbXrecord
280
     1
102
RTVSPropertyOp0
 70
     1
102
RTVSPropertyOp1
 70
     1
102
RTVSPropertyOp2
 70
     1
102
RTVSPropertyOp3
 70
     1
102
RTVSPropertyOp4
 70
     1
102
RTVSPropertyOp5
 70
     1
102
RTVSPropertyOp6
 70
     1
102
RTVSPropertyOp7
 70
     1
102
RTVSPropertyOp8
 70
     1
102
RTVSPropertyOp9
 70
     1
102
RTVSPropertyOp10
 70
     1
102
RTVSPropertyOp11
 70
     1
102
RTVSPropertyOp12
 70
     1
102
RTVSPropertyOp13
 70
     1
102
RTVSPropertyOp14
 70
     1
102
RTVSPropertyOp15
 70
     1
102
RTVSPropertyOp16
 70
     1
102
RTVSPropertyOp17
 70
     1
102
RTVSPropertyOp18
 70
     1
102
RTVSPropertyOp19
 70
     1
102
RTVSPropertyOp20
 70
     1
102
RTVSPropertyOp21
 70
     1
102
RTVSPropertyOp22
 70
     1
102
RTVSPropertyOp23
 70
     1
102
RTVSPropertyOp24
 70
     1
102
RTVSPropertyOp25
 70
     1
102
RTVSPropertyOp26
 70
     1
102
RTVSPropertyOp27
 70
     1
102
RTVSPropertyOp28
 70
     1
102
RTVSPropertyOp29
 70
     1
102
RTVSPropertyOp30
 70
     1
102
RTVSPropertyOp31
 70
     1
102
RTVSPropertyOp32
 70
     1
  0
XRECORD
  5
C9
102
{ACAD_REACTORS
330
C8
102
}
330
C8
100
AcDbXrecord
280
     1
102
RTVSPropertyOp0
 70
     1
102
RTVSPropertyOp1
 70
     1
102
RTVSPropertyOp2
 70
     1
102
RTVSPropertyOp3
 70
     1
102
RTVSPropertyOp4
 70
     1
102
RTVSPropertyOp5
 70
     1
102
RTVSPropertyOp6
 70
     1
102
RTVSPropertyOp7
 70
     1
102
RTVSPropertyOp8
 70
     1
102
RTVSPropertyOp9
 70
     1
102
RTVSPropertyOp10
 70
     1
102
RTVSPropertyOp11
 70
     1
102
RTVSPropertyOp12
 70
     1
102
RTVSPropertyOp13
 70
     1
102
RTVSPropertyOp14
 70
     1
102
RTVSPropertyOp15
 70
     1
102
RTVSPropertyOp16
 70
     1
102
RTVSPropertyOp17
 70
     1
102
RTVSPropertyOp18
 70
     1
102
RTVSPropertyOp19
 70
     1
102
RTVSPropertyOp20
 70
     1
102
RTVSPropertyOp21
 70
     1
102
RTVSPropertyOp22
 70
     1
102
RTVSPropertyOp23
 70
     1
102
RTVSPropertyOp24
 70
     1
102
RTVSPropertyOp25
 70
     1
102
RTVSPropertyOp26
 70
     1
102
RTVSPropertyOp27
 70
     1
102
RTVSPropertyOp28
 70
     1
102
RTVSPropertyOp29
 70
     1
102
RTVSPropertyOp30
 70
     1
102
RTVSPropertyOp31
 70
     1
102
RTVSPropertyOp32
 70
     1
  0
XRECORD
  5
D1
102
{ACAD_REACTORS
330
D0
102
}
330
D0
100
AcDbXrecord
280
     1
102
RTVSPropertyOp0
 70
     1
102
RTVSPropertyOp1
 70
     1
102
RTVSPropertyOp2
 70
     1
102
RTVSPropertyOp3
 70
     1
102
RTVSPropertyOp4
 70
     1
102
RTVSPropertyOp5
 70
     1
102
RTVSPropertyOp6
 70
     1
102
RTVSPropertyOp7
 70
     1
102
RTVSPropertyOp8
 70
     1
102
RTVSPropertyOp9
 70
     1
102
RTVSPropertyOp10
 70
     1
102
RTVSPropertyOp11
 70
     1
102
RTVSPropertyOp12
 70
     1
102
RTVSPropertyOp13
 70
     1
102
RTVSPropertyOp14
 70
     1
102
RTVSPropertyOp15
 70
     1
102
RTVSPropertyOp16
 70
     1
102
RTVSPropertyOp17
 70
     1
102
RTVSPropertyOp18
 70
     1
102
RTVSPropertyOp19
 70
     1
102
RTVSPropertyOp20
 70
     1
102
RTVSPropertyOp21
 70
     1
102
RTVSPropertyOp22
 70
     1
102
RTVSPropertyOp23
 70
     1
102
RTVSPropertyOp24
 70
     1
102
RTVSPropertyOp25
 70
     1
102
RTVSPropertyOp26
 70
     1
102
RTVSPropertyOp27
 70
     1
102
RTVSPropertyOp28
 70
     1
102
RTVSPropertyOp29
 70
     1
102
RTVSPropertyOp30
 70
     1
102
RTVSPropertyOp31
 70
     1
102
RTVSPropertyOp32
 70
     1
  0
XRECORD
  5
B5
102
{ACAD_REACTORS
330
B4
102
}
330
B4
100
AcDbXrecord
280
     1
102
RTVSPropertyOp0
 70
     1
102
RTVSPropertyOp1
 70
     1
102
RTVSPropertyOp2
 70
     1
102
RTVSPropertyOp3
 70
     1
102
RTVSPropertyOp4
 70
     1
102
RTVSPropertyOp5
 70
     1
102
RTVSPropertyOp6
 70
     1
102
RTVSPropertyOp7
 70
     1
102
RTVSPropertyOp8
 70
     1
102
RTVSPropertyOp9
 70
     1
102
RTVSPropertyOp10
 70
     1
102
RTVSPropertyOp11
 70
     1
102
RTVSPropertyOp12
 70
     1
102
RTVSPropertyOp13
 70
     1
102
RTVSPropertyOp14
 70
     1
102
RTVSPropertyOp15
 70
     1
102
RTVSPropertyOp16
 70
     1
102
RTVSPropertyOp17
 70
     1
102
RTVSPropertyOp18
 70
     1
102
RTVSPropertyOp19
 70
     1
102
RTVSPropertyOp20
 70
     1
102
RTVSPropertyOp21
 70
     1
102
RTVSPropertyOp22
 70
     1
102
RTVSPropertyOp23
 70
     1
102
RTVSPropertyOp24
 70
     1
102
RTVSPropertyOp25
 70
     1
102
RTVSPropertyOp26
 70
     1
102
RTVSPropertyOp27
 70
     1
102
RTVSPropertyOp28
 70
     1
102
RTVSPropertyOp29
 70
     1
102
RTVSPropertyOp30
 70
     1
102
RTVSPropertyOp31
 70
     1
102
RTVSPropertyOp32
 70
     1
  0
XRECORD
  5
B7
102
{ACAD_REACTORS
330
B6
102
}
330
B6
100
AcDbXrecord
280
     1
102
RTVSPropertyOp0
 70
     1
102
RTVSPropertyOp1
 70
     1
102
RTVSPropertyOp2
 70
     1
102
RTVSPropertyOp3
 70
     1
102
RTVSPropertyOp4
 70
     1
102
RTVSPropertyOp5
 70
     1
102
RTVSPropertyOp6
 70
     1
102
RTVSPropertyOp7
 70
     1
102
RTVSPropertyOp8
 70
     1
102
RTVSPropertyOp9
 70
     1
102
RTVSPropertyOp10
 70
     1
102
RTVSPropertyOp11
 70
     1
102
RTVSPropertyOp12
 70
     1
102
RTVSPropertyOp13
 70
     1
102
RTVSPropertyOp14
 70
     1
102
RTVSPropertyOp15
 70
     1
102
RTVSPropertyOp16
 70
     1
102
RTVSPropertyOp17
 70
     1
102
RTVSPropertyOp18
 70
     1
102
RTVSPropertyOp19
 70
     1
102
RTVSPropertyOp20
 70
     1
102
RTVSPropertyOp21
 70
     1
102
RTVSPropertyOp22
 70
     1
102
RTVSPropertyOp23
 70
     1
102
RTVSPropertyOp24
 70
     1
102
RTVSPropertyOp25
 70
     1
102
RTVSPropertyOp26
 70
     1
102
RTVSPropertyOp27
 70
     1
102
RTVSPropertyOp28
 70
     1
102
RTVSPropertyOp29
 70
     1
102
RTVSPropertyOp30
 70
     1
102
RTVSPropertyOp31
 70
     1
102
RTVSPropertyOp32
 70
     1
  0
XRECORD
  5
B9
102
{ACAD_REACTORS
330
B8
102
}
330
B8
100
AcDbXrecord
280
     1
102
RTVSPropertyOp0
 70
     1
102
RTVSPropertyOp1
 70
     1
102
RTVSPropertyOp2
 70
     1
102
RTVSPropertyOp3
 70
     1
102
RTVSPropertyOp4
 70
     1
102
RTVSPropertyOp5
 70
     1
102
RTVSPropertyOp6
 70
     1
102
RTVSPropertyOp7
 70
     1
102
RTVSPropertyOp8
 70
     1
102
RTVSPropertyOp9
 70
     1
102
RTVSPropertyOp10
 70
     1
102
RTVSPropertyOp11
 70
     1
102
RTVSPropertyOp12
 70
     1
102
RTVSPropertyOp13
 70
     1
102
RTVSPropertyOp14
 70
     1
102
RTVSPropertyOp15
 70
     1
102
RTVSPropertyOp16
 70
     1
102
RTVSPropertyOp17
 70
     1
102
RTVSPropertyOp18
 70
     1
102
RTVSPropertyOp19
 70
     1
102
RTVSPropertyOp20
 70
     1
102
RTVSPropertyOp21
 70
     1
102
RTVSPropertyOp22
 70
     1
102
RTVSPropertyOp23
 70
     1
102
RTVSPropertyOp24
 70
     1
102
RTVSPropertyOp25
 70
     1
102
RTVSPropertyOp26
 70
     1
102
RTVSPropertyOp27
 70
     1
102
RTVSPropertyOp28
 70
     1
102
RTVSPropertyOp29
 70
     1
102
RTVSPropertyOp30
 70
     1
102
RTVSPropertyOp31
 70
     1
102
RTVSPropertyOp32
 70
     1
  0
XRECORD
  5
BB
102
{ACAD_REACTORS
330
BA
102
}
330
BA
100
AcDbXrecord
280
     1
102
RTVSPropertyOp0
 70
     1
102
RTVSPropertyOp1
 70
     1
102
RTVSPropertyOp2
 70
     1
102
RTVSPropertyOp3
 70
     1
102
RTVSPropertyOp4
 70
     1
102
RTVSPropertyOp5
 70
     1
102
RTVSPropertyOp6
 70
     1
102
RTVSPropertyOp7
 70
     1
102
RTVSPropertyOp8
 70
     1
102
RTVSPropertyOp9
 70
     1
102
RTVSPropertyOp10
 70
     1
102
RTVSPropertyOp11
 70
     1
102
RTVSPropertyOp12
 70
     1
102
RTVSPropertyOp13
 70
     1
102
RTVSPropertyOp14
 70
     1
102
RTVSPropertyOp15
 70
     1
102
RTVSPropertyOp16
 70
     1
102
RTVSPropertyOp17
 70
     1
102
RTVSPropertyOp18
 70
     1
102
RTVSPropertyOp19
 70
     1
102
RTVSPropertyOp20
 70
     1
102
RTVSPropertyOp21
 70
     1
102
RTVSPropertyOp22
 70
     1
102
RTVSPropertyOp23
 70
     1
102
RTVSPropertyOp24
 70
     1
102
RTVSPropertyOp25
 70
     1
102
RTVSPropertyOp26
 70
     1
102
RTVSPropertyOp27
 70
     1
102
RTVSPropertyOp28
 70
     1
102
RTVSPropertyOp29
 70
     1
102
RTVSPropertyOp30
 70
     1
102
RTVSPropertyOp31
 70
     1
102
RTVSPropertyOp32
 70
     1
  0
XRECORD
  5
CF
102
{ACAD_REACTORS
330
CE
102
}
330
CE
100
AcDbXrecord
280
     1
102
RTVSPropertyOp0
 70
     1
102
RTVSPropertyOp1
 70
     1
102
RTVSPropertyOp2
 70
     1
102
RTVSPropertyOp3
 70
     1
102
RTVSPropertyOp4
 70
     1
102
RTVSPropertyOp5
 70
     1
102
RTVSPropertyOp6
 70
     1
102
RTVSPropertyOp7
 70
     1
102
RTVSPropertyOp8
 70
     1
102
RTVSPropertyOp9
 70
     1
102
RTVSPropertyOp10
 70
     1
102
RTVSPropertyOp11
 70
     1
102
RTVSPropertyOp12
 70
     1
102
RTVSPropertyOp13
 70
     1
102
RTVSPropertyOp14
 70
     1
102
RTVSPropertyOp15
 70
     1
102
RTVSPropertyOp16
 70
     1
102
RTVSPropertyOp17
 70
     1
102
RTVSPropertyOp18
 70
     1
102
RTVSPropertyOp19
 70
     1
102
RTVSPropertyOp20
 70
     1
102
RTVSPropertyOp21
 70
     1
102
RTVSPropertyOp22
 70
     1
102
RTVSPropertyOp23
 70
     1
102
RTVSPropertyOp24
 70
     1
102
RTVSPropertyOp25
 70
     1
102
RTVSPropertyOp26
 70
     1
102
RTVSPropertyOp27
 70
     1
102
RTVSPropertyOp28
 70
     1
102
RTVSPropertyOp29
 70
     1
102
RTVSPropertyOp30
 70
     1
102
RTVSPropertyOp31
 70
     1
102
RTVSPropertyOp32
 70
     1
  0
XRECORD
  5
C5
102
{ACAD_REACTORS
330
C4
102
}
330
C4
100
AcDbXrecord
280
     1
102
RTVSPropertyOp0
 70
     1
102
RTVSPropertyOp1
 70
     1
102
RTVSPropertyOp2
 70
     1
102
RTVSPropertyOp3
 70
     1
102
RTVSPropertyOp4
 70
     1
102
RTVSPropertyOp5
 70
     1
102
RTVSPropertyOp6
 70
     1
102
RTVSPropertyOp7
 70
     1
102
RTVSPropertyOp8
 70
     1
102
RTVSPropertyOp9
 70
     1
102
RTVSPropertyOp10
 70
     1
102
RTVSPropertyOp11
 70
     1
102
RTVSPropertyOp12
 70
     1
102
RTVSPropertyOp13
 70
     1
102
RTVSPropertyOp14
 70
     1
102
RTVSPropertyOp15
 70
     1
102
RTVSPropertyOp16
 70
     1
102
RTVSPropertyOp17
 70
     1
102
RTVSPropertyOp18
 70
     1
102
RTVSPropertyOp19
 70
     1
102
RTVSPropertyOp20
 70
     1
102
RTVSPropertyOp21
 70
     1
102
RTVSPropertyOp22
 70
     1
102
RTVSPropertyOp23
 70
     1
102
RTVSPropertyOp24
 70
     1
102
RTVSPropertyOp25
 70
     1
102
RTVSPropertyOp26
 70
     1
102
RTVSPropertyOp27
 70
     1
102
RTVSPropertyOp28
 70
     1
102
RTVSPropertyOp29
 70
     1
102
RTVSPropertyOp30
 70
     1
102
RTVSPropertyOp31
 70
     1
102
RTVSPropertyOp32
 70
     1
  0
XRECORD
  5
CD
102
{ACAD_REACTORS
330
CC
102
}
330
CC
100
AcDbXrecord
280
     1
102
RTVSPropertyOp0
 70
     1
102
RTVSPropertyOp1
 70
     1
102
RTVSPropertyOp2
 70
     1
102
RTVSPropertyOp3
 70
     1
102
RTVSPropertyOp4
 70
     1
102
RTVSPropertyOp5
 70
     1
102
RTVSPropertyOp6
 70
     1
102
RTVSPropertyOp7
 70
     1
102
RTVSPropertyOp8
 70
     1
102
RTVSPropertyOp9
 70
     1
102
RTVSPropertyOp10
 70
     1
102
RTVSPropertyOp11
 70
     1
102
RTVSPropertyOp12
 70
     1
102
RTVSPropertyOp13
 70
     1
102
RTVSPropertyOp14
 70
     1
102
RTVSPropertyOp15
 70
     1
102
RTVSPropertyOp16
 70
     1
102
RTVSPropertyOp17
 70
     1
102
RTVSPropertyOp18
 70
     1
102
RTVSPropertyOp19
 70
     1
102
RTVSPropertyOp20
 70
     1
102
RTVSPropertyOp21
 70
     1
102
RTVSPropertyOp22
 70
     1
102
RTVSPropertyOp23
 70
     1
102
RTVSPropertyOp24
 70
     1
102
RTVSPropertyOp25
 70
     1
102
RTVSPropertyOp26
 70
     1
102
RTVSPropertyOp27
 70
     1
102
RTVSPropertyOp28
 70
     1
102
RTVSPropertyOp29
 70
     1
102
RTVSPropertyOp30
 70
     1
102
RTVSPropertyOp31
 70
     1
102
RTVSPropertyOp32
 70
     1
  0
ENDSEC
  0
EOF
